<?xml version="1.0" standalone="no"?>
<!DOCTYPE svg PUBLIC "-//W3C//DTD SVG 1.1//EN" "http://www.w3.org/Graphics/SVG/1.1/DTD/svg11.dtd" >
<svg xmlns="http://www.w3.org/2000/svg" xmlns:xlink="http://www.w3.org/1999/xlink" version="1.1">
	<metadata>
		Created by FontForge 20170731 at Thu Feb 6 13:09:09 2020
		By Aleksey,,,
		(c) 2000-2020 JetBrains s.r.o. Developed with drive and IntelliJ IDEA.
	</metadata>
	<defs>
		<font id="JetBrainsMono-Italic" horiz-adv-x="600">
			<font-face
					font-family="JetBrains Mono"
					font-weight="400"
					font-style="italic"
					font-stretch="normal"
					units-per-em="1000"
					panose-1="2 11 5 9 2 1 2 5 0 4"
					ascent="800"
					descent="-200"
					x-height="550"
					cap-height="720"
					bbox="-1761 -270 725 970"
					underline-thickness="45"
					underline-position="-186"
					slope="-9"
					unicode-range="U+000A-E0B3"
			/>
			<missing-glyph
					d="M33 0l114 720h420l-114 -720h-420zM111 50h300l89 561zM489 670h-300l-89 -561z"/>
			<glyph glyph-name=".notdef"
			       d="M33 0l114 720h420l-114 -720h-420zM111 50h300l89 561zM489 670h-300l-89 -561z"/>
			<glyph glyph-name=".null" horiz-adv-x="0"
			/>
			<glyph glyph-name=".null" horiz-adv-x="0"
			/>
			<glyph glyph-name="uni000D" unicode="&#xd;"
			/>
			<glyph glyph-name="uni000A" unicode="&#xa;"
			/>
			<glyph glyph-name="space" unicode=" "
			/>
			<glyph glyph-name="exclam" unicode="!"
			       d="M288 560l25 160h102l-25 -160l-77 -345h-58zM183 54q5 27 25 44t49 17h20q29 0 45 -17t11 -44t-25.5 -43t-49.5 -16h-20q-29 0 -44.5 15.5t-10.5 43.5z"/>
			<glyph glyph-name="quotedbl" unicode="&#x22;"
			       d="M383 430l12 150l24 150h97l-24 -150l-35 -150h-74zM180 430l12 150l24 150h97l-24 -150l-35 -150h-74z"/>
			<glyph glyph-name="numbersign" unicode="#"
			       d="M20 265h96l66 190h-98l10 65h110l69 200h73l-69 -200h156l69 200h73l-69 -200h84l-10 -65h-96l-66 -190h97l-10 -65h-109l-69 -200h-73l69 200h-156l-69 -200h-73l69 200h-84zM345 265l66 190h-156l-66 -190h156z"/>
			<glyph glyph-name="dollar" unicode="$"
			       d="M49 185h92q-8 -46 18.5 -77t76.5 -38l42 266l-20 8q-75 30 -108.5 79t-22.5 118q14 83 69.5 131.5t144.5 56.5l19 121h60l-19 -122q40 -4 71 -20t51.5 -40.5t29.5 -57.5t3 -71h-92q7 43 -14 72.5t-62 37.5l-39 -245l35 -13q72 -27 104 -81t21 -127q-13 -84 -72 -133.5
t-153 -57.5l-21 -132h-60l21 131q-45 3 -80 18.5t-58 41t-33 60t-4 74.5zM335 314l-39 -244q53 7 85.5 35t39.5 75t-13 81.5t-67 50.5zM293 426l35 224q-46 -7 -75.5 -33.5t-36.5 -69.5q-14 -85 77 -121z"/>
			<glyph glyph-name="percent" unicode="%"
			       d="M60 525l10 65q10 63 49.5 99t102.5 36t90.5 -36t17.5 -99l-10 -65q-10 -63 -49 -99t-102 -36t-91 36t-18 99zM269 130l11 65q11 63 49.5 99t101.5 36t91.5 -36t17.5 -99l-11 -65q-11 -63 -49.5 -99t-101.5 -36t-91.5 36t-17.5 99zM4 148l11 70l583 351l-11 -70zM177 445
q38 0 58 23.5t25 56.5l10 65q6 37 -8 58.5t-49 21.5t-56 -21.5t-27 -58.5l-10 -65q-6 -37 8 -58.5t49 -21.5zM387 50q38 0 57.5 23.5t24.5 56.5l11 65q5 37 -9 58.5t-49 21.5t-56 -21.5t-26 -58.5l-11 -65q-5 -37 9 -58.5t49 -21.5z"/>
			<glyph glyph-name="ampersand" unicode="&#x26;"
			       d="M30 155l19 125q9 53 42 88t86 49l-5 9q-23 42 -30.5 72t-2.5 62q12 73 66.5 116.5t138.5 43.5q89 0 132 -44t31 -122h-90q6 41 -16.5 64.5t-68.5 23.5q-42 0 -70.5 -23t-33.5 -61q-3 -22 2.5 -43t18.5 -45l133 -234l88 124h99l-144 -199l91 -161h-99l-49 85
q-42 -49 -88.5 -72t-101.5 -23q-82 0 -121.5 43.5t-26.5 121.5zM196 70q33 0 66.5 21.5t61.5 63.5l2 3l-119 207q-27 -8 -45 -30t-23 -55l-19 -125q-6 -41 13.5 -63t62.5 -22z"/>
			<glyph glyph-name="quotesingle" unicode="'"
			       d="M325 730h97l-24 -150l-35 -150h-74l12 150z"/>
			<glyph glyph-name="parenleft" unicode="("
			       d="M412 -125q-119 31 -181.5 112t-62.5 202q0 37 6 76l30 190q25 156 116 254.5t245 135.5l-14 -91q-106 -25 -171.5 -99.5t-85.5 -199.5l-30 -190q-3 -17 -4 -33t-1 -32q0 -93 44 -154.5t123 -81.5z"/>
			<glyph glyph-name="parenright" unicode=")"
			       d="M59 -32q106 25 172 100.5t85 196.5l30 190q6 36 6 68q0 94 -43 155.5t-124 81.5l13 85q117 -30 180.5 -113.5t63.5 -203.5q0 -35 -6 -73l-30 -190q-49 -315 -361 -390z"/>
			<glyph glyph-name="asterisk" unicode="*"
			       d="M88 470l84 -32q30 -11 61 -32.5t52 -38.5l5 4q-3 28 -5 68.5t3 75.5l15 95h88l-15 -95q-3 -17 -8.5 -36.5t-12.5 -39t-14.5 -37l-13.5 -31.5l4 -3q26 17 63 38t71 33l92 32l17 -87l-92 -32q-32 -11 -72 -16t-69 -7l-4 -7q20 -18 44 -45.5t39 -54.5l43 -78l-77 -49l-43 78
q-15 27 -25.5 63.5t-16.5 63.5h-7q-14 -27 -35 -64t-44 -65l-66 -78l-67 51l66 78q24 28 57.5 55.5t58.5 45.5l-2 7q-29 2 -66.5 8t-66.5 17l-84 32z"/>
			<glyph glyph-name="plus" unicode="+"
			       d="M67 295l11 70h190l32 205h80l-32 -205h190l-11 -70h-190l-33 -205h-80l33 205h-190z"/>
			<glyph glyph-name="comma" unicode=","
			       d="M393 151l-179 -311h-80l129 311h130z"/>
			<glyph glyph-name="hyphen" unicode="-"
			       d="M106 370h400l-12 -75h-400z"/>
			<glyph glyph-name="period" unicode="."
			       d="M221 79q6 39 33 62.5t66 23.5t59.5 -23.5t13.5 -62.5q-7 -40 -34.5 -64.5t-66.5 -24.5t-58.5 24.5t-12.5 64.5z"/>
			<glyph glyph-name="slash" unicode="/"
			       d="M496 830h97l-502 -940h-97z"/>
			<glyph glyph-name="zero" unicode="0"
			       d="M63 205l49 310q16 102 82.5 158.5t171.5 56.5q50 0 88 -15.5t62.5 -43.5t34 -68t1.5 -88l-49 -310q-16 -101 -83.5 -158t-171.5 -57q-50 0 -88 15.5t-62 43.5t-33 68t-2 88zM261 70q60 0 100.5 36t51.5 99l49 310q10 62 -19.5 98.5t-89.5 36.5t-100.5 -36t-50.5 -99
l-49 -310q-10 -61 19.5 -98t88.5 -37zM244 275l25 160q4 25 20 40t39 15t34 -15t7 -40l-25 -160q-5 -25 -20.5 -40t-38.5 -15t-34.5 15t-6.5 40z"/>
			<glyph glyph-name="one" unicode="1"
			       d="M40 0l13 80h193l80 505q1 8 3 18.5t3.5 19.5t3 15.5l1.5 6.5h-2q-8 -6 -16 -11q-6 -5 -13.5 -10t-14.5 -9l-156 -96l15 91l172 110h115l-101 -640h162l-13 -80h-445z"/>
			<glyph glyph-name="two" unicode="2"
			       d="M20 0l16 100l217 162q49 37 84.5 69.5t59.5 64.5t37.5 64.5t19.5 68.5q4 26 -1.5 48.5t-19.5 38.5t-35.5 25t-48.5 9q-64 0 -106 -32t-51 -88h-93q18 94 88 147t175 53q47 0 84 -15t61.5 -42t35 -63.5t3.5 -79.5t-23 -82t-44 -77t-69 -77t-98 -83l-135 -104
q-11 -8 -27 -15l-16 -8v-4q16 1 31 1q14 1 28.5 1h26.5h263l-13 -82h-450z"/>
			<glyph glyph-name="three" unicode="3"
			       d="M242 -10q-47 0 -84 14t-62.5 39.5t-38.5 61.5t-10 80h90q0 -52 32 -83.5t86 -31.5q63 0 107 38.5t54 101.5t-23 101.5t-98 38.5h-83l16 96l165 145q11 10 23.5 18.5t23.5 16.5l26 16v2q-11 -1 -23 -2q-11 -1 -24 -1.5t-27 -0.5h-251l13 80h400l-16 -100l-195 -160
q-17 -13 -26 -20q-7 -5 -12 -9q54 0 95 -15.5t67.5 -44.5t37 -70t2.5 -91q-8 -51 -30.5 -91.5t-57 -69t-79.5 -44t-98 -15.5z"/>
			<glyph glyph-name="four" unicode="4"
			       d="M166 266l-4 -31h235l29 180h90l-66 -415h-90l25 155h-325l21 137l350 428h102z"/>
			<glyph glyph-name="five" unicode="5"
			       d="M144 150q4 -36 34 -58t82 -22q61 0 102.5 35t51.5 95l8 50q10 60 -21 95t-93 35q-78 0 -122 -55h-92l67 395h396l-13 -82h-309l-43 -254h6q12 21 34 38q18 14 47.5 26t74.5 12q79 0 122 -43t43 -119q0 -25 -4 -48l-8 -50q-7 -48 -29.5 -87t-56.5 -66t-78.5 -42t-96.5 -15
q-92 0 -144 43.5t-53 116.5h95z"/>
			<glyph glyph-name="six" unicode="6"
			       d="M54 215q10 60 48 128t101 150l172 227h109l-190 -240q-26 -32 -42.5 -52t-25.5 -31q-11 -12 -17 -17h15q11 16 28 28q15 11 38.5 19.5t57.5 8.5q44 0 78.5 -16t56.5 -45t30.5 -69.5t0.5 -90.5t-31.5 -91.5t-59 -71t-80 -46t-94.5 -16.5q-51 0 -91 16t-65.5 45.5t-36 71
t-2.5 92.5zM262 70q30 0 57.5 10.5t49 29.5t36 45.5t19.5 59.5t-1 59.5t-21.5 45.5t-39.5 29.5t-54 10.5q-31 0 -58.5 -10.5t-49 -29.5t-36.5 -46t-20 -59q-5 -33 1 -59.5t21.5 -45.5t40 -29.5t55.5 -10.5z"/>
			<glyph glyph-name="seven" unicode="7"
			       d="M139 720h450l-16 -102l-351 -618h-104l331 574q18 31 30 46q7 9 12 14l1 6q-16 -1 -31 -1q-13 0 -26.5 -0.5t-23.5 -0.5h-195l-17 -108h-90z"/>
			<glyph glyph-name="eight" unicode="8"
			       d="M248 -10q-53 0 -93 15t-65.5 42t-35.5 65.5t-3 84.5q5 35 20.5 65t38 53t52 38.5t62.5 20.5l1 5q-28 5 -50 19.5t-35.5 35.5t-18.5 48t-1 57q6 43 27.5 78t54 60t74.5 39t90 14t85.5 -14t61.5 -39t34 -60t3 -78q-5 -30 -18.5 -57t-34 -48.5t-46.5 -35.5t-56 -19l-1 -5
q65 -11 97 -58t21 -116q-7 -46 -29.5 -85t-57 -66.5t-79.5 -43t-98 -15.5zM146 205q-10 -61 21 -100.5t93 -39.5q31 0 58 10.5t48 29t35 44.5t19 56q10 62 -22 99.5t-94 37.5t-105 -37.5t-53 -99.5zM213 535q-9 -55 19 -91t83 -36t94 36t48 91q9 54 -18.5 87t-84.5 33
t-95 -33t-46 -87z"/>
			<glyph glyph-name="nine" unicode="9"
			       d="M100 505q8 50 31.5 91.5t59 71t80 46t94.5 16.5q51 0 91 -16t66 -45.5t36 -71t2 -92.5q-10 -60 -48 -128t-101 -150l-172 -227h-109l190 240q26 33 42.5 52.5t25.5 30.5q11 12 17 17h-15q-11 -16 -28 -28q-14 -11 -37.5 -19.5t-58.5 -8.5q-44 0 -78.5 16t-56.5 45
t-30.5 69.5t-0.5 90.5zM306 360q31 0 58.5 10.5t49 29.5t36.5 46t20 59q5 33 -1 59.5t-21.5 45.5t-40 29.5t-55.5 10.5q-30 0 -57.5 -10.5t-49 -29.5t-36 -45.5t-19.5 -59.5q-10 -65 22.5 -105t93.5 -40z"/>
			<glyph glyph-name="colon" unicode=":"
			       d="M179 71q5 35 31.5 58t63.5 23t56 -23t13 -58q-5 -37 -32 -59t-63 -22q-37 0 -56 22.5t-13 58.5zM244 479q5 35 31.5 58t63.5 23t56 -23t13 -58q-6 -37 -32.5 -59t-62.5 -22q-37 0 -56 22.5t-13 58.5z"/>
			<glyph glyph-name="semicolon" unicode=";"
			       d="M114 -160l129 311h130l-179 -311h-80zM274 479q5 35 31.5 58t63.5 23t56 -23t13 -58q-6 -37 -32.5 -59t-62.5 -22q-37 0 -56 22.5t-13 58.5z"/>
			<glyph glyph-name="less" unicode="&#x3c;"
			       d="M79 280l16 100l464 215l-15 -96l-334 -149q-24 -10 -41 -15q-9 -2 -16 -3l-1 -7q7 -2 15 -5q7 -2 16 -6t20 -10l285 -150l-13 -89z"/>
			<glyph glyph-name="equal" unicode="="
			       d="M70 250h440l-13 -80h-440zM108 490h440l-13 -80h-440z"/>
			<glyph glyph-name="greater" unicode="&#x3e;"
			       d="M60 159l334 150q14 6 24 10.5t18 6.5q9 3 16 5l2 7q-7 1 -15 4q-15 3 -37 15l-286 153l13 85l396 -215l-16 -100l-464 -215z"/>
			<glyph glyph-name="question" unicode="?"
			       d="M199 720h125q52 0 91.5 -15.5t64.5 -44.5t35 -69.5t2 -90.5q-14 -87 -70 -136t-147 -54l-16 -105h-90l28 180h50q65 0 107.5 33t51.5 92t-22.5 92t-97.5 33h-125zM146 54q5 27 26.5 44t50.5 17h20q29 0 43.5 -17t9.5 -44t-26 -43t-50 -16h-20q-29 0 -44 15.5t-10 43.5z
"/>
			<glyph glyph-name="at" unicode="@"
			       d="M15 125l50 315q11 68 38 121.5t68 91t94 57.5t116 20q115 0 171 -56t39 -164l-69 -435h-71l14 98q-41 -108 -135 -108q-52 0 -79 32t-27 92q0 11 1 24t3 27l13 80q14 83 54.5 129t102.5 46q88 0 100 -95q1 12 3 37t7 53l3 20q11 76 -26 113t-115 37q-91 0 -149.5 -57.5
t-75.5 -162.5l-50 -315q-7 -48 1 -88t29.5 -68t56 -43.5t79.5 -15.5h70l-12 -75h-70q-113 0 -176 61.5t-63 167.5q0 14 1.5 29.5t3.5 31.5zM361 128q84 0 106 106l12 77q19 121 -70 121q-34 0 -56.5 -29t-31.5 -83l-13 -80q-9 -54 5 -83t48 -29z"/>
			<glyph glyph-name="A" unicode="A"
			       d="M30 0l310 720h126l76 -720h-92l-18 203h-222l-84 -203h-96zM241 278h185l-25 285q-3 42 -3 70v27h-4l-9 -27q-5 -14 -11.5 -31.5t-15.5 -38.5z"/>
			<glyph glyph-name="B" unicode="B"
			       d="M154 720h211q101 0 151.5 -51t36.5 -139q-10 -64 -53 -104.5t-104 -45.5l-1 -6q68 -4 99.5 -49t19.5 -122q-15 -96 -81.5 -149.5t-170.5 -53.5h-222zM142 82h123q65 0 105.5 32.5t49.5 91.5q9 58 -22 91t-94 33h-123zM194 408h121q57 0 95.5 30.5t46.5 84.5t-20 84.5
t-85 30.5h-122z"/>
			<glyph glyph-name="C" unicode="C"
			       d="M254 -10q-102 0 -150.5 55.5t-33.5 154.5l50 320q8 49 29 88t54 66t75.5 41.5t93.5 14.5q91 0 141 -52t46 -143h-88q2 54 -28 85.5t-84 31.5q-60 0 -100.5 -37t-50.5 -100l-49 -310q-10 -64 19 -100.5t89 -36.5q55 0 94.5 31.5t53.5 85.5h88q-25 -93 -90.5 -144
t-158.5 -51z"/>
			<glyph glyph-name="D" unicode="D"
			       d="M40 0l114 720h199q52 0 91.5 -15.5t64.5 -44.5t35 -69t2 -90l-44 -281q-8 -50 -30.5 -90.5t-57 -69.5t-79 -44.5t-96.5 -15.5h-199zM141 80h111q63 0 107.5 38.5t54.5 101.5l44 281q11 63 -22 101t-96 38h-111z"/>
			<glyph glyph-name="E" unicode="E"
			       d="M161 720h423l-13 -80h-335l-36 -228h300l-13 -82h-300l-39 -250h335l-13 -80h-423z"/>
			<glyph glyph-name="F" unicode="F"
			       d="M161 721h428l-12 -80h-342l-37 -233h316l-13 -80h-314l-52 -328h-88z"/>
			<glyph glyph-name="G" unicode="G"
			       d="M63 205l49 310q8 50 29.5 90t54.5 67.5t76 42.5t94 15q91 0 141.5 -46t54.5 -134h-92q-2 47 -33 73.5t-84 26.5q-60 0 -100.5 -36t-50.5 -99l-49 -310q-10 -63 19 -99t89 -36t101 36t51 99l13 85h-146l13 80h236l-26 -165q-8 -50 -29.5 -90t-54.5 -67.5t-76.5 -42.5
t-94.5 -15q-50 0 -88.5 15t-62.5 43t-33 68t-1 89z"/>
			<glyph glyph-name="H" unicode="H"
			       d="M40 0l114 720h90l-48 -304h236l48 304h90l-114 -720h-90l53 334h-236l-53 -334h-90z"/>
			<glyph glyph-name="I" unicode="I"
			       d="M46 0l13 79h159l89 562h-159l12 79h408l-12 -79h-159l-89 -562h159l-13 -79h-408z"/>
			<glyph glyph-name="J" unicode="J"
			       d="M113 175q2 -48 34 -76.5t84 -28.5q64 0 108 36.5t54 98.5l68 435h-280l13 80h370l-81 -515q-8 -49 -30.5 -89t-57 -68t-79.5 -43t-98 -15q-44 0 -79.5 13t-61 37.5t-40 58.5t-14.5 76h90z"/>
			<glyph glyph-name="K" unicode="K"
			       d="M154 720h90l-48 -306h116l212 306h105l-245 -351l141 -369h-98l-124 335h-120l-53 -335h-90z"/>
			<glyph glyph-name="L" unicode="L"
			       d="M289 720l-101 -638h340l-13 -82h-430l114 720h90z"/>
			<glyph glyph-name="M" unicode="M"
			       d="M25 0l114 720h110l46 -244q6 -32 8 -63q1 -17 2 -33h8q6 16 13 33q6 14 13.5 31t14.5 32l119 244h116l-114 -720h-83l80 505q5 26 10 51t10 45q5 23 11 43h-10q-8 -19 -18 -41q-8 -20 -19.5 -44.5t-25.5 -53.5l-91 -185h-74l-33 185q-5 32 -9.5 58t-7.5 44q-3 22 -5 38
h-7q-1 -21 -3 -44l-4.5 -45t-7.5 -51l-80 -505h-83z"/>
			<glyph glyph-name="N" unicode="N"
			       d="M149 720h114l117 -483q5 -18 8 -41.5t5 -44.5q2 -25 4 -51h8l0.5 10.5t1 28.5t2.5 41.5t6 49.5l78 490h86l-114 -720h-114l-113 484q-5 23 -9 47t-6 44l-4 46h-8q0 -16 -1 -36q-2 -17 -4 -40.5t-7 -52.5l-78 -492h-86z"/>
			<glyph glyph-name="O" unicode="O"
			       d="M248 -10q-50 0 -88 15.5t-62.5 43.5t-34 67.5t-1.5 87.5l50 312q16 100 83.5 157t170.5 57q50 0 88 -15.5t62.5 -43.5t34 -67.5t1.5 -87.5l-50 -312q-16 -100 -83.5 -157t-170.5 -57zM152 204q-10 -62 19.5 -98t89.5 -36t100.5 36t50.5 98l50 312q10 62 -19.5 98
t-89.5 36t-100.5 -36t-50.5 -98z"/>
			<glyph glyph-name="P" unicode="P"
			       d="M154 720h243q49 0 86.5 -15t61.5 -43t34 -66.5t2 -85.5q-8 -48 -29.5 -87t-53.5 -66.5t-74.5 -42t-92.5 -14.5h-153l-48 -300h-90zM190 380h153q56 0 96 35.5t49 94.5t-19.5 94.5t-84.5 35.5h-153z"/>
			<glyph glyph-name="Q" unicode="Q"
			       d="M248 -10q-50 0 -88 15.5t-62.5 43.5t-34 67.5t-1.5 87.5l50 312q16 100 83.5 157t170.5 57q50 0 88 -15.5t62.5 -43.5t34 -67.5t1.5 -87.5l-50 -312q-11 -68 -46.5 -116.5t-90.5 -73.5l90 -179h-98l-77 157q-8 -1 -16 -1.5t-16 -0.5zM152 204q-10 -62 19.5 -98t89.5 -36
t100.5 36t50.5 98l50 312q10 62 -19.5 98t-89.5 36t-100.5 -36t-50.5 -98z"/>
			<glyph glyph-name="R" unicode="R"
			       d="M154 720h230q49 0 86.5 -15t62 -43t34 -66.5t1.5 -85.5q-13 -78 -58.5 -129.5t-116.5 -70.5l104 -310h-100l-95 300h-124l-48 -300h-90zM190 380h140q57 0 96.5 35.5t48.5 94.5t-19.5 94.5t-84.5 35.5h-140z"/>
			<glyph glyph-name="S" unicode="S"
			       d="M49 185h95q-4 -25 3 -46t23 -36.5t39.5 -24t53.5 -8.5q64 0 105.5 29t49.5 81q7 44 -15 78.5t-70 53.5l-71 28q-74 29 -110.5 81.5t-25.5 117.5q15 93 78.5 142t166.5 49q47 0 84 -14t61.5 -39t35 -60.5t4.5 -77.5h-95q8 48 -21.5 79.5t-82.5 31.5q-57 0 -94 -26.5
t-44 -73.5q-13 -90 84 -127l75 -29q75 -29 108.5 -84t22.5 -127q-14 -93 -82.5 -143t-178.5 -50q-50 0 -89.5 14.5t-66 40t-38 61.5t-5.5 79z"/>
			<glyph glyph-name="T" unicode="T"
			       d="M109 720h510l-12 -79h-209l-102 -641h-92l102 641h-209z"/>
			<glyph glyph-name="U" unicode="U"
			       d="M248 -10q-100 0 -148.5 56t-32.5 154l82 520h90l-82 -520q-10 -61 17.5 -95.5t86.5 -34.5q60 0 98 33.5t48 96.5l82 520h90l-82 -520q-16 -101 -80.5 -155.5t-168.5 -54.5z"/>
			<glyph glyph-name="V" unicode="V"
			       d="M108 720h92l49 -563q2 -21 3 -38.5t1 -30.5v-28h4q4 12 9 28q10 28 26 69l232 563h96l-310 -720h-126z"/>
			<glyph glyph-name="W" unicode="W"
			       d="M89 720h85l-36 -526q-2 -23 -4.5 -47.5t-4.5 -44.5q-3 -24 -6 -47h13q4 23 10 47q5 20 10.5 44.5t12.5 47.5l151 526h88l-17 -526q-1 -22 -2.5 -46.5t-3.5 -45.5q-2 -24 -4 -47h14q5 23 10 47q5 20 11 44.5t11 47.5l129 526h82l-186 -720h-128l22 529q2 58 8.5 95.5
t7.5 37.5h-17q-2 -17 -6 -38q-3 -17 -8 -41.5t-13 -53.5l-145 -529h-128z"/>
			<glyph glyph-name="X" unicode="X"
			       d="M258 367l-143 353h104l80 -209q5 -11 9 -22.5t7 -21.5l6 -20h3q6 9 13 20q6 9 13.5 20.5t15.5 23.5l148 209h99l-254 -347l151 -373h-103l-89 229q-5 12 -8.5 23.5t-6.5 20.5q-3 11 -6 21h-3q-6 -10 -13 -21q-6 -9 -13.5 -20.5t-15.5 -22.5l-162 -230h-100z"/>
			<glyph glyph-name="Y" unicode="Y"
			       d="M185 720l98 -317q5 -15 7.5 -29.5t4.5 -25.5q2 -13 2 -24h4q4 11 10 24q5 11 12.5 25.5t16.5 29.5l194 317h100l-299 -470l-40 -250h-90l40 250l-151 470h91z"/>
			<glyph glyph-name="Z" unicode="Z"
			       d="M568 720l-13 -81l-408 -562v-2l71 4h260l-13 -79h-430l13 80l408 562v2l-72 -3h-239l12 79h411z"/>
			<glyph glyph-name="bracketleft" unicode="["
			       d="M290 830h245l-13 -80h-155l-123 -780h155l-13 -80h-245z"/>
			<glyph glyph-name="backslash" unicode="\"
			       d="M440 -110h-91l-206 940h91z"/>
			<glyph glyph-name="bracketright" unicode="]"
			       d="M320 -110h-245l13 80h155l123 780h-155l13 80h245z"/>
			<glyph glyph-name="asciicircum" unicode="^"
			       d="M323 720h84l115 -390h-77l-70 260q-3 14 -6 26t-5 22q-2 12 -4 22h-6q-2 -10 -6 -22q-3 -10 -8 -22t-13 -26l-157 -260h-88z"/>
			<glyph glyph-name="underscore" unicode="_"
			       d="M16 -25h480l-12 -75h-480z"/>
			<glyph glyph-name="grave" unicode="`"
			       d="M245 796h110l86 -146h-90z"/>
			<glyph glyph-name="a" unicode="a"
			       d="M59 205l22 140q8 49 27 88.5t47 67.5t64 43.5t77 15.5q60 0 92 -28t37 -77h8l15 95h83l-68 -433q-4 -20 5.5 -31t27.5 -11h43l-12 -78h-64q-43 0 -67.5 27.5t-19.5 70.5h-8q-20 -49 -61.5 -77t-101.5 -28q-83 0 -122 58.5t-24 156.5zM250 68q52 0 88 33t49 92l25 161
q7 60 -18.5 94t-78.5 34q-59 0 -97.5 -36.5t-48.5 -100.5l-22 -140q-10 -64 17 -100.5t86 -36.5z"/>
			<glyph glyph-name="b" unicode="b"
			       d="M38 0l114 720h90l-25 -160q-2 -14 -5.5 -32.5t-7.5 -34.5q-4 -19 -9 -38h8q21 50 65.5 77.5t105.5 27.5q42 0 73.5 -15.5t51 -44t27 -68t-0.5 -87.5l-22 -140q-17 -103 -76 -159t-144 -56q-61 0 -96.5 27.5t-40.5 77.5h-8l-15 -95h-85zM161 205q-11 -63 17 -100t84 -37
q61 0 101 36.5t50 100.5l22 140q10 64 -19 100.5t-89 36.5q-56 0 -95 -37t-49 -100z"/>
			<glyph glyph-name="c" unicode="c"
			       d="M257 -10q-49 0 -86.5 15.5t-61.5 43.5t-33 67.5t-2 88.5l22 140q16 101 82.5 158t169.5 57q43 0 78.5 -13.5t60.5 -38.5t38.5 -58.5t12.5 -74.5h-90q2 47 -30 76t-83 29q-60 0 -100.5 -36t-50.5 -99l-22 -140q-10 -63 18.5 -99t89.5 -36q55 0 94 28t53 77h90
q-26 -88 -91 -136.5t-159 -48.5z"/>
			<glyph glyph-name="d" unicode="d"
			       d="M63 205l22 140q8 50 27.5 90t48 67.5t65 42.5t78.5 15q61 0 96.5 -27.5t40.5 -77.5h8q1 17 3 34q2 15 3.5 31.5t3.5 29.5l27 170h90l-114 -720h-85l15 95h-8q-20 -50 -65 -77.5t-106 -27.5q-72 0 -113 43.5t-41 121.5q0 12 1 24t3 26zM260 68q56 0 95 37t50 100l22 140
q10 63 -18 100t-84 37q-61 0 -100 -36t-50 -101l-22 -140q-10 -63 18.5 -100t88.5 -37z"/>
			<glyph glyph-name="e" unicode="e"
			       d="M248 -10q-50 0 -88 14.5t-62 42t-33 66.5t-1 87l23 150q8 49 29 88t54 66t75.5 41.5t93.5 14.5q100 0 149.5 -56.5t34.5 -153.5l-16 -101h-347l-7 -44q-11 -64 18.5 -100.5t89.5 -36.5q45 0 80.5 15t55.5 42h88q-27 -63 -90.5 -99t-146.5 -36zM431 322l4 28
q9 63 -19.5 97.5t-89.5 34.5t-101.5 -34.5t-49.5 -97.5l-4 -28h260z"/>
			<glyph glyph-name="f" unicode="f"
			       d="M-8 -170l13 80h46q51 0 82 27t39 78l63 398h-160l13 82h160l14 85q11 66 57.5 103t118.5 37h161l-13 -82h-161q-64 0 -73 -58l-14 -85h225l-13 -82h-225l-63 -398q-14 -89 -72.5 -137t-152.5 -48h-45z"/>
			<glyph glyph-name="g" unicode="g"
			       d="M218 45q-43 0 -75 15t-52.5 42t-27.5 66t0 87l15 95q8 48 27 87t48 66t66.5 42t80.5 15q60 0 97 -28.5t44 -81.5h7l16 100h85l-81 -515q-16 -97 -81.5 -151t-168.5 -54h-135l13 82h135q60 0 99 32t48 91l4 25l19 95h-6q-23 -53 -70 -81.5t-107 -28.5zM155 255
q-10 -62 19.5 -97t89.5 -35t99 35t49 97l15 95q10 62 -18.5 97t-88.5 35t-100 -35t-50 -97z"/>
			<glyph glyph-name="h" unicode="h"
			       d="M152 720h90l-27 -170q-2 -14 -5.5 -30.5t-6.5 -30.5l-8 -34h8q21 50 65 77.5t103 27.5q40 0 71 -14.5t51 -40t27.5 -61.5t0.5 -78l-58 -366h-90l56 351q10 63 -16.5 98t-83.5 35t-96 -37.5t-50 -101.5l-55 -345h-90z"/>
			<glyph glyph-name="i" unicode="i"
			       d="M45 0l13 82h200l61 386h-175l13 82h265l-74 -468h165l-13 -82h-455zM311 703q5 28 25.5 45t49.5 17h20q29 0 45 -17t11 -44t-25.5 -43t-49.5 -16h-20q-29 0 -44.5 15.5t-11.5 42.5z"/>
			<glyph glyph-name="j" unicode="j"
			       d="M8 -170l13 83h120q32 0 59 10t48.5 28t35.5 43.5t19 55.5l66 418h-230l13 82h320l-79 -500q-7 -48 -30.5 -88.5t-59 -70t-80 -45.5t-95.5 -16h-120zM422 645q-29 0 -44.5 15.5t-11.5 42.5q4 28 25 45t50 17h20q29 0 44.5 -17t11.5 -44t-25 -43t-50 -16h-20z"/>
			<glyph glyph-name="k" unicode="k"
			       d="M43 0l116 730h90l-65 -410h107l203 230h105l-239 -274l155 -276h-104l-131 240h-109l-38 -240h-90z"/>
			<glyph glyph-name="l" unicode="l"
			       d="M104 720h272l-89 -560q-5 -37 11.5 -57.5t51.5 -20.5h163l-13 -82h-163q-77 0 -114 42.5t-26 117.5l76 478h-182z"/>
			<glyph glyph-name="m" unicode="m"
			       d="M12 0l87 550h78l-13 -81h7q11 44 37 67.5t66 23.5q74 0 80 -91h6q11 44 39 67.5t68 23.5q51 0 74.5 -37.5t12.5 -103.5l-66 -419h-86l66 419q6 35 -5.5 53.5t-38.5 18.5q-29 0 -48.5 -20t-24.5 -57l-66 -414h-70l66 419q6 35 -6.5 53.5t-40.5 18.5q-29 0 -47.5 -20
t-23.5 -57l-66 -414h-85z"/>
			<glyph glyph-name="n" unicode="n"
			       d="M38 0l87 550h85l-14 -95h7q21 50 65 77.5t103 27.5q40 0 71 -14.5t50.5 -40.5t27 -62.5t0.5 -81.5l-57 -361h-90l56 351q11 64 -15.5 98.5t-84.5 34.5q-56 0 -95 -35.5t-50 -97.5l-56 -351h-90z"/>
			<glyph glyph-name="o" unicode="o"
			       d="M248 -10q-103 0 -152 57t-33 158l22 140q8 50 29.5 89.5t54.5 67.5t76 43t94 15q103 0 152.5 -56.5t33.5 -157.5l-22 -141q-17 -100 -84.5 -157.5t-170.5 -57.5zM153 205q-10 -63 18.5 -99t89.5 -36q60 0 101 36t51 99l22 140q10 63 -19.5 99t-89.5 36t-100.5 -36
t-50.5 -99z"/>
			<glyph glyph-name="p" unicode="p"
			       d="M11 -170l114 720h85l-15 -95h8q21 50 65.5 77.5t105.5 27.5q42 0 73.5 -15.5t51 -44t27 -68t-0.5 -87.5l-22 -140q-16 -102 -74.5 -158.5t-145.5 -56.5q-61 0 -96.5 27.5t-40.5 77.5h-8q-1 -17 -3 -34q-1 -15 -3 -31t-4 -30l-27 -170h-90zM262 68q60 0 100.5 37t50.5 100
l22 140q11 65 -18 101t-90 36q-56 0 -95 -37t-49 -100l-22 -140q-11 -63 17 -100t84 -37z"/>
			<glyph glyph-name="q" unicode="q"
			       d="M213 -10q-42 0 -73.5 14.5t-51.5 41.5t-27 65t0 84l25 160q7 46 26.5 84t48 65t65 41.5t78.5 14.5q61 0 96.5 -27.5t40.5 -77.5h8l15 95h85l-114 -720h-90l27 170q2 14 5.5 30t6.5 31l8 34h-8q-20 -50 -65 -77.5t-106 -27.5zM153 205q-10 -63 18.5 -100t88.5 -37
q56 0 95 37t50 100l22 140q10 63 -18 100t-84 37q-61 0 -100 -36t-50 -101z"/>
			<glyph glyph-name="r" unicode="r"
			       d="M62 0l87 550h83l-15 -95h8q20 49 66 77t106 28q42 0 74 -14.5t51.5 -41.5t26.5 -64.5t-1 -83.5l-5 -36h-88l4 25q11 65 -16.5 101.5t-86.5 36.5q-60 0 -100.5 -37.5t-50.5 -100.5l-55 -345h-88z"/>
			<glyph glyph-name="s" unicode="s"
			       d="M53 135h88q2 -29 30.5 -47t74.5 -18h28q54 0 87.5 22.5t39.5 61.5q11 67 -79 80l-81 12q-155 22 -133 158q12 74 69.5 115t151.5 41h28q78 0 124.5 -37.5t46.5 -101.5h-88q-2 27 -28 43t-68 16h-28q-51 0 -82 -20t-38 -60q-5 -32 11.5 -49.5t59.5 -23.5l81 -12
q83 -12 117.5 -52t23.5 -109q-12 -78 -71.5 -121t-156.5 -43h-28q-85 0 -134 39.5t-46 105.5z"/>
			<glyph glyph-name="t" unicode="t"
			       d="M97 550h160l27 170h90l-27 -170h215l-13 -82h-215l-51 -326q-5 -28 10 -44t45 -16h140l-13 -82h-140q-71 0 -106.5 39t-25.5 103l51 326h-160z"/>
			<glyph glyph-name="u" unicode="u"
			       d="M73 194l56 356h90l-58 -356q-21 -125 99 -125q121 0 141 125l56 356h88l-56 -356q-15 -98 -77.5 -151t-164.5 -53q-98 0 -143.5 54t-30.5 150z"/>
			<glyph glyph-name="v" unicode="v"
			       d="M87 550h87l76 -389q4 -22 5.5 -39.5t2.5 -30.5v-26h9q1 12 5 26q3 13 9.5 30.5t17.5 39.5l192 389h94l-282 -550h-102z"/>
			<glyph glyph-name="w" unicode="w"
			       d="M67 550h79l-11 -377q0 -18 -1 -40t-3 -41q-1 -22 -3 -44h11l12 44q5 19 11.5 41t11.5 40l118 377h86l-2 -377q0 -19 -0.5 -41t-0.5 -41q-1 -22 -2 -43h12q5 22 11 44q5 19 11 40.5t11 40.5l110 377h79l-165 -550h-124l3 389q0 17 1.5 35.5t3.5 34.5q2 18 5 36h-13l-6 -36
q-3 -16 -7.5 -34.5t-9.5 -35.5l-119 -389h-119z"/>
			<glyph glyph-name="x" unicode="x"
			       d="M242 284l-145 266h98l89 -175q8 -14 11 -25l4 -10h4q3 5 7 10t8.5 11.5t10.5 13.5l142 175h107l-230 -269l154 -281h-99l-95 186q-3 7 -6.5 13.5t-5.5 12.5q-3 7 -6 13h-4q-4 -7 -8 -13t-8.5 -13t-9.5 -13l-156 -186h-104z"/>
			<glyph glyph-name="y" unicode="y"
			       d="M77 239l49 311h88l-46 -291q-10 -63 16.5 -99t83.5 -36t96 35.5t48 95.5l47 295h88l-88 -542q-14 -85 -69.5 -131.5t-146.5 -46.5h-146l12 78h146q48 0 78 26t38 74l9 52l20 95h-6q-21 -50 -65 -77.5t-103 -27.5q-81 0 -121.5 51.5t-27.5 137.5z"/>
			<glyph glyph-name="z" unicode="z"
			       d="M30 0l16 103l386 364l1 6q-11 -1 -23 -1q-11 -1 -24.5 -1.5t-27.5 -0.5h-246l13 80h421l-16 -104l-390 -364l-1 -6q11 1 24 2q11 1 24.5 1.5t27.5 0.5h268l-13 -80h-440z"/>
			<glyph glyph-name="braceleft" unicode="{"
			       d="M87 320l13 80h110q32 0 53.5 5.5t34.5 17.5t19 31t9 46l16 164q8 79 65 122.5t146 43.5h45l-13 -80h-45q-48 0 -75.5 -21.5t-32.5 -64.5l-16 -164q-3 -27 -13.5 -51.5t-28 -43t-41.5 -29.5t-54 -12l-1 -5q50 -2 73.5 -31t23.5 -71q0 -20 -4 -37l-36 -164
q-9 -43 12.5 -64.5t69.5 -21.5h45l-13 -80h-45q-77 0 -120 33t-43 94q0 20 4 39l36 164q6 26 6 43q0 30 -19.5 43.5t-70.5 13.5h-110z"/>
			<glyph glyph-name="bar" unicode="|"
			       d="M336 830h90l-149 -940h-90z"/>
			<glyph glyph-name="braceright" unicode="}"
			       d="M10 -101l13 80h45q48 0 76 21.5t33 64.5l16 165q3 27 13.5 51.5t27.5 43t41 29.5t54 12l1 5q-30 1 -50 12.5t-31.5 30.5t-14.5 44t3 52l36 164q9 43 -12 64.5t-69 21.5h-45l12 80h45q77 0 120.5 -33t43.5 -93q0 -17 -5 -40l-36 -164q-6 -25 -6 -43q0 -30 19.5 -43.5
t70.5 -13.5h110l-12 -80h-110q-32 0 -53.5 -5.5t-34.5 -17.5t-19 -31t-9 -46l-16 -165q-8 -79 -65.5 -122.5t-146.5 -43.5h-45z"/>
			<glyph glyph-name="asciitilde" unicode="~"
			       d="M55 255l12 70q9 61 47.5 95.5t98.5 34.5q29 0 50 -9.5t36.5 -24t27.5 -31.5t23.5 -31.5t24.5 -24t30 -9.5q46 0 55 55l11 70h85l-11 -70q-10 -61 -48.5 -95.5t-97.5 -34.5q-29 0 -50 9.5t-36.5 24t-27.5 31.5t-23.5 31.5t-24.5 24t-30 9.5q-47 0 -55 -55l-12 -70h-85z
"/>
			<glyph glyph-name="exclamdown" unicode="&#xa1;"
			       d="M202 -170l25 160l77 345h58l-33 -345l-25 -160h-102zM284 496q5 27 25.5 43t49.5 16h20q29 0 45 -15.5t11 -42.5q-5 -28 -25.5 -45t-49.5 -17h-20q-29 0 -44.5 17t-11.5 44z"/>
			<glyph glyph-name="cent" unicode="&#xa2;"
			       d="M71 205l22 140q14 94 71.5 149t148.5 64l21 132h65l-21 -132q37 -4 66.5 -19.5t50.5 -39t32 -55t10 -69.5h-90q1 39 -21.5 66.5t-60.5 35.5l-63 -404q42 8 71.5 34t42.5 68h90q-25 -80 -81.5 -127.5t-135.5 -55.5l-21 -132h-65l21 132q-85 10 -126 67.5t-27 145.5z
M237 73l63 404q-48 -9 -78 -42.5t-39 -89.5l-22 -140q-8 -54 11.5 -88t64.5 -44z"/>
			<glyph glyph-name="sterling" unicode="&#xa3;"
			       d="M25 0l16 100q33 20 61 42q23 19 43.5 42.5t25.5 49.5q4 23 4 46h-106l13 80h78q-7 20 -16 38.5t-15.5 37.5t-9.5 40.5t1 48.5q14 93 78 144t166 51q100 0 149.5 -50.5t36.5 -140.5h-95q8 51 -21 81t-84 30q-57 0 -94 -30.5t-46 -84.5q-4 -30 -0.5 -52t11 -40.5
t17.5 -35.5t17 -37h187l-13 -80h-161q-1 -8 -1.5 -17.5t-2.5 -19.5q-7 -45 -29 -75.5t-46 -50.5q-28 -23 -61 -37h370l-13 -80h-460z"/>
			<glyph glyph-name="currency" unicode="&#xa4;"
			       d="M105 244q-25 49 -15 111q5 32 18 60.5t32 52.5l-72 86l73 63l74 -88q51 28 110 28q63 0 105 -31l99 85l53 -63l-99 -85q10 -23 13.5 -50.5t-1.5 -57.5q-9 -62 -48 -110l73 -87l-73 -63l-73 87q-26 -14 -54.5 -21.5t-58.5 -7.5q-61 0 -102 29l-101 -87l-53 63zM273 226
q58 0 98.5 35.5t49.5 93.5t-20 93.5t-87 35.5t-99.5 -35.5t-50.5 -93.5t21 -93.5t88 -35.5z"/>
			<glyph glyph-name="yen" unicode="&#xa5;"
			       d="M314 120l-19 -120h-90l19 120h-195l12 75h195l12 75h-195l12 75h157l-128 375h93l101 -297q4 -12 7 -25t4.5 -24t2.5 -18.5t1 -10.5h4q1 3 4.5 10.5t8.5 18.5t11.5 24t14.5 25l190 297h98l-247 -375h158l-12 -75h-195l-12 -75h195l-12 -75h-195z"/>
			<glyph glyph-name="brokenbar" unicode="&#xa6;"
			       d="M337 830h90l-61 -380h-90zM248 270h90l-60 -380h-90z"/>
			<glyph glyph-name="section" unicode="&#xa7;"
			       d="M25 -10h95q4 -33 32 -53.5t70 -20.5h30q57 0 90 23.5t40 62.5q12 73 -86 93l-74 15q-36 8 -64.5 23.5t-47.5 37t-26.5 48t-3.5 56.5q5 29 18.5 54t33.5 44t45.5 31t53.5 15l2 7q-2 0 -19 2t-36.5 12.5t-35 32.5t-15.5 62q0 49 18.5 85.5t50 61t72.5 36.5t87 12h30
q79 0 126.5 -39.5t48.5 -105.5h-95q-3 29 -28.5 47t-64.5 18h-30q-51 0 -83 -22t-38 -60q-5 -32 16.5 -56t66.5 -33l72 -15q36 -7 64.5 -23t47.5 -38t27 -48.5t3 -56.5q-4 -29 -18 -54t-34 -44t-46.5 -29.5t-56.5 -10.5l-1 -7q37 -4 65 -21q23 -15 39.5 -44.5t7.5 -82.5
q-13 -78 -74.5 -123.5t-160.5 -45.5h-30q-41 0 -74.5 11t-58 31.5t-38 48.5t-13.5 63zM234 190l74 -15q21 -4 41 3t35.5 23t26.5 38.5t15 49.5q5 35 -12.5 61.5t-51.5 33.5l-72 15q-21 5 -40.5 -2t-35 -22.5t-26.5 -37t-15 -47.5q-6 -38 11 -65.5t50 -34.5z"/>
			<glyph glyph-name="dieresis" unicode="&#xa8;"
			       d="M426 727q5 27 24.5 43.5t46.5 16.5t40.5 -16.5t8.5 -43.5t-24 -43.5t-46 -16.5t-41 16.5t-9 43.5zM226 727q5 27 24.5 43.5t46.5 16.5t40.5 -16.5t8.5 -43.5t-24 -43.5t-46 -16.5t-41 16.5t-9 43.5z"/>
			<glyph glyph-name="copyright" unicode="&#xa9;"
			       d="M261 110q-57 0 -101.5 17.5t-73 49t-40 75.5t-2.5 98l24 150q9 54 34 98.5t63.5 76t88.5 48.5t107 17t101.5 -17t73 -48.5t40 -76t2.5 -98.5l-24 -150q-9 -54 -34 -98t-63.5 -75.5t-88.5 -49t-107 -17.5zM99 350q-7 -43 2 -78t31.5 -60t57 -38.5t79.5 -13.5t84 13.5
t69 38.5t50 60t27 78l24 150q7 43 -2 78t-31.5 60t-57 38.5t-79.5 13.5t-84 -13.5t-69 -38.5t-50 -60t-27 -78zM288 245q-57 0 -86 31.5t-21 83.5l21 130q8 52 47 83.5t96 31.5q98 0 109 -95h-65q-4 19 -18 29.5t-35 10.5q-27 0 -46 -16.5t-23 -43.5l-21 -130
q-5 -27 9 -43.5t41 -16.5q21 0 38.5 10.5t27.5 29.5h65q-41 -95 -139 -95z"/>
			<glyph glyph-name="ordfeminine" unicode="&#xaa;"
			       d="M205 536q6 39 37.5 62t80.5 23h90l5 29q4 23 -11.5 36.5t-45.5 13.5q-26 0 -46 -11t-25 -29h-50q11 38 44 59t83 21q54 0 81 -24t20 -66l-31 -195h-47l9 55h-3q-15 -28 -43 -44t-63 -16q-45 0 -68 23.5t-17 62.5zM309 488q39 0 64 17.5t30 49.5l4 26h-90q-26 0 -42 -12
t-20 -33q-4 -23 10.5 -35.5t43.5 -12.5z"/>
			<glyph glyph-name="guillemotleft" unicode="&#xab;"
			       d="M22 280l239 240h106l-204 -204q-9 -9 -17.5 -15.5t-14.5 -11.5q-7 -5 -13 -8l-1 -2q4 -3 8 -8t9.5 -11.5t11.5 -15.5l144 -204h-104zM255 280l239 240h106l-205 -204q-9 -9 -17 -15.5t-14 -11.5q-7 -5 -13 -8l-1 -2q4 -3 8 -8t9.5 -11.5t11.5 -15.5l144 -204h-104z"/>
			<glyph glyph-name="logicalnot" unicode="&#xac;"
			       d="M86 415h460l-33 -210h-80l21 135h-380z"/>
			<glyph glyph-name="registered" unicode="&#xae;"
			       d="M256 110q-57 0 -101.5 17.5t-73 49t-40 75.5t-2.5 98l24 150q9 54 34 98.5t63.5 76t88.5 48.5t107 17t101.5 -17t73 -48.5t40 -76t2.5 -98.5l-24 -150q-9 -54 -34 -98t-63.5 -75.5t-88.5 -49t-107 -17.5zM94 350q-7 -43 2 -78t31.5 -60t57 -38.5t79.5 -13.5t84 13.5
t69 38.5t50 60t27 78l24 150q7 43 -2 78t-31.5 60t-57 38.5t-79.5 13.5t-84 -13.5t-69 -38.5t-50 -60t-27 -78zM169 250l55 350h114q54 0 81 -28.5t19 -76.5q-12 -69 -74 -94l42 -151h-64l-37 140v0h-54l-22 -140h-60zM313 440q26 0 43 14.5t21 40.5q8 55 -47 55h-54
l-17 -110h54z"/>
			<glyph glyph-name="macron" unicode="&#xaf;"
			       d="M240 770h260l-11 -75h-260z"/>
			<glyph glyph-name="degree" unicode="&#xb0;"
			       d="M181 595q11 66 58 105.5t115 39.5t102.5 -39.5t24.5 -105.5t-57.5 -105.5t-115.5 -39.5t-102.5 39.5t-24.5 105.5zM316 501q42 0 70 26t35 68q7 43 -13.5 69t-62.5 26q-40 0 -69 -26t-35 -69q-6 -42 14.5 -68t60.5 -26z"/>
			<glyph glyph-name="plusminus" unicode="&#xb1;"
			       d="M86 321l11 70h190l32 205h80l-32 -205h190l-11 -70h-190l-33 -205h-80l33 205h-190zM39 0l11 70h460l-11 -70h-460z"/>
			<glyph glyph-name="twosuperior" unicode="&#xb2;"
			       d="M167 440l11 65l130 70q39 21 59.5 40t23.5 41q4 29 -11 46.5t-44 17.5t-49.5 -17.5t-25.5 -46.5h-60q11 52 50 83t93 31q57 0 86 -30.5t21 -81.5q-5 -31 -29.5 -62.5t-70.5 -54.5l-102 -51l-2 -9q10 3 22 5q11 2 24 3t28 1h109l-8 -50h-255z"/>
			<glyph glyph-name="threesuperior" unicode="&#xb3;"
			       d="M294 435q-28 0 -50.5 8t-37.5 22t-21.5 33t-2.5 42h60q-4 -25 12.5 -40t47.5 -15q30 0 50.5 15t24.5 40t-11.5 40t-44.5 15h-30l9 60l103 64l1 7q-10 -3 -21 -5q-10 -2 -22 -4t-26 -2h-100l8 50h215l-10 -60l-64 -44q-8 -5 -17 -9.5t-17 -7.5q46 -5 70 -33t17 -71
q-8 -49 -46 -77t-97 -28z"/>
			<glyph glyph-name="acute" unicode="&#xb4;"
			       d="M451.091 796h-109.994l-109.119 -146h89.9951z"/>
			<glyph glyph-name="uni00B5" unicode="&#xb5;"
			       d="M14 -165l113 715h90l-56 -356q-10 -60 13 -92.5t86 -32.5q62 0 96 31t45 94l56 356h90l-56 -356q-15 -98 -76 -151t-158 -53q-49 0 -77 12t-42 27q-17 16 -22 38h-4q1 0 2 -8t2 -20t1 -26t-1 -26l-13 -152h-89z"/>
			<glyph glyph-name="paragraph" unicode="&#xb6;"
			       d="M253 300q-43 0 -76 12t-55 34.5t-30.5 54t-2.5 69.5l13 80q6 38 25 69.5t47.5 54t65 34.5t79.5 12h250l-114 -720h-80l103 649h-90l-103 -649h-80z"/>
			<glyph glyph-name="periodcentered" unicode="&#xb7;"
			       d="M221 349q6 39 33 62.5t66 23.5t59.5 -23.5t13.5 -62.5q-7 -40 -34.5 -64.5t-66.5 -24.5t-58.5 24.5t-12.5 64.5z"/>
			<glyph glyph-name="cedilla" unicode="&#xb8;"
			       d="M184 -135h70q22 0 36.5 8t16.5 22q3 17 -22.5 26.5t-76.5 9.5l50 95h57l-30 -61q33 -3 58 -12q21 -8 37.5 -24t11.5 -42q-5 -35 -41.5 -56t-90.5 -21h-85z"/>
			<glyph glyph-name="onesuperior" unicode="&#xb9;"
			       d="M194 490h118l29 183q4 24 8.5 35.5t4.5 12.5h-6q-5 -4 -10 -10q-5 -5 -12 -10.5t-16 -12.5l-70 -54l11 70l79 61h85l-43 -275h107l-8 -50h-285z"/>
			<glyph glyph-name="ordmasculine" unicode="&#xba;"
			       d="M311 445q-52 0 -79.5 28.5t-19.5 76.5l13 80q8 48 43.5 76.5t87.5 28.5t79.5 -28.5t19.5 -76.5l-13 -80q-8 -48 -43.5 -76.5t-87.5 -28.5zM262 550q-5 -29 10.5 -47t44.5 -18t49.5 18t25.5 47l13 80q5 29 -10.5 47t-44.5 18t-49.5 -18t-25.5 -47z"/>
			<glyph glyph-name="guillemotright" unicode="&#xbb;"
			       d="M432 244q10 9 18 15.5t13 11.5q7 5 13 8l1 2q-3 3 -7 8l-21 27l-145 204h104l163 -240l-239 -240h-110zM199 244q10 9 18 15.5t13 11.5q7 5 13 8l1 2q-3 3 -7 8l-21 27l-145 204h104l163 -240l-239 -240h-110z"/>
			<glyph glyph-name="onequarter" unicode="&#xbc;"
			       d="M290 394h-247l8 50h118l29 183q4 24 8.5 35.5t4.5 12.5h-6q-5 -4 -10 -10q-5 -5 -12 -10.5t-16 -12.5l-70 -54l11 70l79 61h85l-43 -275h95l190 276h81l-495 -720h-81zM327 70l13 84l153 171h69l-165 -189l-2 -16h116l12 79h60l-31 -199h-60l11 70h-176z"/>
			<glyph glyph-name="onehalf" unicode="&#xbd;"
			       d="M44 445h118l29 183q4 24 8.5 35.5t4.5 12.5h-6q-5 -4 -10 -10q-5 -5 -12 -10.5t-16 -12.5l-70 -54l11 70l79 61h85l-43 -275h104l176 275h68l-459 -720h-69l252 395h-258zM338 65l130 70q39 21 59.5 40t23.5 41q4 29 -11 46.5t-44 17.5t-49.5 -17.5t-25.5 -46.5h-60
q11 52 50 83t93 31q57 0 86 -30.5t21 -81.5q-5 -31 -29.5 -62.5t-70.5 -54.5l-102 -51l-2 -9q10 3 22 5q11 2 24 3t28 1h109l-8 -50h-255z"/>
			<glyph glyph-name="threequarters" unicode="&#xbe;"
			       d="M502 720h68l-459 -720h-69zM144 390q-28 0 -50.5 8t-37.5 22t-21.5 33t-2.5 42h60q-4 -25 12.5 -40t47.5 -15q30 0 50.5 15t24.5 40t-11.5 40t-44.5 15h-30l9 60l103 64l1 7q-10 -3 -21 -5q-10 -2 -22 -4t-26 -2h-100l8 50h215l-10 -60l-64 -44q-8 -5 -17 -9.5t-17 -7.5
q46 -5 70 -33t17 -71q-8 -49 -46 -77t-97 -28zM398 136l-3 -16h116l13 79h60l-32 -199h-60l11 70h-176l13 84l154 171h69z"/>
			<glyph glyph-name="questiondown" unicode="&#xbf;"
			       d="M83 55q14 87 70 136t147 54l17 105h90l-29 -180h-50q-65 0 -107.5 -33t-51.5 -92t22.5 -92t97.5 -33h125l-13 -85h-125q-52 0 -91.5 15.5t-64.5 44.5t-35 69.5t-2 90.5zM304 501q5 27 26 43t50 16h20q29 0 44 -15.5t10 -43.5q-5 -27 -26.5 -44t-50.5 -17h-20
q-29 0 -43.5 17t-9.5 44z"/>
			<glyph glyph-name="Agrave" unicode="&#xc0;"
			       d="M30 0l310 720h126l76 -720h-92l-18 203h-222l-84 -203h-96zM241 278h185l-25 285q-3 42 -3 70v27h-4l-9 -27q-5 -14 -11.5 -31.5t-15.5 -38.5zM245 956h110l86 -146h-90z"/>
			<glyph glyph-name="Aacute" unicode="&#xc1;"
			       d="M30 0l310 720h126l76 -720h-92l-18 203h-222l-84 -203h-96zM241 278h185l-25 285q-3 42 -3 70v27h-4l-9 -27q-5 -14 -11.5 -31.5t-15.5 -38.5zM451.091 956h-109.994l-109.119 -146h89.9951z"/>
			<glyph glyph-name="Acircumflex" unicode="&#xc2;"
			       d="M30 0l310 720h126l76 -720h-92l-18 203h-222l-84 -203h-96zM241 278h185l-25 285q-3 42 -3 70v27h-4l-9 -27q-5 -14 -11.5 -31.5t-15.5 -38.5zM247 810l155 145h70l105 -145h-75l-45 57q-15 20 -19 26q-4 5 -5 8h-3q-3 -3 -8 -7q-6 -7 -28 -26l-66 -58h-81z"/>
			<glyph glyph-name="Atilde" unicode="&#xc3;"
			       d="M30 0l310 720h126l76 -720h-92l-18 203h-222l-84 -203h-96zM241 278h185l-25 285q-3 42 -3 70v27h-4l-9 -27q-5 -14 -11.5 -31.5t-15.5 -38.5zM220 815l4 20q11 58 45 89t86 31q34 0 54 -12.5t35 -27.5t30 -27.5t37 -12.5q21 0 36 14.5t19 40.5l3 20h65l-3 -20
q-9 -58 -44 -89t-87 -31q-34 0 -54 12.5t-35 27.5t-29.5 27.5t-37.5 12.5q-44 0 -55 -55l-4 -20h-65z"/>
			<glyph glyph-name="Adieresis" unicode="&#xc4;"
			       d="M30 0l310 720h126l76 -720h-92l-18 203h-222l-84 -203h-96zM241 278h185l-25 285q-3 42 -3 70v27h-4l-9 -27q-5 -14 -11.5 -31.5t-15.5 -38.5zM466 887q5 27 24.5 43.5t46.5 16.5t40.5 -16.5t8.5 -43.5t-24 -43.5t-46 -16.5t-41 16.5t-9 43.5zM266 887q5 27 24.5 43.5
t46.5 16.5t40.5 -16.5t8.5 -43.5t-24 -43.5t-46 -16.5t-41 16.5t-9 43.5z"/>
			<glyph glyph-name="Aring" unicode="&#xc5;"
			       d="M30 0l310 720h126l76 -720h-92l-18 203h-222l-84 -203h-96zM241 278h185l-25 285q-3 42 -3 70v27h-4l-9 -27q-5 -14 -11.5 -31.5t-15.5 -38.5zM297 870q7 45 44 72.5t91 27.5t83.5 -27.5t21.5 -72.5t-45 -72.5t-91 -27.5t-83 27.5t-21 72.5zM408 821q28 0 47 13.5
t22 35.5q4 26 -10.5 38t-43.5 12q-26 0 -44 -13.5t-22 -36.5q-4 -22 10.5 -35.5t40.5 -13.5z"/>
			<glyph glyph-name="AE" unicode="&#xc6;"
			       d="M-20 0l258 710h395l-13 -82h-182l-35 -221h157l-13 -82h-157l-39 -243h182l-13 -82h-270l32 203h-140l-73 -203h-89zM169 278h125l56 350h-56z"/>
			<glyph glyph-name="Ccedilla" unicode="&#xc7;"
			       d="M254 -10q-102 0 -150.5 55.5t-33.5 154.5l50 320q8 49 29 88t54 66t75.5 41.5t93.5 14.5q91 0 141 -52t46 -143h-88q2 54 -28 85.5t-84 31.5q-60 0 -100.5 -37t-50.5 -100l-49 -310q-10 -64 19 -100.5t89 -36.5q55 0 94.5 31.5t53.5 85.5h88q-25 -93 -90.5 -144
t-158.5 -51zM184 -135h70q22 0 36.5 8t16.5 22q3 17 -22.5 26.5t-76.5 9.5l50 95h57l-30 -61q33 -3 58 -12q21 -8 37.5 -24t11.5 -42q-5 -35 -41.5 -56t-90.5 -21h-85z"/>
			<glyph glyph-name="Egrave" unicode="&#xc8;"
			       d="M161 720h423l-13 -80h-335l-36 -228h300l-13 -82h-300l-39 -250h335l-13 -80h-423zM245 956h110l86 -146h-90z"/>
			<glyph glyph-name="Eacute" unicode="&#xc9;"
			       d="M161 720h423l-13 -80h-335l-36 -228h300l-13 -82h-300l-39 -250h335l-13 -80h-423zM451.091 956h-109.994l-109.119 -146h89.9951z"/>
			<glyph glyph-name="Ecircumflex" unicode="&#xca;"
			       d="M161 720h423l-13 -80h-335l-36 -228h300l-13 -82h-300l-39 -250h335l-13 -80h-423zM200 810l155 145h70l105 -145h-75l-45 57q-15 20 -19 26q-4 5 -5 8h-3q-3 -3 -8 -7q-6 -7 -28 -26l-66 -58h-81z"/>
			<glyph glyph-name="Edieresis" unicode="&#xcb;"
			       d="M161 720h423l-13 -80h-335l-36 -228h300l-13 -82h-300l-39 -250h335l-13 -80h-423zM426 887q5 27 24.5 43.5t46.5 16.5t40.5 -16.5t8.5 -43.5t-24 -43.5t-46 -16.5t-41 16.5t-9 43.5zM226 887q5 27 24.5 43.5t46.5 16.5t40.5 -16.5t8.5 -43.5t-24 -43.5t-46 -16.5
t-41 16.5t-9 43.5z"/>
			<glyph glyph-name="Igrave" unicode="&#xcc;"
			       d="M46 0l13 79h159l89 562h-159l12 79h408l-12 -79h-159l-89 -562h159l-13 -79h-408zM245 956h110l86 -146h-90z"/>
			<glyph glyph-name="Iacute" unicode="&#xcd;"
			       d="M46 0l13 79h159l89 562h-159l12 79h408l-12 -79h-159l-89 -562h159l-13 -79h-408zM451.091 956h-109.994l-109.119 -146h89.9951z"/>
			<glyph glyph-name="Icircumflex" unicode="&#xce;"
			       d="M46 0l13 79h159l89 562h-159l12 79h408l-12 -79h-159l-89 -562h159l-13 -79h-408zM206 810l155 145h70l105 -145h-75l-45 57q-15 20 -19 26q-4 5 -5 8h-3q-3 -3 -8 -7q-6 -7 -28 -26l-66 -58h-81z"/>
			<glyph glyph-name="Idieresis" unicode="&#xcf;"
			       d="M46 0l13 79h159l89 562h-159l12 79h408l-12 -79h-159l-89 -562h159l-13 -79h-408zM428 887q5 27 24.5 43.5t46.5 16.5t40.5 -16.5t8.5 -43.5t-24 -43.5t-46 -16.5t-41 16.5t-9 43.5zM228 887q5 27 24.5 43.5t46.5 16.5t40.5 -16.5t8.5 -43.5t-24 -43.5t-46 -16.5
t-41 16.5t-9 43.5z"/>
			<glyph glyph-name="Eth" unicode="&#xd0;"
			       d="M40 395h61l51 325h201q52 0 92 -16t66 -44.5t36 -69t2 -89.5l-44 -281q-8 -49 -31 -90t-58 -69.5t-80 -44.5t-97 -16h-201l51 320h-61zM179 320l-38 -240h111q63 0 107.5 38.5t54.5 101.5l44 281q11 63 -22 101t-96 38h-111l-38 -245h114l-12 -75h-114z"/>
			<glyph glyph-name="Ntilde" unicode="&#xd1;"
			       d="M149 720h114l117 -483q5 -18 8 -41.5t5 -44.5q2 -25 4 -51h8l0.5 10.5t1 28.5t2.5 41.5t6 49.5l78 490h86l-114 -720h-114l-113 484q-5 23 -9 47t-6 44l-4 46h-8q0 -16 -1 -36q-2 -17 -4 -40.5t-7 -52.5l-78 -492h-86zM175 815l4 20q11 58 45 89t86 31q34 0 54 -12.5
t35 -27.5t30 -27.5t37 -12.5q21 0 36 14.5t19 40.5l3 20h65l-3 -20q-9 -58 -44 -89t-87 -31q-34 0 -54 12.5t-35 27.5t-29.5 27.5t-37.5 12.5q-44 0 -55 -55l-4 -20h-65z"/>
			<glyph glyph-name="Ograve" unicode="&#xd2;"
			       d="M248 -10q-50 0 -88 15.5t-62.5 43.5t-34 67.5t-1.5 87.5l50 312q16 100 83.5 157t170.5 57q50 0 88 -15.5t62.5 -43.5t34 -67.5t1.5 -87.5l-50 -312q-16 -100 -83.5 -157t-170.5 -57zM152 204q-10 -62 19.5 -98t89.5 -36t100.5 36t50.5 98l50 312q10 62 -19.5 98
t-89.5 36t-100.5 -36t-50.5 -98zM245 956h110l86 -146h-90z"/>
			<glyph glyph-name="Oacute" unicode="&#xd3;"
			       d="M248 -10q-50 0 -88 15.5t-62.5 43.5t-34 67.5t-1.5 87.5l50 312q16 100 83.5 157t170.5 57q50 0 88 -15.5t62.5 -43.5t34 -67.5t1.5 -87.5l-50 -312q-16 -100 -83.5 -157t-170.5 -57zM152 204q-10 -62 19.5 -98t89.5 -36t100.5 36t50.5 98l50 312q10 62 -19.5 98
t-89.5 36t-100.5 -36t-50.5 -98zM451.091 956h-109.994l-109.119 -146h89.9951z"/>
			<glyph glyph-name="Ocircumflex" unicode="&#xd4;"
			       d="M248 -10q-50 0 -88 15.5t-62.5 43.5t-34 67.5t-1.5 87.5l50 312q16 100 83.5 157t170.5 57q50 0 88 -15.5t62.5 -43.5t34 -67.5t1.5 -87.5l-50 -312q-16 -100 -83.5 -157t-170.5 -57zM152 204q-10 -62 19.5 -98t89.5 -36t100.5 36t50.5 98l50 312q10 62 -19.5 98
t-89.5 36t-100.5 -36t-50.5 -98zM200 810l155 145h70l105 -145h-75l-45 57q-15 20 -19 26q-4 5 -5 8h-3q-3 -3 -8 -7q-6 -7 -28 -26l-66 -58h-81z"/>
			<glyph glyph-name="Otilde" unicode="&#xd5;"
			       d="M248 -10q-50 0 -88 15.5t-62.5 43.5t-34 67.5t-1.5 87.5l50 312q16 100 83.5 157t170.5 57q50 0 88 -15.5t62.5 -43.5t34 -67.5t1.5 -87.5l-50 -312q-16 -100 -83.5 -157t-170.5 -57zM152 204q-10 -62 19.5 -98t89.5 -36t100.5 36t50.5 98l50 312q10 62 -19.5 98
t-89.5 36t-100.5 -36t-50.5 -98zM170 815l4 20q11 58 45 89t86 31q34 0 54 -12.5t35 -27.5t30 -27.5t37 -12.5q21 0 36 14.5t19 40.5l3 20h65l-3 -20q-9 -58 -44 -89t-87 -31q-34 0 -54 12.5t-35 27.5t-29.5 27.5t-37.5 12.5q-44 0 -55 -55l-4 -20h-65z"/>
			<glyph glyph-name="Odieresis" unicode="&#xd6;"
			       d="M248 -10q-50 0 -88 15.5t-62.5 43.5t-34 67.5t-1.5 87.5l50 312q16 100 83.5 157t170.5 57q50 0 88 -15.5t62.5 -43.5t34 -67.5t1.5 -87.5l-50 -312q-16 -100 -83.5 -157t-170.5 -57zM152 204q-10 -62 19.5 -98t89.5 -36t100.5 36t50.5 98l50 312q10 62 -19.5 98
t-89.5 36t-100.5 -36t-50.5 -98zM426 887q5 27 24.5 43.5t46.5 16.5t40.5 -16.5t8.5 -43.5t-24 -43.5t-46 -16.5t-41 16.5t-9 43.5zM226 887q5 27 24.5 43.5t46.5 16.5t40.5 -16.5t8.5 -43.5t-24 -43.5t-46 -16.5t-41 16.5t-9 43.5z"/>
			<glyph glyph-name="multiply" unicode="&#xd7;"
			       d="M520 471l-168 -145l119 -141l-55 -49l-119 142l-164 -142l-47 55l164 141l-119 142l55 48l119 -141l168 145z"/>
			<glyph glyph-name="Oslash" unicode="&#xd8;"
			       d="M-21 -40l93 130q-20 50 -10 114l50 312q16 100 83.5 157t170.5 57q83 0 134 -42l44 62h90l-90 -126q8 -23 10.5 -50t-2.5 -58l-50 -312q-16 -100 -83.5 -157t-170.5 -57q-80 0 -130 39l-49 -69h-90zM444 611q-28 39 -91 39q-60 0 -100.5 -36t-50.5 -98l-50 -312v-3z
M173 105q30 -35 88 -35q60 0 100.5 36t50.5 98l49 304z"/>
			<glyph glyph-name="Ugrave" unicode="&#xd9;"
			       d="M248 -10q-100 0 -148.5 56t-32.5 154l82 520h90l-82 -520q-10 -61 17.5 -95.5t86.5 -34.5q60 0 98 33.5t48 96.5l82 520h90l-82 -520q-16 -101 -80.5 -155.5t-168.5 -54.5zM245 956h110l86 -146h-90z"/>
			<glyph glyph-name="Uacute" unicode="&#xda;"
			       d="M248 -10q-100 0 -148.5 56t-32.5 154l82 520h90l-82 -520q-10 -61 17.5 -95.5t86.5 -34.5q60 0 98 33.5t48 96.5l82 520h90l-82 -520q-16 -101 -80.5 -155.5t-168.5 -54.5zM451.091 956h-109.994l-109.119 -146h89.9951z"/>
			<glyph glyph-name="Ucircumflex" unicode="&#xdb;"
			       d="M248 -10q-100 0 -148.5 56t-32.5 154l82 520h90l-82 -520q-10 -61 17.5 -95.5t86.5 -34.5q60 0 98 33.5t48 96.5l82 520h90l-82 -520q-16 -101 -80.5 -155.5t-168.5 -54.5zM200 810l155 145h70l105 -145h-75l-45 57q-15 20 -19 26q-4 5 -5 8h-3q-3 -3 -8 -7
q-6 -7 -28 -26l-66 -58h-81z"/>
			<glyph glyph-name="Udieresis" unicode="&#xdc;"
			       d="M248 -10q-100 0 -148.5 56t-32.5 154l82 520h90l-82 -520q-10 -61 17.5 -95.5t86.5 -34.5q60 0 98 33.5t48 96.5l82 520h90l-82 -520q-16 -101 -80.5 -155.5t-168.5 -54.5zM426 887q5 27 24.5 43.5t46.5 16.5t40.5 -16.5t8.5 -43.5t-24 -43.5t-46 -16.5t-41 16.5t-9 43.5
zM226 887q5 27 24.5 43.5t46.5 16.5t40.5 -16.5t8.5 -43.5t-24 -43.5t-46 -16.5t-41 16.5t-9 43.5z"/>
			<glyph glyph-name="Yacute" unicode="&#xdd;"
			       d="M185 720l98 -317q5 -15 7.5 -29.5t4.5 -25.5q2 -13 2 -24h4q4 11 10 24q5 11 12.5 25.5t16.5 29.5l194 317h100l-299 -470l-40 -250h-90l40 250l-151 470h91zM451.091 956h-109.994l-109.119 -146h89.9951z"/>
			<glyph glyph-name="Thorn" unicode="&#xde;"
			       d="M154 720h90l-23 -145h153q49 0 87 -14.5t62 -40.5t33.5 -63t2.5 -82q-7 -46 -28 -83t-53.5 -63t-74.5 -40t-92 -14h-153l-28 -175h-90zM323 255q58 0 96 32t47 88t-19.5 88t-85.5 32h-153l-38 -240h153z"/>
			<glyph glyph-name="germandbls" unicode="&#xdf;"
			       d="M-140 -90h46q51 0 82 27t39 78l85 536q6 40 25 73t48 56.5t66 36.5t79 13h73q43 0 76 -13t54.5 -36.5t29.5 -56.5t2 -73l-13 -81h-90q-88 0 -100 -70q-9 -59 57 -74l33 -7q68 -14 98 -58t19 -110q-12 -76 -63.5 -118.5t-132.5 -42.5q-76 0 -117.5 37t-39.5 103h95
q1 -29 20.5 -44.5t54.5 -15.5q39 0 63.5 20.5t29.5 58.5q5 36 -8 57t-48 29l-32 7q-140 30 -120 157q11 72 64.5 111.5t139.5 39.5q8 45 -15.5 72.5t-69.5 27.5h-73q-45 0 -76 -27.5t-39 -72.5l-85 -535q-14 -89 -72.5 -137t-152.5 -48h-45z"/>
			<glyph glyph-name="agrave" unicode="&#xe0;"
			       d="M59 205l22 140q8 49 27 88.5t47 67.5t64 43.5t77 15.5q60 0 92 -28t37 -77h8l15 95h83l-68 -433q-4 -20 5.5 -31t27.5 -11h43l-12 -78h-64q-43 0 -67.5 27.5t-19.5 70.5h-8q-20 -49 -61.5 -77t-101.5 -28q-83 0 -122 58.5t-24 156.5zM250 68q52 0 88 33t49 92l25 161
q7 60 -18.5 94t-78.5 34q-59 0 -97.5 -36.5t-48.5 -100.5l-22 -140q-10 -64 17 -100.5t86 -36.5zM245 796h110l86 -146h-90z"/>
			<glyph glyph-name="aacute" unicode="&#xe1;"
			       d="M59 205l22 140q8 49 27 88.5t47 67.5t64 43.5t77 15.5q60 0 92 -28t37 -77h8l15 95h83l-68 -433q-4 -20 5.5 -31t27.5 -11h43l-12 -78h-64q-43 0 -67.5 27.5t-19.5 70.5h-8q-20 -49 -61.5 -77t-101.5 -28q-83 0 -122 58.5t-24 156.5zM250 68q52 0 88 33t49 92l25 161
q7 60 -18.5 94t-78.5 34q-59 0 -97.5 -36.5t-48.5 -100.5l-22 -140q-10 -64 17 -100.5t86 -36.5zM451.091 796h-109.994l-109.119 -146h89.9951z"/>
			<glyph glyph-name="acircumflex" unicode="&#xe2;"
			       d="M59 205l22 140q8 49 27 88.5t47 67.5t64 43.5t77 15.5q60 0 92 -28t37 -77h8l15 95h83l-68 -433q-4 -20 5.5 -31t27.5 -11h43l-12 -78h-64q-43 0 -67.5 27.5t-19.5 70.5h-8q-20 -49 -61.5 -77t-101.5 -28q-83 0 -122 58.5t-24 156.5zM250 68q52 0 88 33t49 92l25 161
q7 60 -18.5 94t-78.5 34q-59 0 -97.5 -36.5t-48.5 -100.5l-22 -140q-10 -64 17 -100.5t86 -36.5zM200 650l155 145h70l105 -145h-75l-45 57q-15 20 -19 26q-4 5 -5 8h-3q-3 -3 -8 -7q-6 -7 -28 -26l-66 -58h-81z"/>
			<glyph glyph-name="atilde" unicode="&#xe3;"
			       d="M59 205l22 140q8 49 27 88.5t47 67.5t64 43.5t77 15.5q60 0 92 -28t37 -77h8l15 95h83l-68 -433q-4 -20 5.5 -31t27.5 -11h43l-12 -78h-64q-43 0 -67.5 27.5t-19.5 70.5h-8q-20 -49 -61.5 -77t-101.5 -28q-83 0 -122 58.5t-24 156.5zM250 68q52 0 88 33t49 92l25 161
q7 60 -18.5 94t-78.5 34q-59 0 -97.5 -36.5t-48.5 -100.5l-22 -140q-10 -64 17 -100.5t86 -36.5zM170 655l4 20q11 58 45 89t86 31q34 0 54 -12.5t35 -27.5t30 -27.5t37 -12.5q21 0 36 14.5t19 40.5l3 20h65l-3 -20q-9 -58 -44 -89t-87 -31q-34 0 -54 12.5t-35 27.5
t-29.5 27.5t-37.5 12.5q-44 0 -55 -55l-4 -20h-65z"/>
			<glyph glyph-name="adieresis" unicode="&#xe4;"
			       d="M59 205l22 140q8 49 27 88.5t47 67.5t64 43.5t77 15.5q60 0 92 -28t37 -77h8l15 95h83l-68 -433q-4 -20 5.5 -31t27.5 -11h43l-12 -78h-64q-43 0 -67.5 27.5t-19.5 70.5h-8q-20 -49 -61.5 -77t-101.5 -28q-83 0 -122 58.5t-24 156.5zM250 68q52 0 88 33t49 92l25 161
q7 60 -18.5 94t-78.5 34q-59 0 -97.5 -36.5t-48.5 -100.5l-22 -140q-10 -64 17 -100.5t86 -36.5zM426 727q5 27 24.5 43.5t46.5 16.5t40.5 -16.5t8.5 -43.5t-24 -43.5t-46 -16.5t-41 16.5t-9 43.5zM226 727q5 27 24.5 43.5t46.5 16.5t40.5 -16.5t8.5 -43.5t-24 -43.5
t-46 -16.5t-41 16.5t-9 43.5z"/>
			<glyph glyph-name="aring" unicode="&#xe5;"
			       d="M59 205l22 140q8 49 27 88.5t47 67.5t64 43.5t77 15.5q60 0 92 -28t37 -77h8l15 95h83l-68 -433q-4 -20 5.5 -31t27.5 -11h43l-12 -78h-64q-43 0 -67.5 27.5t-19.5 70.5h-8q-20 -49 -61.5 -77t-101.5 -28q-83 0 -122 58.5t-24 156.5zM250 68q52 0 88 33t49 92l25 161
q7 60 -18.5 94t-78.5 34q-59 0 -97.5 -36.5t-48.5 -100.5l-22 -140q-10 -64 17 -100.5t86 -36.5zM268 710q7 45 44 72.5t91 27.5t83.5 -27.5t21.5 -72.5t-45 -72.5t-91 -27.5t-83 27.5t-21 72.5zM379 661q28 0 47 13.5t22 35.5q4 26 -10.5 38t-43.5 12q-26 0 -44 -13.5
t-22 -36.5q-4 -22 10.5 -35.5t40.5 -13.5z"/>
			<glyph glyph-name="ae" unicode="&#xe6;"
			       d="M8 130l9 60q9 62 57 98.5t118 36.5h74l11 74q7 44 -5.5 64t-47.5 20q-58 0 -73 -59h-85q19 66 58.5 101t96.5 35q42 0 63 -12.5t31 -27.5q11 -18 11 -40h4q13 22 32 40q16 15 40.5 27.5t58.5 12.5q66 0 98 -43.5t21 -116.5l-23 -145h-222l-16 -105q-6 -38 9 -60.5
t45 -22.5q26 0 46.5 16t29.5 42h85q-20 -64 -63.5 -99.5t-100.5 -35.5q-42 0 -63 12.5t-31 27.5q-11 18 -11 40h-4q-8 -22 -27 -40q-15 -15 -42 -27.5t-72 -12.5q-30 0 -53.5 10t-38 28.5t-20 44.5t-0.5 57zM153 67q32 0 55.5 22.5t29.5 60.5l16 105h-72q-31 0 -50.5 -17.5
t-24.5 -47.5l-9 -60q-5 -29 10 -46t45 -17zM484 325l11 75q5 38 -9 60.5t-47 22.5q-32 0 -54 -22.5t-27 -60.5l-11 -75h137z"/>
			<glyph glyph-name="ccedilla" unicode="&#xe7;"
			       d="M257 -10q-49 0 -86.5 15.5t-61.5 43.5t-33 67.5t-2 88.5l22 140q16 101 82.5 158t169.5 57q43 0 78.5 -13.5t60.5 -38.5t38.5 -58.5t12.5 -74.5h-90q2 47 -30 76t-83 29q-60 0 -100.5 -36t-50.5 -99l-22 -140q-10 -63 18.5 -99t89.5 -36q55 0 94 28t53 77h90
q-26 -88 -91 -136.5t-159 -48.5zM184 -135h70q22 0 36.5 8t16.5 22q3 17 -22.5 26.5t-76.5 9.5l50 95h57l-30 -61q33 -3 58 -12q21 -8 37.5 -24t11.5 -42q-5 -35 -41.5 -56t-90.5 -21h-85z"/>
			<glyph glyph-name="egrave" unicode="&#xe8;"
			       d="M248 -10q-50 0 -88 14.5t-62 42t-33 66.5t-1 87l23 150q8 49 29 88t54 66t75.5 41.5t93.5 14.5q100 0 149.5 -56.5t34.5 -153.5l-16 -101h-347l-7 -44q-11 -64 18.5 -100.5t89.5 -36.5q45 0 80.5 15t55.5 42h88q-27 -63 -90.5 -99t-146.5 -36zM431 322l4 28
q9 63 -19.5 97.5t-89.5 34.5t-101.5 -34.5t-49.5 -97.5l-4 -28h260zM245 796h110l86 -146h-90z"/>
			<glyph glyph-name="eacute" unicode="&#xe9;"
			       d="M248 -10q-50 0 -88 14.5t-62 42t-33 66.5t-1 87l23 150q8 49 29 88t54 66t75.5 41.5t93.5 14.5q100 0 149.5 -56.5t34.5 -153.5l-16 -101h-347l-7 -44q-11 -64 18.5 -100.5t89.5 -36.5q45 0 80.5 15t55.5 42h88q-27 -63 -90.5 -99t-146.5 -36zM431 322l4 28
q9 63 -19.5 97.5t-89.5 34.5t-101.5 -34.5t-49.5 -97.5l-4 -28h260zM451.091 796h-109.994l-109.119 -146h89.9951z"/>
			<glyph glyph-name="ecircumflex" unicode="&#xea;"
			       d="M248 -10q-50 0 -88 14.5t-62 42t-33 66.5t-1 87l23 150q8 49 29 88t54 66t75.5 41.5t93.5 14.5q100 0 149.5 -56.5t34.5 -153.5l-16 -101h-347l-7 -44q-11 -64 18.5 -100.5t89.5 -36.5q45 0 80.5 15t55.5 42h88q-27 -63 -90.5 -99t-146.5 -36zM431 322l4 28
q9 63 -19.5 97.5t-89.5 34.5t-101.5 -34.5t-49.5 -97.5l-4 -28h260zM200 650l155 145h70l105 -145h-75l-45 57q-15 20 -19 26q-4 5 -5 8h-3q-3 -3 -8 -7q-6 -7 -28 -26l-66 -58h-81z"/>
			<glyph glyph-name="edieresis" unicode="&#xeb;"
			       d="M248 -10q-50 0 -88 14.5t-62 42t-33 66.5t-1 87l23 150q8 49 29 88t54 66t75.5 41.5t93.5 14.5q100 0 149.5 -56.5t34.5 -153.5l-16 -101h-347l-7 -44q-11 -64 18.5 -100.5t89.5 -36.5q45 0 80.5 15t55.5 42h88q-27 -63 -90.5 -99t-146.5 -36zM431 322l4 28
q9 63 -19.5 97.5t-89.5 34.5t-101.5 -34.5t-49.5 -97.5l-4 -28h260zM426 727q5 27 24.5 43.5t46.5 16.5t40.5 -16.5t8.5 -43.5t-24 -43.5t-46 -16.5t-41 16.5t-9 43.5zM226 727q5 27 24.5 43.5t46.5 16.5t40.5 -16.5t8.5 -43.5t-24 -43.5t-46 -16.5t-41 16.5t-9 43.5z"/>
			<glyph glyph-name="igrave" unicode="&#xec;"
			       d="M58 82h200l61 386h-175l13 82h265l-74 -468h165l-13 -82h-455zM245 796h110l86 -146h-90z"/>
			<glyph glyph-name="iacute" unicode="&#xed;"
			       d="M58 82h200l61 386h-175l13 82h265l-74 -468h165l-13 -82h-455zM451.091 796h-109.994l-109.119 -146h89.9951z"/>
			<glyph glyph-name="icircumflex" unicode="&#xee;"
			       d="M58 82h200l61 386h-175l13 82h265l-74 -468h165l-13 -82h-455zM200 650l155 145h70l105 -145h-75l-45 57q-15 20 -19 26q-4 5 -5 8h-3q-3 -3 -8 -7q-6 -7 -28 -26l-66 -58h-81z"/>
			<glyph glyph-name="idieresis" unicode="&#xef;"
			       d="M58 82h200l61 386h-175l13 82h265l-74 -468h165l-13 -82h-455zM426 727q5 27 24.5 43.5t46.5 16.5t40.5 -16.5t8.5 -43.5t-24 -43.5t-46 -16.5t-41 16.5t-9 43.5zM226 727q5 27 24.5 43.5t46.5 16.5t40.5 -16.5t8.5 -43.5t-24 -43.5t-46 -16.5t-41 16.5t-9 43.5z"/>
			<glyph glyph-name="eth" unicode="&#xf0;"
			       d="M247 -10q-52 0 -91.5 16t-64.5 45.5t-35 71t-2 92.5q8 50 29.5 90.5t54 69.5t73.5 45t89 16q30 0 50 -8.5t32 -19.5q13 -12 21 -28h14q-7 9 -16 24q-8 12 -18.5 31t-24.5 45l-46 87l-167 -72l13 80l122 53l-54 102h109l32 -64l160 69l-12 -80l-117 -51l55 -111
q80 -161 61 -278q-8 -50 -31.5 -91.5t-58.5 -71t-80 -46t-97 -16.5zM144 215q-11 -66 21 -105.5t95 -39.5q32 0 59.5 10.5t49 29.5t36 45.5t19.5 59.5q11 66 -21.5 105.5t-96.5 39.5q-63 0 -107 -39.5t-55 -105.5z"/>
			<glyph glyph-name="ntilde" unicode="&#xf1;"
			       d="M38 0l87 550h85l-14 -95h7q21 50 65 77.5t103 27.5q40 0 71 -14.5t50.5 -40.5t27 -62.5t0.5 -81.5l-57 -361h-90l56 351q11 64 -15.5 98.5t-84.5 34.5q-56 0 -95 -35.5t-50 -97.5l-56 -351h-90zM170 655l4 20q11 58 45 89t86 31q34 0 54 -12.5t35 -27.5t30 -27.5
t37 -12.5q21 0 36 14.5t19 40.5l3 20h65l-3 -20q-9 -58 -44 -89t-87 -31q-34 0 -54 12.5t-35 27.5t-29.5 27.5t-37.5 12.5q-44 0 -55 -55l-4 -20h-65z"/>
			<glyph glyph-name="ograve" unicode="&#xf2;"
			       d="M248 -10q-103 0 -152 57t-33 158l22 140q8 50 29.5 89.5t54.5 67.5t76 43t94 15q103 0 152.5 -56.5t33.5 -157.5l-22 -141q-17 -100 -84.5 -157.5t-170.5 -57.5zM153 205q-10 -63 18.5 -99t89.5 -36q60 0 101 36t51 99l22 140q10 63 -19.5 99t-89.5 36t-100.5 -36
t-50.5 -99zM245 796h110l86 -146h-90z"/>
			<glyph glyph-name="oacute" unicode="&#xf3;"
			       d="M248 -10q-103 0 -152 57t-33 158l22 140q8 50 29.5 89.5t54.5 67.5t76 43t94 15q103 0 152.5 -56.5t33.5 -157.5l-22 -141q-17 -100 -84.5 -157.5t-170.5 -57.5zM153 205q-10 -63 18.5 -99t89.5 -36q60 0 101 36t51 99l22 140q10 63 -19.5 99t-89.5 36t-100.5 -36
t-50.5 -99zM451.091 796h-109.994l-109.119 -146h89.9951z"/>
			<glyph glyph-name="ocircumflex" unicode="&#xf4;"
			       d="M248 -10q-103 0 -152 57t-33 158l22 140q8 50 29.5 89.5t54.5 67.5t76 43t94 15q103 0 152.5 -56.5t33.5 -157.5l-22 -141q-17 -100 -84.5 -157.5t-170.5 -57.5zM153 205q-10 -63 18.5 -99t89.5 -36q60 0 101 36t51 99l22 140q10 63 -19.5 99t-89.5 36t-100.5 -36
t-50.5 -99zM200 650l155 145h70l105 -145h-75l-45 57q-15 20 -19 26q-4 5 -5 8h-3q-3 -3 -8 -7q-6 -7 -28 -26l-66 -58h-81z"/>
			<glyph glyph-name="otilde" unicode="&#xf5;"
			       d="M248 -10q-103 0 -152 57t-33 158l22 140q8 50 29.5 89.5t54.5 67.5t76 43t94 15q103 0 152.5 -56.5t33.5 -157.5l-22 -141q-17 -100 -84.5 -157.5t-170.5 -57.5zM153 205q-10 -63 18.5 -99t89.5 -36q60 0 101 36t51 99l22 140q10 63 -19.5 99t-89.5 36t-100.5 -36
t-50.5 -99zM170 655l4 20q11 58 45 89t86 31q34 0 54 -12.5t35 -27.5t30 -27.5t37 -12.5q21 0 36 14.5t19 40.5l3 20h65l-3 -20q-9 -58 -44 -89t-87 -31q-34 0 -54 12.5t-35 27.5t-29.5 27.5t-37.5 12.5q-44 0 -55 -55l-4 -20h-65z"/>
			<glyph glyph-name="odieresis" unicode="&#xf6;"
			       d="M248 -10q-103 0 -152 57t-33 158l22 140q8 50 29.5 89.5t54.5 67.5t76 43t94 15q103 0 152.5 -56.5t33.5 -157.5l-22 -141q-17 -100 -84.5 -157.5t-170.5 -57.5zM153 205q-10 -63 18.5 -99t89.5 -36q60 0 101 36t51 99l22 140q10 63 -19.5 99t-89.5 36t-100.5 -36
t-50.5 -99zM426 727q5 27 24.5 43.5t46.5 16.5t40.5 -16.5t8.5 -43.5t-24 -43.5t-46 -16.5t-41 16.5t-9 43.5zM226 727q5 27 24.5 43.5t46.5 16.5t40.5 -16.5t8.5 -43.5t-24 -43.5t-46 -16.5t-41 16.5t-9 43.5z"/>
			<glyph glyph-name="divide" unicode="&#xf7;"
			       d="M94 295l12 75h400l-12 -75h-400zM252 519q5 27 25 44t49 17h20q29 0 45 -17t11 -44t-25.5 -43t-49.5 -16h-20q-29 0 -44.5 15.5t-10.5 43.5zM192 144q5 27 25 44t49 17h20q29 0 45 -17t11 -44t-25.5 -43t-49.5 -16h-20q-29 0 -44.5 15.5t-10.5 43.5z"/>
			<glyph glyph-name="oslash" unicode="&#xf8;"
			       d="M-20 -30l95 110q-24 51 -12 125l22 140q8 50 29.5 89.5t54.5 67.5t76 43t94 15q74 0 122 -31l53 61h95l-99 -115q27 -51 15 -129l-22 -141q-17 -100 -84.5 -157.5t-170.5 -57.5q-79 0 -127 34l-47 -54h-94zM182 95q30 -25 79 -25q60 0 101 36t51 99l22 140q4 22 1 45z
M401 458q-30 22 -75 22q-60 0 -100.5 -36t-50.5 -99l-22 -140q-3 -19 -3 -37z"/>
			<glyph glyph-name="ugrave" unicode="&#xf9;"
			       d="M73 194l56 356h90l-58 -356q-21 -125 99 -125q121 0 141 125l56 356h88l-56 -356q-15 -98 -77.5 -151t-164.5 -53q-98 0 -143.5 54t-30.5 150zM245 796h110l86 -146h-90z"/>
			<glyph glyph-name="uacute" unicode="&#xfa;"
			       d="M73 194l56 356h90l-58 -356q-21 -125 99 -125q121 0 141 125l56 356h88l-56 -356q-15 -98 -77.5 -151t-164.5 -53q-98 0 -143.5 54t-30.5 150zM451.091 796h-109.994l-109.119 -146h89.9951z"/>
			<glyph glyph-name="ucircumflex" unicode="&#xfb;"
			       d="M73 194l56 356h90l-58 -356q-21 -125 99 -125q121 0 141 125l56 356h88l-56 -356q-15 -98 -77.5 -151t-164.5 -53q-98 0 -143.5 54t-30.5 150zM200 650l155 145h70l105 -145h-75l-45 57q-15 20 -19 26q-4 5 -5 8h-3q-3 -3 -8 -7q-6 -7 -28 -26l-66 -58h-81z"/>
			<glyph glyph-name="udieresis" unicode="&#xfc;"
			       d="M73 194l56 356h90l-58 -356q-21 -125 99 -125q121 0 141 125l56 356h88l-56 -356q-15 -98 -77.5 -151t-164.5 -53q-98 0 -143.5 54t-30.5 150zM426 727q5 27 24.5 43.5t46.5 16.5t40.5 -16.5t8.5 -43.5t-24 -43.5t-46 -16.5t-41 16.5t-9 43.5zM226 727q5 27 24.5 43.5
t46.5 16.5t40.5 -16.5t8.5 -43.5t-24 -43.5t-46 -16.5t-41 16.5t-9 43.5z"/>
			<glyph glyph-name="yacute" unicode="&#xfd;"
			       d="M77 239l49 311h88l-46 -291q-10 -63 16.5 -99t83.5 -36t96 35.5t48 95.5l47 295h88l-88 -542q-14 -85 -69.5 -131.5t-146.5 -46.5h-146l12 78h146q48 0 78 26t38 74l9 52l20 95h-6q-21 -50 -65 -77.5t-103 -27.5q-81 0 -121.5 51.5t-27.5 137.5zM451.091 796h-109.994
l-109.119 -146h89.9951z"/>
			<glyph glyph-name="thorn" unicode="&#xfe;"
			       d="M7 -165l140 885h90l-25 -160q-2 -14 -5.5 -32.5t-7.5 -34.5q-4 -19 -9 -38h8q21 50 65.5 77.5t105.5 27.5q42 0 73.5 -15.5t51 -44t27 -68t-0.5 -87.5l-22 -140q-17 -103 -76 -159t-144 -56q-61 0 -96.5 27.5t-40.5 77.5h-8l-41 -260h-85zM156 205q-11 -63 17 -100
t84 -37q61 0 101 36.5t50 100.5l22 140q10 64 -19 100.5t-89 36.5q-56 0 -95 -37t-49 -100z"/>
			<glyph glyph-name="ydieresis" unicode="&#xff;"
			       d="M77 239l49 311h88l-46 -291q-10 -63 16.5 -99t83.5 -36t96 35.5t48 95.5l47 295h88l-88 -542q-14 -85 -69.5 -131.5t-146.5 -46.5h-146l12 78h146q48 0 78 26t38 74l9 52l20 95h-6q-21 -50 -65 -77.5t-103 -27.5q-81 0 -121.5 51.5t-27.5 137.5zM426 727q5 27 24.5 43.5
t46.5 16.5t40.5 -16.5t8.5 -43.5t-24 -43.5t-46 -16.5t-41 16.5t-9 43.5zM226 727q5 27 24.5 43.5t46.5 16.5t40.5 -16.5t8.5 -43.5t-24 -43.5t-46 -16.5t-41 16.5t-9 43.5z"/>
			<glyph glyph-name="Amacron" unicode="&#x100;"
			       d="M30 0l310 720h126l76 -720h-92l-18 203h-222l-84 -203h-96zM241 278h185l-25 285q-3 42 -3 70v27h-4l-9 -27q-5 -14 -11.5 -31.5t-15.5 -38.5zM308 930h260l-11 -75h-260z"/>
			<glyph glyph-name="amacron" unicode="&#x101;"
			       d="M59 205l22 140q8 49 27 88.5t47 67.5t64 43.5t77 15.5q60 0 92 -28t37 -77h8l15 95h83l-68 -433q-4 -20 5.5 -31t27.5 -11h43l-12 -78h-64q-43 0 -67.5 27.5t-19.5 70.5h-8q-20 -49 -61.5 -77t-101.5 -28q-83 0 -122 58.5t-24 156.5zM250 68q52 0 88 33t49 92l25 161
q7 60 -18.5 94t-78.5 34q-59 0 -97.5 -36.5t-48.5 -100.5l-22 -140q-10 -64 17 -100.5t86 -36.5zM240 770h260l-11 -75h-260z"/>
			<glyph glyph-name="Abreve" unicode="&#x102;"
			       d="M30 0l310 720h126l76 -720h-92l-18 203h-222l-84 -203h-96zM241 278h185l-25 285q-3 42 -3 70v27h-4l-9 -27q-5 -14 -11.5 -31.5t-15.5 -38.5zM279 950h74q-6 -32 16 -51t66 -19q45 0 73 18.5t34 51.5h77q-5 -31 -21.5 -56t-42 -42.5t-58.5 -27t-72 -9.5q-37 0 -66.5 10
t-49 28t-27.5 42.5t-3 54.5z"/>
			<glyph glyph-name="abreve" unicode="&#x103;"
			       d="M59 205l22 140q8 49 27 88.5t47 67.5t64 43.5t77 15.5q60 0 92 -28t37 -77h8l15 95h83l-68 -433q-4 -20 5.5 -31t27.5 -11h43l-12 -78h-64q-43 0 -67.5 27.5t-19.5 70.5h-8q-20 -49 -61.5 -77t-101.5 -28q-83 0 -122 58.5t-24 156.5zM250 68q52 0 88 33t49 92l25 161
q7 60 -18.5 94t-78.5 34q-59 0 -97.5 -36.5t-48.5 -100.5l-22 -140q-10 -64 17 -100.5t86 -36.5zM219 790h74q-6 -32 16 -51t66 -19q45 0 73 18.5t34 51.5h77q-5 -31 -21.5 -56t-42 -42.5t-58.5 -27t-72 -9.5q-37 0 -66.5 10t-49 28t-27.5 42.5t-3 54.5z"/>
			<glyph glyph-name="Aogonek" unicode="&#x104;"
			       d="M30 0l310 720h126l76 -720h-92l-18 203h-222l-84 -203h-96zM241 278h185l-25 285q-3 42 -3 70v27h-4l-9 -27q-5 -14 -11.5 -31.5t-15.5 -38.5zM361 -110q5 29 28 58t76 62h75l-13 -9q-39 -27 -56.5 -50t-21.5 -44q-4 -22 8.5 -34.5t38.5 -12.5h60l-10 -60h-78
q-56 0 -85 24.5t-22 65.5z"/>
			<glyph glyph-name="aogonek" unicode="&#x105;"
			       d="M59 205l22 140q8 49 27 88.5t47 67.5t64 43.5t77 15.5q60 0 92 -28t37 -77h8l15 95h83l-68 -433q-4 -20 5.5 -31t27.5 -11h43l-12 -78h-64q-43 0 -67.5 27.5t-19.5 70.5h-8q-20 -49 -61.5 -77t-101.5 -28q-83 0 -122 58.5t-24 156.5zM250 68q52 0 88 33t49 92l25 161
q7 60 -18.5 94t-78.5 34q-59 0 -97.5 -36.5t-48.5 -100.5l-22 -140q-10 -64 17 -100.5t86 -36.5zM321 -110q5 29 28 58t76 62h75l-13 -9q-39 -27 -56.5 -50t-21.5 -44q-4 -22 8.5 -34.5t38.5 -12.5h60l-10 -60h-78q-56 0 -85 24.5t-22 65.5z"/>
			<glyph glyph-name="Cacute" unicode="&#x106;"
			       d="M254 -10q-102 0 -150.5 55.5t-33.5 154.5l50 320q8 49 29 88t54 66t75.5 41.5t93.5 14.5q91 0 141 -52t46 -143h-88q2 54 -28 85.5t-84 31.5q-60 0 -100.5 -37t-50.5 -100l-49 -310q-10 -64 19 -100.5t89 -36.5q55 0 94.5 31.5t53.5 85.5h88q-25 -93 -90.5 -144
t-158.5 -51zM451.091 956h-109.994l-109.119 -146h89.9951z"/>
			<glyph glyph-name="cacute" unicode="&#x107;"
			       d="M257 -10q-49 0 -86.5 15.5t-61.5 43.5t-33 67.5t-2 88.5l22 140q16 101 82.5 158t169.5 57q43 0 78.5 -13.5t60.5 -38.5t38.5 -58.5t12.5 -74.5h-90q2 47 -30 76t-83 29q-60 0 -100.5 -36t-50.5 -99l-22 -140q-10 -63 18.5 -99t89.5 -36q55 0 94 28t53 77h90
q-26 -88 -91 -136.5t-159 -48.5zM451.091 796h-109.994l-109.119 -146h89.9951z"/>
			<glyph glyph-name="Ccircumflex" unicode="&#x108;"
			       d="M254 -10q-102 0 -150.5 55.5t-33.5 154.5l50 320q8 49 29 88t54 66t75.5 41.5t93.5 14.5q91 0 141 -52t46 -143h-88q2 54 -28 85.5t-84 31.5q-60 0 -100.5 -37t-50.5 -100l-49 -310q-10 -64 19 -100.5t89 -36.5q55 0 94.5 31.5t53.5 85.5h88q-25 -93 -90.5 -144
t-158.5 -51zM200 810l155 145h70l105 -145h-75l-45 57q-15 20 -19 26q-4 5 -5 8h-3q-3 -3 -8 -7q-6 -7 -28 -26l-66 -58h-81z"/>
			<glyph glyph-name="ccircumflex" unicode="&#x109;"
			       d="M257 -10q-49 0 -86.5 15.5t-61.5 43.5t-33 67.5t-2 88.5l22 140q16 101 82.5 158t169.5 57q43 0 78.5 -13.5t60.5 -38.5t38.5 -58.5t12.5 -74.5h-90q2 47 -30 76t-83 29q-60 0 -100.5 -36t-50.5 -99l-22 -140q-10 -63 18.5 -99t89.5 -36q55 0 94 28t53 77h90
q-26 -88 -91 -136.5t-159 -48.5zM200 650l155 145h70l105 -145h-75l-45 57q-15 20 -19 26q-4 5 -5 8h-3q-3 -3 -8 -7q-6 -7 -28 -26l-66 -58h-81z"/>
			<glyph glyph-name="Cdotaccent" unicode="&#x10a;"
			       d="M254 -10q-102 0 -150.5 55.5t-33.5 154.5l50 320q8 49 29 88t54 66t75.5 41.5t93.5 14.5q91 0 141 -52t46 -143h-88q2 54 -28 85.5t-84 31.5q-60 0 -100.5 -37t-50.5 -100l-49 -310q-10 -64 19 -100.5t89 -36.5q55 0 94.5 31.5t53.5 85.5h88q-25 -93 -90.5 -144
t-158.5 -51zM307 904q5 27 25 44t49 17h20q29 0 45 -17t11 -44t-25.5 -43t-49.5 -16h-20q-29 0 -44.5 15.5t-10.5 43.5z"/>
			<glyph glyph-name="cdotaccent" unicode="&#x10b;"
			       d="M257 -10q-49 0 -86.5 15.5t-61.5 43.5t-33 67.5t-2 88.5l22 140q16 101 82.5 158t169.5 57q43 0 78.5 -13.5t60.5 -38.5t38.5 -58.5t12.5 -74.5h-90q2 47 -30 76t-83 29q-60 0 -100.5 -36t-50.5 -99l-22 -140q-10 -63 18.5 -99t89.5 -36q55 0 94 28t53 77h90
q-26 -88 -91 -136.5t-159 -48.5zM302 744q5 27 25 44t49 17h20q29 0 45 -17t11 -44t-25.5 -43t-49.5 -16h-20q-29 0 -44.5 15.5t-10.5 43.5z"/>
			<glyph glyph-name="Ccaron" unicode="&#x10c;"
			       d="M254 -10q-102 0 -150.5 55.5t-33.5 154.5l50 320q8 49 29 88t54 66t75.5 41.5t93.5 14.5q91 0 141 -52t46 -143h-88q2 54 -28 85.5t-84 31.5q-60 0 -100.5 -37t-50.5 -100l-49 -310q-10 -64 19 -100.5t89 -36.5q55 0 94.5 31.5t53.5 85.5h88q-25 -93 -90.5 -144
t-158.5 -51zM225 955h76l46 -58q14 -17 19 -25q3 -5 5 -8h3l8 8l10.5 10.5t17.5 15.5l65 57h80l-155 -145h-70z"/>
			<glyph glyph-name="ccaron" unicode="&#x10d;"
			       d="M257 -10q-49 0 -86.5 15.5t-61.5 43.5t-33 67.5t-2 88.5l22 140q16 101 82.5 158t169.5 57q43 0 78.5 -13.5t60.5 -38.5t38.5 -58.5t12.5 -74.5h-90q2 47 -30 76t-83 29q-60 0 -100.5 -36t-50.5 -99l-22 -140q-10 -63 18.5 -99t89.5 -36q55 0 94 28t53 77h90
q-26 -88 -91 -136.5t-159 -48.5zM225 795h76l46 -58q14 -17 19 -25q3 -5 5 -8h3l8 8l10.5 10.5t17.5 15.5l65 57h80l-155 -145h-70z"/>
			<glyph glyph-name="Dcaron" unicode="&#x10e;"
			       d="M40 0l114 720h199q52 0 91.5 -15.5t64.5 -44.5t35 -69t2 -90l-44 -281q-8 -50 -30.5 -90.5t-57 -69.5t-79 -44.5t-96.5 -15.5h-199zM141 80h111q63 0 107.5 38.5t54.5 101.5l44 281q11 63 -22 101t-96 38h-111zM225 955h76l46 -58q14 -17 19 -25q3 -5 5 -8h3l8 8
l10.5 10.5t17.5 15.5l65 57h80l-155 -145h-70z"/>
			<glyph glyph-name="dcaron" unicode="&#x10f;"
			       d="M43 205l22 140q8 50 27.5 90t48 67.5t65 42.5t78.5 15q61 0 96.5 -27.5t40.5 -77.5h8q1 17 3 34q2 15 3.5 31.5t3.5 29.5l27 170h90l-114 -720h-85l15 95h-8q-20 -50 -65 -77.5t-106 -27.5q-72 0 -113 43.5t-41 121.5q0 12 1 24t3 26zM240 68q56 0 95 37t50 100l22 140
q10 63 -18 100t-84 37q-61 0 -100 -36t-50 -101l-22 -140q-10 -63 18.5 -100t88.5 -37zM635 756h90l-93 -146h-70z"/>
			<glyph glyph-name="Dcroat" unicode="&#x110;"
			       d="M40 395h61l51 325h201q52 0 92 -16t66 -44.5t36 -69t2 -89.5l-44 -281q-8 -49 -31 -90t-58 -69.5t-80 -44.5t-97 -16h-201l51 320h-61zM179 320l-38 -240h111q63 0 107.5 38.5t54.5 101.5l44 281q11 63 -22 101t-96 38h-111l-38 -245h114l-12 -75h-114z"/>
			<glyph glyph-name="dcroat" unicode="&#x111;"
			       d="M63 205l22 140q8 50 27.5 90t48 67.5t65 42.5t78.5 15q61 0 96.5 -27.5t40.5 -77.5h8q1 17 3 34q2 15 3.5 31.5t3.5 29.5l8 50h-103l11 75h104l7 45h90l-7 -45h66l-11 -75h-67l-95 -600h-85l15 95h-8q-20 -50 -65 -77.5t-106 -27.5q-72 0 -113 43.5t-41 121.5q0 12 1 24
t3 26zM260 68q56 0 95 37t50 100l22 140q10 63 -18 100t-84 37q-61 0 -100 -36t-50 -101l-22 -140q-10 -63 18.5 -100t88.5 -37z"/>
			<glyph glyph-name="Emacron" unicode="&#x112;"
			       d="M161 720h423l-13 -80h-335l-36 -228h300l-13 -82h-300l-39 -250h335l-13 -80h-423zM260 930h260l-11 -75h-260z"/>
			<glyph glyph-name="emacron" unicode="&#x113;"
			       d="M248 -10q-50 0 -88 14.5t-62 42t-33 66.5t-1 87l23 150q8 49 29 88t54 66t75.5 41.5t93.5 14.5q100 0 149.5 -56.5t34.5 -153.5l-16 -101h-347l-7 -44q-11 -64 18.5 -100.5t89.5 -36.5q45 0 80.5 15t55.5 42h88q-27 -63 -90.5 -99t-146.5 -36zM431 322l4 28
q9 63 -19.5 97.5t-89.5 34.5t-101.5 -34.5t-49.5 -97.5l-4 -28h260zM240 770h260l-11 -75h-260z"/>
			<glyph glyph-name="Ebreve" unicode="&#x114;"
			       d="M161 720h423l-13 -80h-335l-36 -228h300l-13 -82h-300l-39 -250h335l-13 -80h-423zM219 950h74q-6 -32 16 -51t66 -19q45 0 73 18.5t34 51.5h77q-5 -31 -21.5 -56t-42 -42.5t-58.5 -27t-72 -9.5q-37 0 -66.5 10t-49 28t-27.5 42.5t-3 54.5z"/>
			<glyph glyph-name="ebreve" unicode="&#x115;"
			       d="M248 -10q-50 0 -88 14.5t-62 42t-33 66.5t-1 87l23 150q8 49 29 88t54 66t75.5 41.5t93.5 14.5q100 0 149.5 -56.5t34.5 -153.5l-16 -101h-347l-7 -44q-11 -64 18.5 -100.5t89.5 -36.5q45 0 80.5 15t55.5 42h88q-27 -63 -90.5 -99t-146.5 -36zM431 322l4 28
q9 63 -19.5 97.5t-89.5 34.5t-101.5 -34.5t-49.5 -97.5l-4 -28h260zM219 790h74q-6 -32 16 -51t66 -19q45 0 73 18.5t34 51.5h77q-5 -31 -21.5 -56t-42 -42.5t-58.5 -27t-72 -9.5q-37 0 -66.5 10t-49 28t-27.5 42.5t-3 54.5z"/>
			<glyph glyph-name="Edotaccent" unicode="&#x116;"
			       d="M161 720h423l-13 -80h-335l-36 -228h300l-13 -82h-300l-39 -250h335l-13 -80h-423zM317 904q5 27 25 44t49 17h20q29 0 45 -17t11 -44t-25.5 -43t-49.5 -16h-20q-29 0 -44.5 15.5t-10.5 43.5z"/>
			<glyph glyph-name="edotaccent" unicode="&#x117;"
			       d="M248 -10q-50 0 -88 14.5t-62 42t-33 66.5t-1 87l23 150q8 49 29 88t54 66t75.5 41.5t93.5 14.5q100 0 149.5 -56.5t34.5 -153.5l-16 -101h-347l-7 -44q-11 -64 18.5 -100.5t89.5 -36.5q45 0 80.5 15t55.5 42h88q-27 -63 -90.5 -99t-146.5 -36zM431 322l4 28
q9 63 -19.5 97.5t-89.5 34.5t-101.5 -34.5t-49.5 -97.5l-4 -28h260zM295 744q5 27 25 44t49 17h20q29 0 45 -17t11 -44t-25.5 -43t-49.5 -16h-20q-29 0 -44.5 15.5t-10.5 43.5z"/>
			<glyph glyph-name="Eogonek" unicode="&#x118;"
			       d="M161 720h423l-13 -80h-335l-36 -228h300l-13 -82h-300l-39 -250h335l-13 -80h-423zM265 -110q5 29 28 58t76 62h75l-13 -9q-39 -27 -56.5 -50t-21.5 -44q-4 -22 8.5 -34.5t38.5 -12.5h60l-10 -60h-78q-56 0 -85 24.5t-22 65.5z"/>
			<glyph glyph-name="eogonek" unicode="&#x119;"
			       d="M248 -10q-50 0 -88 14.5t-62 42t-33 66.5t-1 87l23 150q8 49 29 88t54 66t75.5 41.5t93.5 14.5q100 0 149.5 -56.5t34.5 -153.5l-16 -101h-347l-7 -44q-11 -64 18.5 -100.5t89.5 -36.5q45 0 80.5 15t55.5 42h88q-23 -53 -72 -87l-45 -38q-30 -26 -45 -46t-18 -40
q-4 -25 9.5 -39.5t42.5 -14.5h70l-10 -60h-94q-55 0 -83 28t-22 64q4 23 18 46.5t40 43.5l13 10q-10 -1 -20 -1.5t-21 -0.5zM431 322l4 28q9 63 -19.5 97.5t-89.5 34.5t-101.5 -34.5t-49.5 -97.5l-4 -28h260z"/>
			<glyph glyph-name="Ecaron" unicode="&#x11a;"
			       d="M161 720h423l-13 -80h-335l-36 -228h300l-13 -82h-300l-39 -250h335l-13 -80h-423zM225 955h76l46 -58q14 -17 19 -25q3 -5 5 -8h3l8 8l10.5 10.5t17.5 15.5l65 57h80l-155 -145h-70z"/>
			<glyph glyph-name="ecaron" unicode="&#x11b;"
			       d="M248 -10q-50 0 -88 14.5t-62 42t-33 66.5t-1 87l23 150q8 49 29 88t54 66t75.5 41.5t93.5 14.5q100 0 149.5 -56.5t34.5 -153.5l-16 -101h-347l-7 -44q-11 -64 18.5 -100.5t89.5 -36.5q45 0 80.5 15t55.5 42h88q-27 -63 -90.5 -99t-146.5 -36zM431 322l4 28
q9 63 -19.5 97.5t-89.5 34.5t-101.5 -34.5t-49.5 -97.5l-4 -28h260zM225 795h76l46 -58q14 -17 19 -25q3 -5 5 -8h3l8 8l10.5 10.5t17.5 15.5l65 57h80l-155 -145h-70z"/>
			<glyph glyph-name="Gcircumflex" unicode="&#x11c;"
			       d="M63 205l49 310q8 50 29.5 90t54.5 67.5t76 42.5t94 15q91 0 141.5 -46t54.5 -134h-92q-2 47 -33 73.5t-84 26.5q-60 0 -100.5 -36t-50.5 -99l-49 -310q-10 -63 19 -99t89 -36t101 36t51 99l13 85h-146l13 80h236l-26 -165q-8 -50 -29.5 -90t-54.5 -67.5t-76.5 -42.5
t-94.5 -15q-50 0 -88.5 15t-62.5 43t-33 68t-1 89zM200 810l155 145h70l105 -145h-75l-45 57q-15 20 -19 26q-4 5 -5 8h-3q-3 -3 -8 -7q-6 -7 -28 -26l-66 -58h-81z"/>
			<glyph glyph-name="gcircumflex" unicode="&#x11d;"
			       d="M218 45q-43 0 -75 15t-52.5 42t-27.5 66t0 87l15 95q8 48 27 87t48 66t66.5 42t80.5 15q60 0 97 -28.5t44 -81.5h7l16 100h85l-81 -515q-16 -97 -81.5 -151t-168.5 -54h-135l13 82h135q60 0 99 32t48 91l4 25l19 95h-6q-23 -53 -70 -81.5t-107 -28.5zM155 255
q-10 -62 19.5 -97t89.5 -35t99 35t49 97l15 95q10 62 -18.5 97t-88.5 35t-100 -35t-50 -97zM200 650l155 145h70l105 -145h-75l-45 57q-15 20 -19 26q-4 5 -5 8h-3q-3 -3 -8 -7q-6 -7 -28 -26l-66 -58h-81z"/>
			<glyph glyph-name="Gbreve" unicode="&#x11e;"
			       d="M63 205l49 310q8 50 29.5 90t54.5 67.5t76 42.5t94 15q91 0 141.5 -46t54.5 -134h-92q-2 47 -33 73.5t-84 26.5q-60 0 -100.5 -36t-50.5 -99l-49 -310q-10 -63 19 -99t89 -36t101 36t51 99l13 85h-146l13 80h236l-26 -165q-8 -50 -29.5 -90t-54.5 -67.5t-76.5 -42.5
t-94.5 -15q-50 0 -88.5 15t-62.5 43t-33 68t-1 89zM219 950h74q-6 -32 16 -51t66 -19q45 0 73 18.5t34 51.5h77q-5 -31 -21.5 -56t-42 -42.5t-58.5 -27t-72 -9.5q-37 0 -66.5 10t-49 28t-27.5 42.5t-3 54.5z"/>
			<glyph glyph-name="gbreve" unicode="&#x11f;"
			       d="M218 45q-43 0 -75 15t-52.5 42t-27.5 66t0 87l15 95q8 48 27 87t48 66t66.5 42t80.5 15q60 0 97 -28.5t44 -81.5h7l16 100h85l-81 -515q-16 -97 -81.5 -151t-168.5 -54h-135l13 82h135q60 0 99 32t48 91l4 25l19 95h-6q-23 -53 -70 -81.5t-107 -28.5zM155 255
q-10 -62 19.5 -97t89.5 -35t99 35t49 97l15 95q10 62 -18.5 97t-88.5 35t-100 -35t-50 -97zM219 790h74q-6 -32 16 -51t66 -19q45 0 73 18.5t34 51.5h77q-5 -31 -21.5 -56t-42 -42.5t-58.5 -27t-72 -9.5q-37 0 -66.5 10t-49 28t-27.5 42.5t-3 54.5z"/>
			<glyph glyph-name="Gdotaccent" unicode="&#x120;"
			       d="M63 205l49 310q8 50 29.5 90t54.5 67.5t76 42.5t94 15q91 0 141.5 -46t54.5 -134h-92q-2 47 -33 73.5t-84 26.5q-60 0 -100.5 -36t-50.5 -99l-49 -310q-10 -63 19 -99t89 -36t101 36t51 99l13 85h-146l13 80h236l-26 -165q-8 -50 -29.5 -90t-54.5 -67.5t-76.5 -42.5
t-94.5 -15q-50 0 -88.5 15t-62.5 43t-33 68t-1 89zM324 904q5 27 25 44t49 17h20q29 0 45 -17t11 -44t-25.5 -43t-49.5 -16h-20q-29 0 -44.5 15.5t-10.5 43.5z"/>
			<glyph glyph-name="gdotaccent" unicode="&#x121;"
			       d="M218 45q-43 0 -75 15t-52.5 42t-27.5 66t0 87l15 95q8 48 27 87t48 66t66.5 42t80.5 15q60 0 97 -28.5t44 -81.5h7l16 100h85l-81 -515q-16 -97 -81.5 -151t-168.5 -54h-135l13 82h135q60 0 99 32t48 91l4 25l19 95h-6q-23 -53 -70 -81.5t-107 -28.5zM155 255
q-10 -62 19.5 -97t89.5 -35t99 35t49 97l15 95q10 62 -18.5 97t-88.5 35t-100 -35t-50 -97zM292 744q5 27 25 44t49 17h20q29 0 45 -17t11 -44t-25.5 -43t-49.5 -16h-20q-29 0 -44.5 15.5t-10.5 43.5z"/>
			<glyph glyph-name="uni0122" unicode="&#x122;"
			       d="M63 205l49 310q8 50 29.5 90t54.5 67.5t76 42.5t94 15q91 0 141.5 -46t54.5 -134h-92q-2 47 -33 73.5t-84 26.5q-60 0 -100.5 -36t-50.5 -99l-49 -310q-10 -63 19 -99t89 -36t101 36t51 99l13 85h-146l13 80h236l-26 -165q-8 -50 -29.5 -90t-54.5 -67.5t-76.5 -42.5
t-94.5 -15q-50 0 -88.5 15t-62.5 43t-33 68t-1 89zM345 -94l-103 -146h-90l83 146h110z"/>
			<glyph glyph-name="uni0123" unicode="&#x123;"
			       d="M218 45q-43 0 -75 15t-52.5 42t-27.5 66t0 87l15 95q8 48 27 87t48 66t66.5 42t80.5 15q60 0 97 -28.5t44 -81.5h7l16 100h85l-81 -515q-16 -97 -81.5 -151t-168.5 -54h-135l13 82h135q60 0 99 32t48 91l4 25l19 95h-6q-23 -53 -70 -81.5t-107 -28.5zM155 255
q-10 -62 19.5 -97t89.5 -35t99 35t49 97l15 95q10 62 -18.5 97t-88.5 35t-100 -35t-50 -97zM255.021 677.994l102.993 145.991h89.9951l-82.9951 -145.991h-109.993z"/>
			<glyph glyph-name="Hcircumflex" unicode="&#x124;"
			       d="M40 0l114 720h90l-48 -304h236l48 304h90l-114 -720h-90l53 334h-236l-53 -334h-90zM200 810l155 145h70l105 -145h-75l-45 57q-15 20 -19 26q-4 5 -5 8h-3q-3 -3 -8 -7q-6 -7 -28 -26l-66 -58h-81z"/>
			<glyph glyph-name="hcircumflex" unicode="&#x125;"
			       d="M152 720h90l-27 -170q-2 -14 -5.5 -30.5t-6.5 -30.5l-8 -34h8q21 50 65 77.5t103 27.5q40 0 71 -14.5t51 -40t27.5 -61.5t0.5 -78l-58 -366h-90l56 351q10 63 -16.5 98t-83.5 35t-96 -37.5t-50 -101.5l-55 -345h-90zM100 810l155 145h70l105 -145h-75l-45 57
q-15 20 -19 26q-4 5 -5 8h-3q-3 -3 -8 -7q-6 -7 -28 -26l-66 -58h-81z"/>
			<glyph glyph-name="Hbar" unicode="&#x126;"
			       d="M154 720h90l-19 -120h236l19 120h90l-19 -120h46l-13 -80h-46l-82 -520h-90l53 334h-236l-53 -334h-90l82 520h-48l13 80h48zM212 520l-16 -104h236l16 104h-236z"/>
			<glyph glyph-name="hbar" unicode="&#x127;"
			       d="M38 0l95 600h-66l11 75h67l7 45h90l-7 -45h103l-11 -75h-104l-8 -50q-2 -14 -5.5 -30.5t-6.5 -30.5l-8 -34h8q21 50 65 77.5t103 27.5q40 0 71 -14.5t51 -40t27.5 -61.5t0.5 -78l-58 -366h-90l56 351q10 63 -16.5 98t-83.5 35t-96 -37.5t-50 -101.5l-55 -345h-90z"/>
			<glyph glyph-name="Itilde" unicode="&#x128;"
			       d="M46 0l13 79h159l89 562h-159l12 79h408l-12 -79h-159l-89 -562h159l-13 -79h-408zM170 815l4 20q11 58 45 89t86 31q34 0 54 -12.5t35 -27.5t30 -27.5t37 -12.5q21 0 36 14.5t19 40.5l3 20h65l-3 -20q-9 -58 -44 -89t-87 -31q-34 0 -54 12.5t-35 27.5t-29.5 27.5
t-37.5 12.5q-44 0 -55 -55l-4 -20h-65z"/>
			<glyph glyph-name="itilde" unicode="&#x129;"
			       d="M58 82h200l61 386h-175l13 82h265l-74 -468h165l-13 -82h-455zM170 655l4 20q11 58 45 89t86 31q34 0 54 -12.5t35 -27.5t30 -27.5t37 -12.5q21 0 36 14.5t19 40.5l3 20h65l-3 -20q-9 -58 -44 -89t-87 -31q-34 0 -54 12.5t-35 27.5t-29.5 27.5t-37.5 12.5q-44 0 -55 -55
l-4 -20h-65z"/>
			<glyph glyph-name="Imacron" unicode="&#x12a;"
			       d="M46 0l13 79h159l89 562h-159l12 79h408l-12 -79h-159l-89 -562h159l-13 -79h-408zM270 930h260l-11 -75h-260z"/>
			<glyph glyph-name="imacron" unicode="&#x12b;"
			       d="M58 82h200l61 386h-175l13 82h265l-74 -468h165l-13 -82h-455zM240 770h260l-11 -75h-260z"/>
			<glyph glyph-name="Ibreve" unicode="&#x12c;"
			       d="M46 0l13 79h159l89 562h-159l12 79h408l-12 -79h-159l-89 -562h159l-13 -79h-408zM244 940h75q-12 -70 71 -70q42 0 67.5 18t31.5 52h75q-6 -30 -22 -55t-40 -43t-55 -27.5t-67 -9.5q-72 0 -109.5 37t-26.5 98z"/>
			<glyph glyph-name="ibreve" unicode="&#x12d;"
			       d="M58 82h200l61 386h-175l13 82h265l-74 -468h165l-13 -82h-455zM219 790h74q-6 -32 16 -51t66 -19q45 0 73 18.5t34 51.5h77q-5 -31 -21.5 -56t-42 -42.5t-58.5 -27t-72 -9.5q-37 0 -66.5 10t-49 28t-27.5 42.5t-3 54.5z"/>
			<glyph glyph-name="Iogonek" unicode="&#x12e;"
			       d="M46 0l13 79h159l89 562h-159l12 79h408l-12 -79h-159l-89 -562h159l-13 -79h-408zM123 -110q5 29 28 58t76 62h75l-13 -9q-39 -27 -56.5 -50t-21.5 -44q-4 -22 8.5 -34.5t38.5 -12.5h60l-10 -60h-78q-56 0 -85 24.5t-22 65.5z"/>
			<glyph glyph-name="iogonek" unicode="&#x12f;"
			       d="M307 0q-30 -26 -44.5 -46t-18.5 -40q-5 -25 9 -39.5t43 -14.5h70l-10 -60h-94q-55 0 -83 28t-22 64q8 49 58 90l22 18h-192l13 82h200l61 386h-175l13 82h265l-74 -468h165l-13 -82h-193zM311 703q5 28 25.5 45t49.5 17h20q29 0 45 -17t11 -44t-25.5 -43t-49.5 -16h-20
q-29 0 -44.5 15.5t-11.5 42.5z"/>
			<glyph glyph-name="Idotaccent" unicode="&#x130;"
			       d="M46 0l13 79h159l89 562h-159l12 79h408l-12 -79h-159l-89 -562h159l-13 -79h-408zM323 904q5 27 25 44t49 17h20q29 0 45 -17t11 -44t-25.5 -43t-49.5 -16h-20q-29 0 -44.5 15.5t-10.5 43.5z"/>
			<glyph glyph-name="dotlessi" unicode="&#x131;"
			       d="M58 82h200l61 386h-175l13 82h265l-74 -468h165l-13 -82h-455z"/>
			<glyph glyph-name="IJ" unicode="&#x132;"
			       d="M222 74h60q60 0 97.5 31.5t46.5 89.5l70 445h-145l13 80h235l-83 -525q-15 -97 -79.5 -149t-167.5 -52h-60zM134 720h92l-114 -720h-92z"/>
			<glyph glyph-name="ij" unicode="&#x133;"
			       d="M147 -83h85q54 0 89.5 30t43.5 83l82 520h90l-82 -520q-7 -44 -27.5 -80t-51 -61.5t-70.5 -39.5t-87 -14h-85zM142 550h90l-87 -550h-90zM492 645q-29 0 -44.5 15.5t-11.5 42.5q4 28 25 45t50 17h20q29 0 44.5 -17t11.5 -44t-25 -43t-50 -16h-20zM192 645
q-29 0 -44.5 15.5t-11.5 42.5q4 28 25 45t50 17h20q29 0 44.5 -17t11.5 -44t-25 -43t-50 -16h-20z"/>
			<glyph glyph-name="Jcircumflex" unicode="&#x134;"
			       d="M113 175q2 -48 34 -76.5t84 -28.5q64 0 108 36.5t54 98.5l68 435h-280l13 80h370l-81 -515q-8 -49 -30.5 -89t-57 -68t-79.5 -43t-98 -15q-44 0 -79.5 13t-61 37.5t-40 58.5t-14.5 76h90zM240 810l155 145h70l105 -145h-75l-45 57q-15 20 -19 26q-4 5 -5 8h-3
q-3 -3 -8 -7q-6 -7 -28 -26l-66 -58h-81z"/>
			<glyph glyph-name="jcircumflex" unicode="&#x135;"
			       d="M210 650l155 145h70l105 -145h-75l-45 57q-15 20 -19 26q-4 5 -5 8h-3q-3 -3 -8 -7q-6 -7 -28 -26l-66 -58h-81zM8 -170l13 83h120q32 0 59 10t48.5 28t35.5 43.5t19 55.5l66 418h-230l13 82h320l-79 -500q-7 -48 -30.5 -88.5t-59 -70t-80 -45.5t-95.5 -16h-120z"/>
			<glyph glyph-name="uni0136" unicode="&#x136;"
			       d="M154 720h90l-48 -306h116l212 306h105l-245 -351l141 -369h-98l-124 335h-120l-53 -335h-90zM345 -94l-103 -146h-90l83 146h110z"/>
			<glyph glyph-name="uni0137" unicode="&#x137;"
			       d="M43 0l116 730h90l-65 -410h107l203 230h105l-239 -274l155 -276h-104l-131 240h-109l-38 -240h-90zM345 -94l-103 -146h-90l83 146h110z"/>
			<glyph glyph-name="kgreenlandic" unicode="&#x138;"
			       d="M43 0l87 550h90l-36 -230h107l203 230h105l-239 -274l155 -276h-104l-131 240h-109l-38 -240h-90z"/>
			<glyph glyph-name="Lacute" unicode="&#x139;"
			       d="M289 720l-101 -638h340l-13 -82h-430l114 720h90zM360 946l-130 -146h-90l110 146h110z"/>
			<glyph glyph-name="lacute" unicode="&#x13a;"
			       d="M104 720h272l-89 -560q-5 -37 11.5 -57.5t51.5 -20.5h163l-13 -82h-163q-77 0 -114 42.5t-26 117.5l76 478h-182zM451.091 956h-109.994l-109.119 -146h89.9951z"/>
			<glyph glyph-name="uni013B" unicode="&#x13b;"
			       d="M289 720l-101 -638h340l-13 -82h-430l114 720h90zM345 -94l-103 -146h-90l83 146h110z"/>
			<glyph glyph-name="uni013C" unicode="&#x13c;"
			       d="M104 720h272l-89 -560q-5 -37 11.5 -57.5t51.5 -20.5h163l-13 -82h-163q-77 0 -114 42.5t-26 117.5l76 478h-182zM345 -94l-103 -146h-90l83 146h110z"/>
			<glyph glyph-name="Lcaron" unicode="&#x13d;"
			       d="M289 720l-101 -638h340l-13 -82h-430l114 720h90zM575.091 766h-109.994l-109.119 -146h89.9951z"/>
			<glyph glyph-name="lcaron" unicode="&#x13e;"
			       d="M104 720h272l-89 -560q-5 -37 11.5 -57.5t51.5 -20.5h163l-13 -82h-163q-77 0 -114 42.5t-26 117.5l76 478h-182zM641.091 766h-109.994l-109.119 -146h89.9951z"/>
			<glyph glyph-name="Ldot" unicode="&#x13f;"
			       d="M289 720l-101 -638h340l-13 -82h-430l114 720h90zM316 349q6 39 33 62.5t66 23.5t59.5 -23.5t13.5 -62.5q-7 -40 -34.5 -64.5t-66.5 -24.5t-58.5 24.5t-12.5 64.5z"/>
			<glyph glyph-name="ldot" unicode="&#x140;"
			       d="M381 349q6 39 33 62.5t66 23.5t59.5 -23.5t13.5 -62.5q-7 -40 -34.5 -64.5t-66.5 -24.5t-58.5 24.5t-12.5 64.5zM74 720h272l-89 -560q-5 -37 11.5 -57.5t51.5 -20.5h163l-13 -82h-163q-77 0 -114 42.5t-26 117.5l76 478h-182z"/>
			<glyph glyph-name="Lslash" unicode="&#x141;"
			       d="M231 356l-43 -274h340l-13 -82h-430l47 295l-107 -65l13 80l106 65l55 345h90l-45 -284l203 124l-13 -80z"/>
			<glyph glyph-name="lslash" unicode="&#x142;"
			       d="M321 374l-34 -214q-5 -37 11.5 -57.5t51.5 -20.5h163l-13 -82h-163q-77 0 -114 42.5t-26 117.5l25 153l-137 -83l13 80l136 83l41 255h-182l13 82h272l-44 -276l173 106l-13 -80z"/>
			<glyph glyph-name="Nacute" unicode="&#x143;"
			       d="M149 720h114l117 -483q5 -18 8 -41.5t5 -44.5q2 -25 4 -51h8l0.5 10.5t1 28.5t2.5 41.5t6 49.5l78 490h86l-114 -720h-114l-113 484q-5 23 -9 47t-6 44l-4 46h-8q0 -16 -1 -36q-2 -17 -4 -40.5t-7 -52.5l-78 -492h-86zM451.091 956h-109.994l-109.119 -146h89.9951z"/>
			<glyph glyph-name="nacute" unicode="&#x144;"
			       d="M38 0l87 550h85l-14 -95h7q21 50 65 77.5t103 27.5q40 0 71 -14.5t50.5 -40.5t27 -62.5t0.5 -81.5l-57 -361h-90l56 351q11 64 -15.5 98.5t-84.5 34.5q-56 0 -95 -35.5t-50 -97.5l-56 -351h-90zM451.091 796h-109.994l-109.119 -146h89.9951z"/>
			<glyph glyph-name="uni0145" unicode="&#x145;"
			       d="M149 720h114l117 -483q5 -18 8 -41.5t5 -44.5q2 -25 4 -51h8l0.5 10.5t1 28.5t2.5 41.5t6 49.5l78 490h86l-114 -720h-114l-113 484q-5 23 -9 47t-6 44l-4 46h-8q0 -16 -1 -36q-2 -17 -4 -40.5t-7 -52.5l-78 -492h-86zM345 -94l-103 -146h-90l83 146h110z"/>
			<glyph glyph-name="uni0146" unicode="&#x146;"
			       d="M38 0l87 550h85l-14 -95h7q21 50 65 77.5t103 27.5q40 0 71 -14.5t50.5 -40.5t27 -62.5t0.5 -81.5l-57 -361h-90l56 351q11 64 -15.5 98.5t-84.5 34.5q-56 0 -95 -35.5t-50 -97.5l-56 -351h-90zM334 -94l-103 -146h-90l83 146h110z"/>
			<glyph glyph-name="Ncaron" unicode="&#x147;"
			       d="M149 720h114l117 -483q5 -18 8 -41.5t5 -44.5q2 -25 4 -51h8l0.5 10.5t1 28.5t2.5 41.5t6 49.5l78 490h86l-114 -720h-114l-113 484q-5 23 -9 47t-6 44l-4 46h-8q0 -16 -1 -36q-2 -17 -4 -40.5t-7 -52.5l-78 -492h-86zM225 955h76l46 -58q14 -17 19 -25q3 -5 5 -8h3l8 8
l10.5 10.5t17.5 15.5l65 57h80l-155 -145h-70z"/>
			<glyph glyph-name="ncaron" unicode="&#x148;"
			       d="M38 0l87 550h85l-14 -95h7q21 50 65 77.5t103 27.5q40 0 71 -14.5t50.5 -40.5t27 -62.5t0.5 -81.5l-57 -361h-90l56 351q11 64 -15.5 98.5t-84.5 34.5q-56 0 -95 -35.5t-50 -97.5l-56 -351h-90zM225 795h76l46 -58q14 -17 19 -25q3 -5 5 -8h3l8 8l10.5 10.5t17.5 15.5
l65 57h80l-155 -145h-70z"/>
			<glyph glyph-name="napostrophe" unicode="&#x149;"
			       d="M38 0l87 550h85l-14 -95h7q21 50 65 77.5t103 27.5q40 0 71 -14.5t50.5 -40.5t27 -62.5t0.5 -81.5l-57 -361h-90l56 351q11 64 -15.5 98.5t-84.5 34.5q-56 0 -95 -35.5t-50 -97.5l-56 -351h-90zM225 731l-103 -146h-90l83 146h110z"/>
			<glyph glyph-name="Eng" unicode="&#x14a;"
			       d="M35 0l113 710h130l115 -427q4 -15 6.5 -33.5t4.5 -35.5q2 -20 4 -39h7l1 12t2.5 32t4 45.5t6.5 51.5l63 394h86l-108 -680q-7 -44 -27.5 -80t-51 -61.5t-70.5 -39.5t-87 -14h-70l13 82h70q54 0 89.5 30t43.5 83l-143 484q-5 18 -7.5 37t-4.5 34q-2 18 -2 35h-7
q-2 -19 -5 -41q-2 -19 -5.5 -43.5t-8.5 -53.5l-76 -482h-86z"/>
			<glyph glyph-name="eng" unicode="&#x14b;"
			       d="M125 550h85l-15 -95h8q21 50 65 77.5t101 27.5q42 0 73.5 -13.5t51.5 -38t27.5 -59.5t0.5 -78l-54 -341q-7 -44 -27.5 -80t-51 -61.5t-70.5 -39.5t-87 -14h-70l13 82h70q54 0 89.5 30t43.5 83l51 326q10 59 -17.5 92.5t-84.5 33.5t-95 -32.5t-47 -89.5l-57 -360h-90z"/>
			<glyph glyph-name="Omacron" unicode="&#x14c;"
			       d="M248 -10q-50 0 -88 15.5t-62.5 43.5t-34 67.5t-1.5 87.5l50 312q16 100 83.5 157t170.5 57q50 0 88 -15.5t62.5 -43.5t34 -67.5t1.5 -87.5l-50 -312q-16 -100 -83.5 -157t-170.5 -57zM152 204q-10 -62 19.5 -98t89.5 -36t100.5 36t50.5 98l50 312q10 62 -19.5 98
t-89.5 36t-100.5 -36t-50.5 -98zM240 930h260l-11 -75h-260z"/>
			<glyph glyph-name="omacron" unicode="&#x14d;"
			       d="M248 -10q-103 0 -152 57t-33 158l22 140q8 50 29.5 89.5t54.5 67.5t76 43t94 15q103 0 152.5 -56.5t33.5 -157.5l-22 -141q-17 -100 -84.5 -157.5t-170.5 -57.5zM153 205q-10 -63 18.5 -99t89.5 -36q60 0 101 36t51 99l22 140q10 63 -19.5 99t-89.5 36t-100.5 -36
t-50.5 -99zM240 770h260l-11 -75h-260z"/>
			<glyph glyph-name="Obreve" unicode="&#x14e;"
			       d="M248 -10q-50 0 -88 15.5t-62.5 43.5t-34 67.5t-1.5 87.5l50 312q16 100 83.5 157t170.5 57q50 0 88 -15.5t62.5 -43.5t34 -67.5t1.5 -87.5l-50 -312q-16 -100 -83.5 -157t-170.5 -57zM152 204q-10 -62 19.5 -98t89.5 -36t100.5 36t50.5 98l50 312q10 62 -19.5 98
t-89.5 36t-100.5 -36t-50.5 -98zM219 950h74q-6 -32 16 -51t66 -19q45 0 73 18.5t34 51.5h77q-5 -31 -21.5 -56t-42 -42.5t-58.5 -27t-72 -9.5q-37 0 -66.5 10t-49 28t-27.5 42.5t-3 54.5z"/>
			<glyph glyph-name="obreve" unicode="&#x14f;"
			       d="M248 -10q-103 0 -152 57t-33 158l22 140q8 50 29.5 89.5t54.5 67.5t76 43t94 15q103 0 152.5 -56.5t33.5 -157.5l-22 -141q-17 -100 -84.5 -157.5t-170.5 -57.5zM153 205q-10 -63 18.5 -99t89.5 -36q60 0 101 36t51 99l22 140q10 63 -19.5 99t-89.5 36t-100.5 -36
t-50.5 -99zM219 790h74q-6 -32 16 -51t66 -19q45 0 73 18.5t34 51.5h77q-5 -31 -21.5 -56t-42 -42.5t-58.5 -27t-72 -9.5q-37 0 -66.5 10t-49 28t-27.5 42.5t-3 54.5z"/>
			<glyph glyph-name="Ohungarumlaut" unicode="&#x150;"
			       d="M248 -10q-50 0 -88 15.5t-62.5 43.5t-34 67.5t-1.5 87.5l50 312q16 100 83.5 157t170.5 57q50 0 88 -15.5t62.5 -43.5t34 -67.5t1.5 -87.5l-50 -312q-16 -100 -83.5 -157t-170.5 -57zM152 204q-10 -62 19.5 -98t89.5 -36t100.5 36t50.5 98l50 312q10 62 -19.5 98
t-89.5 36t-100.5 -36t-50.5 -98zM414.166 956h-109.993l-132.244 -146h89.9951zM614.166 956h-109.993l-132.244 -146h89.9951z"/>
			<glyph glyph-name="ohungarumlaut" unicode="&#x151;"
			       d="M248 -10q-103 0 -152 57t-33 158l22 140q8 50 29.5 89.5t54.5 67.5t76 43t94 15q103 0 152.5 -56.5t33.5 -157.5l-22 -141q-17 -100 -84.5 -157.5t-170.5 -57.5zM153 205q-10 -63 18.5 -99t89.5 -36q60 0 101 36t51 99l22 140q10 63 -19.5 99t-89.5 36t-100.5 -36
t-50.5 -99zM414.166 796h-109.993l-132.244 -146h89.9951zM614.166 796h-109.993l-132.244 -146h89.9951z"/>
			<glyph glyph-name="OE" unicode="&#x152;"
			       d="M143 -10q-62 0 -95 37.5t-33 103.5q0 26 4 49l57 360q14 88 63.5 139t121.5 51q36 0 55 -14t28 -31q11 -20 12 -45h5l13 80h265l-13 -82h-177l-36 -226h152l-13 -82h-152l-39 -248h177l-13 -82h-265l13 80h-5q-10 -25 -27 -45q-14 -17 -38 -31t-60 -14zM109 180
q-8 -51 11 -80.5t61 -29.5t71 29.5t37 80.5l57 360q8 51 -11.5 80.5t-61.5 29.5t-70.5 -29.5t-36.5 -80.5z"/>
			<glyph glyph-name="oe" unicode="&#x153;"
			       d="M128 -10q-68 0 -99 42.5t-20 117.5l39 250q11 75 57 117.5t114 42.5q42 0 63 -12.5t31 -27.5q11 -18 11 -40h4q8 22 24 40q14 15 39.5 27.5t67.5 12.5q68 0 99 -42.5t20 -117.5l-23 -150h-222l-16 -100q-6 -38 9 -60.5t45 -22.5q26 0 46.5 16t29.5 42h85q-20 -63 -64 -99
t-100 -36q-42 0 -63 12.5t-31 27.5q-11 18 -11 40h-4q-8 -22 -24 -40q-14 -15 -39.5 -27.5t-67.5 -12.5zM94 150q-6 -38 9.5 -60.5t47.5 -22.5q31 0 52.5 22.5t27.5 60.5l39 250q6 38 -8 60.5t-45 22.5q-32 0 -55 -22.5t-29 -60.5zM344 323h137l12 77q6 38 -8.5 60.5
t-47.5 22.5q-32 0 -53.5 -22.5t-27.5 -60.5z"/>
			<glyph glyph-name="Racute" unicode="&#x154;"
			       d="M154 720h230q49 0 86.5 -15t62 -43t34 -66.5t1.5 -85.5q-13 -78 -58.5 -129.5t-116.5 -70.5l104 -310h-100l-95 300h-124l-48 -300h-90zM190 380h140q57 0 96.5 35.5t48.5 94.5t-19.5 94.5t-84.5 35.5h-140zM451.091 956h-109.994l-109.119 -146h89.9951z"/>
			<glyph glyph-name="racute" unicode="&#x155;"
			       d="M62 0l87 550h83l-15 -95h8q20 49 66 77t106 28q42 0 74 -14.5t51.5 -41.5t26.5 -64.5t-1 -83.5l-5 -36h-88l4 25q11 65 -16.5 101.5t-86.5 36.5q-60 0 -100.5 -37.5t-50.5 -100.5l-55 -345h-88zM451.091 796h-109.994l-109.119 -146h89.9951z"/>
			<glyph glyph-name="uni0156" unicode="&#x156;"
			       d="M154 720h230q49 0 86.5 -15t62 -43t34 -66.5t1.5 -85.5q-13 -78 -58.5 -129.5t-116.5 -70.5l104 -310h-100l-95 300h-124l-48 -300h-90zM190 380h140q57 0 96.5 35.5t48.5 94.5t-19.5 94.5t-84.5 35.5h-140zM345 -94l-103 -146h-90l83 146h110z"/>
			<glyph glyph-name="uni0157" unicode="&#x157;"
			       d="M62 0l87 550h83l-15 -95h8q20 49 66 77t106 28q42 0 74 -14.5t51.5 -41.5t26.5 -64.5t-1 -83.5l-5 -36h-88l4 25q11 65 -16.5 101.5t-86.5 36.5q-60 0 -100.5 -37.5t-50.5 -100.5l-55 -345h-88zM345 -94l-103 -146h-90l83 146h110z"/>
			<glyph glyph-name="Rcaron" unicode="&#x158;"
			       d="M154 720h230q49 0 86.5 -15t62 -43t34 -66.5t1.5 -85.5q-13 -78 -58.5 -129.5t-116.5 -70.5l104 -310h-100l-95 300h-124l-48 -300h-90zM190 380h140q57 0 96.5 35.5t48.5 94.5t-19.5 94.5t-84.5 35.5h-140zM225 955h76l46 -58q14 -17 19 -25q3 -5 5 -8h3l8 8l10.5 10.5
t17.5 15.5l65 57h80l-155 -145h-70z"/>
			<glyph glyph-name="rcaron" unicode="&#x159;"
			       d="M62 0l87 550h83l-15 -95h8q20 49 66 77t106 28q42 0 74 -14.5t51.5 -41.5t26.5 -64.5t-1 -83.5l-5 -36h-88l4 25q11 65 -16.5 101.5t-86.5 36.5q-60 0 -100.5 -37.5t-50.5 -100.5l-55 -345h-88zM225 795h76l46 -58q14 -17 19 -25q3 -5 5 -8h3l8 8l10.5 10.5t17.5 15.5
l65 57h80l-155 -145h-70z"/>
			<glyph glyph-name="Sacute" unicode="&#x15a;"
			       d="M49 185h95q-4 -25 3 -46t23 -36.5t39.5 -24t53.5 -8.5q64 0 105.5 29t49.5 81q7 44 -15 78.5t-70 53.5l-71 28q-74 29 -110.5 81.5t-25.5 117.5q15 93 78.5 142t166.5 49q47 0 84 -14t61.5 -39t35 -60.5t4.5 -77.5h-95q8 48 -21.5 79.5t-82.5 31.5q-57 0 -94 -26.5
t-44 -73.5q-13 -90 84 -127l75 -29q75 -29 108.5 -84t22.5 -127q-14 -93 -82.5 -143t-178.5 -50q-50 0 -89.5 14.5t-66 40t-38 61.5t-5.5 79zM451.091 956h-109.994l-109.119 -146h89.9951z"/>
			<glyph glyph-name="sacute" unicode="&#x15b;"
			       d="M53 135h88q2 -29 30.5 -47t74.5 -18h28q54 0 87.5 22.5t39.5 61.5q11 67 -79 80l-81 12q-155 22 -133 158q12 74 69.5 115t151.5 41h28q78 0 124.5 -37.5t46.5 -101.5h-88q-2 27 -28 43t-68 16h-28q-51 0 -82 -20t-38 -60q-5 -32 11.5 -49.5t59.5 -23.5l81 -12
q83 -12 117.5 -52t23.5 -109q-12 -78 -71.5 -121t-156.5 -43h-28q-85 0 -134 39.5t-46 105.5zM451.091 796h-109.994l-109.119 -146h89.9951z"/>
			<glyph glyph-name="Scircumflex" unicode="&#x15c;"
			       d="M49 185h95q-4 -25 3 -46t23 -36.5t39.5 -24t53.5 -8.5q64 0 105.5 29t49.5 81q7 44 -15 78.5t-70 53.5l-71 28q-74 29 -110.5 81.5t-25.5 117.5q15 93 78.5 142t166.5 49q47 0 84 -14t61.5 -39t35 -60.5t4.5 -77.5h-95q8 48 -21.5 79.5t-82.5 31.5q-57 0 -94 -26.5
t-44 -73.5q-13 -90 84 -127l75 -29q75 -29 108.5 -84t22.5 -127q-14 -93 -82.5 -143t-178.5 -50q-50 0 -89.5 14.5t-66 40t-38 61.5t-5.5 79zM200 810l155 145h70l105 -145h-75l-45 57q-15 20 -19 26q-4 5 -5 8h-3q-3 -3 -8 -7q-6 -7 -28 -26l-66 -58h-81z"/>
			<glyph glyph-name="scircumflex" unicode="&#x15d;"
			       d="M53 135h88q2 -29 30.5 -47t74.5 -18h28q54 0 87.5 22.5t39.5 61.5q11 67 -79 80l-81 12q-155 22 -133 158q12 74 69.5 115t151.5 41h28q78 0 124.5 -37.5t46.5 -101.5h-88q-2 27 -28 43t-68 16h-28q-51 0 -82 -20t-38 -60q-5 -32 11.5 -49.5t59.5 -23.5l81 -12
q83 -12 117.5 -52t23.5 -109q-12 -78 -71.5 -121t-156.5 -43h-28q-85 0 -134 39.5t-46 105.5zM200 650l155 145h70l105 -145h-75l-45 57q-15 20 -19 26q-4 5 -5 8h-3q-3 -3 -8 -7q-6 -7 -28 -26l-66 -58h-81z"/>
			<glyph glyph-name="Scedilla" unicode="&#x15e;"
			       d="M49 185h95q-4 -25 3 -46t23 -36.5t39.5 -24t53.5 -8.5q64 0 105.5 29t49.5 81q7 44 -15 78.5t-70 53.5l-71 28q-74 29 -110.5 81.5t-25.5 117.5q15 93 78.5 142t166.5 49q47 0 84 -14t61.5 -39t35 -60.5t4.5 -77.5h-95q8 48 -21.5 79.5t-82.5 31.5q-57 0 -94 -26.5
t-44 -73.5q-13 -90 84 -127l75 -29q75 -29 108.5 -84t22.5 -127q-14 -93 -82.5 -143t-178.5 -50q-50 0 -89.5 14.5t-66 40t-38 61.5t-5.5 79zM184 -135h70q22 0 36.5 8t16.5 22q3 17 -22.5 26.5t-76.5 9.5l50 95h57l-30 -61q33 -3 58 -12q21 -8 37.5 -24t11.5 -42
q-5 -35 -41.5 -56t-90.5 -21h-85z"/>
			<glyph glyph-name="scedilla" unicode="&#x15f;"
			       d="M53 135h88q2 -29 30.5 -47t74.5 -18h28q54 0 87.5 22.5t39.5 61.5q11 67 -79 80l-81 12q-155 22 -133 158q12 74 69.5 115t151.5 41h28q78 0 124.5 -37.5t46.5 -101.5h-88q-2 27 -28 43t-68 16h-28q-51 0 -82 -20t-38 -60q-5 -32 11.5 -49.5t59.5 -23.5l81 -12
q83 -12 117.5 -52t23.5 -109q-12 -78 -71.5 -121t-156.5 -43h-28q-85 0 -134 39.5t-46 105.5zM184 -135h70q22 0 36.5 8t16.5 22q3 17 -22.5 26.5t-76.5 9.5l50 95h57l-30 -61q33 -3 58 -12q21 -8 37.5 -24t11.5 -42q-5 -35 -41.5 -56t-90.5 -21h-85z"/>
			<glyph glyph-name="Scaron" unicode="&#x160;"
			       d="M49 185h95q-4 -25 3 -46t23 -36.5t39.5 -24t53.5 -8.5q64 0 105.5 29t49.5 81q7 44 -15 78.5t-70 53.5l-71 28q-74 29 -110.5 81.5t-25.5 117.5q15 93 78.5 142t166.5 49q47 0 84 -14t61.5 -39t35 -60.5t4.5 -77.5h-95q8 48 -21.5 79.5t-82.5 31.5q-57 0 -94 -26.5
t-44 -73.5q-13 -90 84 -127l75 -29q75 -29 108.5 -84t22.5 -127q-14 -93 -82.5 -143t-178.5 -50q-50 0 -89.5 14.5t-66 40t-38 61.5t-5.5 79zM225 955h76l46 -58q14 -17 19 -25q3 -5 5 -8h3l8 8l10.5 10.5t17.5 15.5l65 57h80l-155 -145h-70z"/>
			<glyph glyph-name="scaron" unicode="&#x161;"
			       d="M53 135h88q2 -29 30.5 -47t74.5 -18h28q54 0 87.5 22.5t39.5 61.5q11 67 -79 80l-81 12q-155 22 -133 158q12 74 69.5 115t151.5 41h28q78 0 124.5 -37.5t46.5 -101.5h-88q-2 27 -28 43t-68 16h-28q-51 0 -82 -20t-38 -60q-5 -32 11.5 -49.5t59.5 -23.5l81 -12
q83 -12 117.5 -52t23.5 -109q-12 -78 -71.5 -121t-156.5 -43h-28q-85 0 -134 39.5t-46 105.5zM225 795h76l46 -58q14 -17 19 -25q3 -5 5 -8h3l8 8l10.5 10.5t17.5 15.5l65 57h80l-155 -145h-70z"/>
			<glyph glyph-name="uni0162" unicode="&#x162;"
			       d="M109 720h510l-12 -79h-209l-102 -641h-92l102 641h-209zM154 -135h70q22 0 36.5 8t16.5 22q3 17 -22.5 26.5t-76.5 9.5l50 95h57l-30 -61q33 -3 58 -12q21 -8 37.5 -24t11.5 -42q-5 -35 -41.5 -56t-90.5 -21h-85z"/>
			<glyph glyph-name="uni0163" unicode="&#x163;"
			       d="M97 550h160l27 170h90l-27 -170h215l-13 -82h-215l-51 -326q-5 -28 10 -44t45 -16h140l-13 -82h-140q-71 0 -106.5 39t-25.5 103l51 326h-160zM234 -135h70q22 0 36.5 8t16.5 22q3 17 -22.5 26.5t-76.5 9.5l50 95h57l-30 -61q33 -3 58 -12q21 -8 37.5 -24t11.5 -42
q-5 -35 -41.5 -56t-90.5 -21h-85z"/>
			<glyph glyph-name="Tcaron" unicode="&#x164;"
			       d="M109 720h510l-12 -79h-209l-102 -641h-92l102 641h-209zM225 955h76l46 -58q14 -17 19 -25q3 -5 5 -8h3l8 8l10.5 10.5t17.5 15.5l65 57h80l-155 -145h-70z"/>
			<glyph glyph-name="tcaron" unicode="&#x165;"
			       d="M97 550h160l27 170h90l-27 -170h215l-13 -82h-215l-51 -326q-5 -28 10 -44t45 -16h140l-13 -82h-140q-71 0 -106.5 39t-25.5 103l51 326h-160zM440 610l50 146h90l-70 -146h-70z"/>
			<glyph glyph-name="Tbar" unicode="&#x166;"
			       d="M109 720h510l-12 -79h-209l-102 -641h-92l102 641h-209zM185 400h260l-11 -75h-260z"/>
			<glyph glyph-name="tbar" unicode="&#x167;"
			       d="M97 550h160l27 170h90l-27 -170h215l-13 -82h-215l-51 -326q-5 -28 10 -44t45 -16h140l-13 -82h-140q-71 0 -106.5 39t-25.5 103l51 326h-160zM137 330h260l-11 -75h-260z"/>
			<glyph glyph-name="Utilde" unicode="&#x168;"
			       d="M248 -10q-100 0 -148.5 56t-32.5 154l82 520h90l-82 -520q-10 -61 17.5 -95.5t86.5 -34.5q60 0 98 33.5t48 96.5l82 520h90l-82 -520q-16 -101 -80.5 -155.5t-168.5 -54.5zM170 815l4 20q11 58 45 89t86 31q34 0 54 -12.5t35 -27.5t30 -27.5t37 -12.5q21 0 36 14.5
t19 40.5l3 20h65l-3 -20q-9 -58 -44 -89t-87 -31q-34 0 -54 12.5t-35 27.5t-29.5 27.5t-37.5 12.5q-44 0 -55 -55l-4 -20h-65z"/>
			<glyph glyph-name="utilde" unicode="&#x169;"
			       d="M73 194l56 356h90l-58 -356q-21 -125 99 -125q121 0 141 125l56 356h88l-56 -356q-15 -98 -77.5 -151t-164.5 -53q-98 0 -143.5 54t-30.5 150zM170 655l4 20q11 58 45 89t86 31q34 0 54 -12.5t35 -27.5t30 -27.5t37 -12.5q21 0 36 14.5t19 40.5l3 20h65l-3 -20
q-9 -58 -44 -89t-87 -31q-34 0 -54 12.5t-35 27.5t-29.5 27.5t-37.5 12.5q-44 0 -55 -55l-4 -20h-65z"/>
			<glyph glyph-name="Umacron" unicode="&#x16a;"
			       d="M248 -10q-100 0 -148.5 56t-32.5 154l82 520h90l-82 -520q-10 -61 17.5 -95.5t86.5 -34.5q60 0 98 33.5t48 96.5l82 520h90l-82 -520q-16 -101 -80.5 -155.5t-168.5 -54.5zM240 930h260l-11 -75h-260z"/>
			<glyph glyph-name="umacron" unicode="&#x16b;"
			       d="M73 194l56 356h90l-58 -356q-21 -125 99 -125q121 0 141 125l56 356h88l-56 -356q-15 -98 -77.5 -151t-164.5 -53q-98 0 -143.5 54t-30.5 150zM240 770h260l-11 -75h-260z"/>
			<glyph glyph-name="Ubreve" unicode="&#x16c;"
			       d="M248 -10q-100 0 -148.5 56t-32.5 154l82 520h90l-82 -520q-10 -61 17.5 -95.5t86.5 -34.5q60 0 98 33.5t48 96.5l82 520h90l-82 -520q-16 -101 -80.5 -155.5t-168.5 -54.5zM219 950h74q-6 -32 16 -51t66 -19q45 0 73 18.5t34 51.5h77q-5 -31 -21.5 -56t-42 -42.5
t-58.5 -27t-72 -9.5q-37 0 -66.5 10t-49 28t-27.5 42.5t-3 54.5z"/>
			<glyph glyph-name="ubreve" unicode="&#x16d;"
			       d="M73 194l56 356h90l-58 -356q-21 -125 99 -125q121 0 141 125l56 356h88l-56 -356q-15 -98 -77.5 -151t-164.5 -53q-98 0 -143.5 54t-30.5 150zM219 790h74q-6 -32 16 -51t66 -19q45 0 73 18.5t34 51.5h77q-5 -31 -21.5 -56t-42 -42.5t-58.5 -27t-72 -9.5q-37 0 -66.5 10
t-49 28t-27.5 42.5t-3 54.5z"/>
			<glyph glyph-name="Uring" unicode="&#x16e;"
			       d="M248 -10q-100 0 -148.5 56t-32.5 154l82 520h90l-82 -520q-10 -61 17.5 -95.5t86.5 -34.5q60 0 98 33.5t48 96.5l82 520h90l-82 -520q-16 -101 -80.5 -155.5t-168.5 -54.5zM278 870q7 45 44 72.5t91 27.5t83.5 -27.5t21.5 -72.5t-45 -72.5t-91 -27.5t-83 27.5t-21 72.5z
M389 821q28 0 47 13.5t22 35.5q4 26 -10.5 38t-43.5 12q-26 0 -44 -13.5t-22 -36.5q-4 -22 10.5 -35.5t40.5 -13.5z"/>
			<glyph glyph-name="uring" unicode="&#x16f;"
			       d="M73 194l56 356h90l-58 -356q-21 -125 99 -125q121 0 141 125l56 356h88l-56 -356q-15 -98 -77.5 -151t-164.5 -53q-98 0 -143.5 54t-30.5 150zM238 710q7 45 44 72.5t91 27.5t83.5 -27.5t21.5 -72.5t-45 -72.5t-91 -27.5t-83 27.5t-21 72.5zM349 661q28 0 47 13.5
t22 35.5q4 26 -10.5 38t-43.5 12q-26 0 -44 -13.5t-22 -36.5q-4 -22 10.5 -35.5t40.5 -13.5z"/>
			<glyph glyph-name="Uhungarumlaut" unicode="&#x170;"
			       d="M248 -10q-100 0 -148.5 56t-32.5 154l82 520h90l-82 -520q-10 -61 17.5 -95.5t86.5 -34.5q60 0 98 33.5t48 96.5l82 520h90l-82 -520q-16 -101 -80.5 -155.5t-168.5 -54.5zM414.166 956h-109.993l-132.244 -146h89.9951zM614.166 956h-109.993l-132.244 -146h89.9951z
"/>
			<glyph glyph-name="uhungarumlaut" unicode="&#x171;"
			       d="M73 194l56 356h90l-58 -356q-21 -125 99 -125q121 0 141 125l56 356h88l-56 -356q-15 -98 -77.5 -151t-164.5 -53q-98 0 -143.5 54t-30.5 150zM414.166 796h-109.993l-132.244 -146h89.9951zM614.166 796h-109.993l-132.244 -146h89.9951z"/>
			<glyph glyph-name="Uogonek" unicode="&#x172;"
			       d="M248 -10q-100 0 -148.5 56t-32.5 154l82 520h90l-82 -520q-10 -61 17.5 -95.5t86.5 -34.5q60 0 98 33.5t48 96.5l82 520h90l-82 -520q-16 -101 -80.5 -155.5t-168.5 -54.5zM179 -110q5 29 28 58t76 62h75l-13 -9q-39 -27 -56.5 -50t-21.5 -44q-4 -22 8.5 -34.5
t38.5 -12.5h60l-10 -60h-78q-56 0 -85 24.5t-22 65.5z"/>
			<glyph glyph-name="uogonek" unicode="&#x173;"
			       d="M73 194l56 356h90l-58 -356q-21 -125 99 -125q121 0 141 125l56 356h88l-56 -356q-15 -98 -77.5 -151t-164.5 -53q-98 0 -143.5 54t-30.5 150zM178 -110q5 29 28 58t76 62h75l-13 -9q-39 -27 -56.5 -50t-21.5 -44q-4 -22 8.5 -34.5t38.5 -12.5h60l-10 -60h-78
q-56 0 -85 24.5t-22 65.5z"/>
			<glyph glyph-name="Wcircumflex" unicode="&#x174;"
			       d="M89 720h85l-36 -526q-2 -23 -4.5 -47.5t-4.5 -44.5q-3 -24 -6 -47h13q4 23 10 47q5 20 10.5 44.5t12.5 47.5l151 526h88l-17 -526q-1 -22 -2.5 -46.5t-3.5 -45.5q-2 -24 -4 -47h14q5 23 10 47q5 20 11 44.5t11 47.5l129 526h82l-186 -720h-128l22 529q2 58 8.5 95.5
t7.5 37.5h-17q-2 -17 -6 -38q-3 -17 -8 -41.5t-13 -53.5l-145 -529h-128zM200 810l155 145h70l105 -145h-75l-45 57q-15 20 -19 26q-4 5 -5 8h-3q-3 -3 -8 -7q-6 -7 -28 -26l-66 -58h-81z"/>
			<glyph glyph-name="wcircumflex" unicode="&#x175;"
			       d="M67 550h79l-11 -377q0 -18 -1 -40t-3 -41q-1 -22 -3 -44h11l12 44q5 19 11.5 41t11.5 40l118 377h86l-2 -377q0 -19 -0.5 -41t-0.5 -41q-1 -22 -2 -43h12q5 22 11 44q5 19 11 40.5t11 40.5l110 377h79l-165 -550h-124l3 389q0 17 1.5 35.5t3.5 34.5q2 18 5 36h-13l-6 -36
q-3 -16 -7.5 -34.5t-9.5 -35.5l-119 -389h-119zM200 650l155 145h70l105 -145h-75l-45 57q-15 20 -19 26q-4 5 -5 8h-3q-3 -3 -8 -7q-6 -7 -28 -26l-66 -58h-81z"/>
			<glyph glyph-name="Ycircumflex" unicode="&#x176;"
			       d="M185 720l98 -317q5 -15 7.5 -29.5t4.5 -25.5q2 -13 2 -24h4q4 11 10 24q5 11 12.5 25.5t16.5 29.5l194 317h100l-299 -470l-40 -250h-90l40 250l-151 470h91zM200 810l155 145h70l105 -145h-75l-45 57q-15 20 -19 26q-4 5 -5 8h-3q-3 -3 -8 -7q-6 -7 -28 -26l-66 -58h-81
z"/>
			<glyph glyph-name="ycircumflex" unicode="&#x177;"
			       d="M77 239l49 311h88l-46 -291q-10 -63 16.5 -99t83.5 -36t96 35.5t48 95.5l47 295h88l-88 -542q-14 -85 -69.5 -131.5t-146.5 -46.5h-146l12 78h146q48 0 78 26t38 74l9 52l20 95h-6q-21 -50 -65 -77.5t-103 -27.5q-81 0 -121.5 51.5t-27.5 137.5zM200 650l155 145h70
l105 -145h-75l-45 57q-15 20 -19 26q-4 5 -5 8h-3q-3 -3 -8 -7q-6 -7 -28 -26l-66 -58h-81z"/>
			<glyph glyph-name="Ydieresis" unicode="&#x178;"
			       d="M185 720l98 -317q5 -15 7.5 -29.5t4.5 -25.5q2 -13 2 -24h4q4 11 10 24q5 11 12.5 25.5t16.5 29.5l194 317h100l-299 -470l-40 -250h-90l40 250l-151 470h91zM426 887q5 27 24.5 43.5t46.5 16.5t40.5 -16.5t8.5 -43.5t-24 -43.5t-46 -16.5t-41 16.5t-9 43.5zM226 887
q5 27 24.5 43.5t46.5 16.5t40.5 -16.5t8.5 -43.5t-24 -43.5t-46 -16.5t-41 16.5t-9 43.5z"/>
			<glyph glyph-name="Zacute" unicode="&#x179;"
			       d="M568 720l-13 -81l-408 -562v-2l71 4h260l-13 -79h-430l13 80l408 562v2l-72 -3h-239l12 79h411zM451.091 956h-109.994l-109.119 -146h89.9951z"/>
			<glyph glyph-name="zacute" unicode="&#x17a;"
			       d="M30 0l16 103l386 364l1 6q-11 -1 -23 -1q-11 -1 -24.5 -1.5t-27.5 -0.5h-246l13 80h421l-16 -104l-390 -364l-1 -6q11 1 24 2q11 1 24.5 1.5t27.5 0.5h268l-13 -80h-440zM451.091 796h-109.994l-109.119 -146h89.9951z"/>
			<glyph glyph-name="Zdotaccent" unicode="&#x17b;"
			       d="M568 720l-13 -81l-408 -562v-2l71 4h260l-13 -79h-430l13 80l408 562v2l-72 -3h-239l12 79h411zM316 904q5 27 25 44t49 17h20q29 0 45 -17t11 -44t-25.5 -43t-49.5 -16h-20q-29 0 -44.5 15.5t-10.5 43.5z"/>
			<glyph glyph-name="zdotaccent" unicode="&#x17c;"
			       d="M30 0l16 103l386 364l1 6q-11 -1 -23 -1q-11 -1 -24.5 -1.5t-27.5 -0.5h-246l13 80h421l-16 -104l-390 -364l-1 -6q11 1 24 2q11 1 24.5 1.5t27.5 0.5h268l-13 -80h-440zM288 744q5 27 25 44t49 17h20q29 0 45 -17t11 -44t-25.5 -43t-49.5 -16h-20q-29 0 -44.5 15.5
t-10.5 43.5z"/>
			<glyph glyph-name="Zcaron" unicode="&#x17d;"
			       d="M568 720l-13 -81l-408 -562v-2l71 4h260l-13 -79h-430l13 80l408 562v2l-72 -3h-239l12 79h411zM225 955h76l46 -58q14 -17 19 -25q3 -5 5 -8h3l8 8l10.5 10.5t17.5 15.5l65 57h80l-155 -145h-70z"/>
			<glyph glyph-name="zcaron" unicode="&#x17e;"
			       d="M30 0l16 103l386 364l1 6q-11 -1 -23 -1q-11 -1 -24.5 -1.5t-27.5 -0.5h-246l13 80h421l-16 -104l-390 -364l-1 -6q11 1 24 2q11 1 24.5 1.5t27.5 0.5h268l-13 -80h-440zM225 795h76l46 -58q14 -17 19 -25q3 -5 5 -8h3l8 8l10.5 10.5t17.5 15.5l65 57h80l-155 -145h-70z
"/>
			<glyph glyph-name="longs" unicode="&#x17f;"
			       d="M-8 -170l13 80h46q51 0 82 27t39 78l82 520q14 89 72.5 137t152.5 48h85l-13 -80h-86q-51 0 -82 -27t-39 -78l-82 -520q-14 -89 -72.5 -137t-152.5 -48h-45z"/>
			<glyph glyph-name="florin" unicode="&#x192;"
			       d="M-8 -170l13 80h46q51 0 82 27t39 78l63 398h-160l13 82h160l14 85q11 66 57.5 103t118.5 37h161l-13 -82h-161q-64 0 -73 -58l-14 -85h225l-13 -82h-225l-63 -398q-14 -89 -72.5 -137t-152.5 -48h-45z"/>
			<glyph glyph-name="uni0218" unicode="&#x218;"
			       d="M49 185h95q-4 -25 3 -46t23 -36.5t39.5 -24t53.5 -8.5q64 0 105.5 29t49.5 81q7 44 -15 78.5t-70 53.5l-71 28q-74 29 -110.5 81.5t-25.5 117.5q15 93 78.5 142t166.5 49q47 0 84 -14t61.5 -39t35 -60.5t4.5 -77.5h-95q8 48 -21.5 79.5t-82.5 31.5q-57 0 -94 -26.5
t-44 -73.5q-13 -90 84 -127l75 -29q75 -29 108.5 -84t22.5 -127q-14 -93 -82.5 -143t-178.5 -50q-50 0 -89.5 14.5t-66 40t-38 61.5t-5.5 79zM345 -94l-103 -146h-90l83 146h110z"/>
			<glyph glyph-name="uni0219" unicode="&#x219;"
			       d="M53 135h88q2 -29 30.5 -47t74.5 -18h28q54 0 87.5 22.5t39.5 61.5q11 67 -79 80l-81 12q-155 22 -133 158q12 74 69.5 115t151.5 41h28q78 0 124.5 -37.5t46.5 -101.5h-88q-2 27 -28 43t-68 16h-28q-51 0 -82 -20t-38 -60q-5 -32 11.5 -49.5t59.5 -23.5l81 -12
q83 -12 117.5 -52t23.5 -109q-12 -78 -71.5 -121t-156.5 -43h-28q-85 0 -134 39.5t-46 105.5zM334 -94l-103 -146h-90l83 146h110z"/>
			<glyph glyph-name="uni021A" unicode="&#x21a;"
			       d="M109 720h510l-12 -79h-209l-102 -641h-92l102 641h-209zM345 -94l-103 -146h-90l83 146h110z"/>
			<glyph glyph-name="uni021B" unicode="&#x21b;"
			       d="M97 550h160l27 170h90l-27 -170h215l-13 -82h-215l-51 -326q-5 -28 10 -44t45 -16h140l-13 -82h-140q-71 0 -106.5 39t-25.5 103l51 326h-160zM345 -94l-103 -146h-90l83 146h110z"/>
			<glyph glyph-name="uni0237" unicode="&#x237;"
			       d="M8 -170l13 83h120q32 0 59 10t48.5 28t35.5 43.5t19 55.5l66 418h-230l13 82h320l-79 -500q-7 -48 -30.5 -88.5t-59 -70t-80 -45.5t-95.5 -16h-120z"/>
			<glyph glyph-name="circumflex" unicode="&#x2c6;"
			       d="M200 650l155 145h70l105 -145h-75l-45 57q-15 20 -19 26q-4 5 -5 8h-3q-3 -3 -8 -7q-6 -7 -28 -26l-66 -58h-81z"/>
			<glyph glyph-name="caron" unicode="&#x2c7;"
			       d="M225 795h76l46 -58q14 -17 19 -25q3 -5 5 -8h3l8 8l10.5 10.5t17.5 15.5l65 57h80l-155 -145h-70z"/>
			<glyph glyph-name="uni02C9" unicode="&#x2c9;"
			       d="M280 930h260l-11 -75h-260z"/>
			<glyph glyph-name="breve" unicode="&#x2d8;"
			       d="M219 790h74q-6 -32 16 -51t66 -19q45 0 73 18.5t34 51.5h77q-5 -31 -21.5 -56t-42 -42.5t-58.5 -27t-72 -9.5q-37 0 -66.5 10t-49 28t-27.5 42.5t-3 54.5z"/>
			<glyph glyph-name="dotaccent" unicode="&#x2d9;"
			       d="M272 744q5 27 25 44t49 17h20q29 0 45 -17t11 -44t-25.5 -43t-49.5 -16h-20q-29 0 -44.5 15.5t-10.5 43.5z"/>
			<glyph glyph-name="ring" unicode="&#x2da;"
			       d="M278 710q7 45 44 72.5t91 27.5t83.5 -27.5t21.5 -72.5t-45 -72.5t-91 -27.5t-83 27.5t-21 72.5zM389 661q28 0 47 13.5t22 35.5q4 26 -10.5 38t-43.5 12q-26 0 -44 -13.5t-22 -36.5q-4 -22 10.5 -35.5t40.5 -13.5z"/>
			<glyph glyph-name="ogonek" unicode="&#x2db;"
			       d="M168 -110q5 29 28 58t76 62h75l-13 -9q-39 -27 -56.5 -50t-21.5 -44q-4 -22 8.5 -34.5t38.5 -12.5h60l-10 -60h-78q-56 0 -85 24.5t-22 65.5z"/>
			<glyph glyph-name="tilde" unicode="&#x2dc;"
			       d="M170 655l4 20q11 58 45 89t86 31q34 0 54 -12.5t35 -27.5t30 -27.5t37 -12.5q21 0 36 14.5t19 40.5l3 20h65l-3 -20q-9 -58 -44 -89t-87 -31q-34 0 -54 12.5t-35 27.5t-29.5 27.5t-37.5 12.5q-44 0 -55 -55l-4 -20h-65z"/>
			<glyph glyph-name="hungarumlaut" unicode="&#x2dd;"
			       d="M414.166 796h-109.993l-132.244 -146h89.9951zM614.166 796h-109.993l-132.244 -146h89.9951z"/>
			<glyph glyph-name="lambda" unicode="&#x3bb;"
			       d="M321 519l-44 201h93l160 -720h-93l-70 319q-10 49 -11 79q-2 18 -2 33h-7q-3 -15 -8 -33q-5 -16 -13 -36t-20 -43l-172 -319h-104z"/>
			<glyph glyph-name="uni03BC" unicode="&#x3bc;"
			       d="M14 -165l113 715h90l-56 -356q-10 -60 13 -92.5t86 -32.5q62 0 96 31t45 94l56 356h90l-56 -356q-15 -98 -76 -151t-158 -53q-49 0 -77 12t-42 27q-17 16 -22 38h-4q1 0 2 -8t2 -20t1 -26t-1 -26l-13 -152h-89z"/>
			<glyph glyph-name="pi" unicode="&#x3c0;"
			       d="M57 550h535l-12 -78h-80l-49 -308q-14 -85 59 -85h28l-14 -84h-23q-76 0 -114 47.5t-25 127.5l47 298h-195l-74 -468h-90l74 469h-80z"/>
			<glyph glyph-name="uni0401" unicode="&#x401;"
			       d="M161 720h423l-13 -80h-335l-36 -228h300l-13 -82h-300l-39 -250h335l-13 -80h-423zM456 887q5 27 24.5 43.5t46.5 16.5t40.5 -16.5t8.5 -43.5t-24 -43.5t-46 -16.5t-41 16.5t-9 43.5zM256 887q5 27 24.5 43.5t46.5 16.5t40.5 -16.5t8.5 -43.5t-24 -43.5t-46 -16.5
t-41 16.5t-9 43.5z"/>
			<glyph glyph-name="uni0402" unicode="&#x402;"
			       d="M52 641l12 79h320l-12 -79h-120l-39 -244l19 19q38 38 79.5 58.5t81.5 20.5q38 0 67.5 -13t48 -36.5t25.5 -56.5t1 -73l-46 -291q-7 -44 -27.5 -80t-51 -61.5t-70.5 -39.5t-87 -14h-70l13 82h70q54 0 89.5 30t43.5 83l43 271q20 123 -72 123q-60 0 -119 -57l-52 -51
l-49 -311h-90l102 641h-110z"/>
			<glyph glyph-name="uni0403" unicode="&#x403;"
			       d="M599 720l-13 -82h-340l-101 -638h-90l114 720h430zM450 946l-130 -146h-90l110 146h110z"/>
			<glyph glyph-name="uni0404" unicode="&#x404;"
			       d="M56 200l50 320q8 49 29.5 88t54.5 66t76 41.5t94 14.5q94 0 143.5 -51.5t45.5 -143.5h-90q2 54 -27.5 84.5t-84.5 30.5q-60 0 -100.5 -36t-50.5 -99l-17 -110h247l-12 -80h-248l-19 -120q-10 -63 18.5 -99t89.5 -36q55 0 94.5 30.5t53.5 84.5h90q-25 -92 -91 -143.5
t-160 -51.5q-103 0 -152 56t-34 154z"/>
			<glyph glyph-name="uni0405" unicode="&#x405;"
			       d="M49 185h95q-4 -25 3 -46t23 -36.5t39.5 -24t53.5 -8.5q64 0 105.5 29t49.5 81q7 44 -15 78.5t-70 53.5l-71 28q-74 29 -110.5 81.5t-25.5 117.5q15 93 78.5 142t166.5 49q47 0 84 -14t61.5 -39t35 -60.5t4.5 -77.5h-95q8 48 -21.5 79.5t-82.5 31.5q-57 0 -94 -26.5
t-44 -73.5q-13 -90 84 -127l75 -29q75 -29 108.5 -84t22.5 -127q-14 -93 -82.5 -143t-178.5 -50q-50 0 -89.5 14.5t-66 40t-38 61.5t-5.5 79z"/>
			<glyph glyph-name="uni0406" unicode="&#x406;"
			       d="M46 0l13 79h159l89 562h-159l12 79h408l-12 -79h-159l-89 -562h159l-13 -79h-408z"/>
			<glyph glyph-name="uni0407" unicode="&#x407;"
			       d="M46 0l13 79h159l89 562h-159l12 79h408l-12 -79h-159l-89 -562h159l-13 -79h-408zM436 887q5 27 24.5 43.5t46.5 16.5t40.5 -16.5t8.5 -43.5t-24 -43.5t-46 -16.5t-41 16.5t-9 43.5zM236 887q5 27 24.5 43.5t46.5 16.5t40.5 -16.5t8.5 -43.5t-24 -43.5t-46 -16.5
t-41 16.5t-9 43.5z"/>
			<glyph glyph-name="uni0408" unicode="&#x408;"
			       d="M113 175q2 -48 34 -76.5t84 -28.5q64 0 108 36.5t54 98.5l68 435h-280l13 80h370l-81 -515q-8 -49 -30.5 -89t-57 -68t-79.5 -43t-98 -15q-44 0 -79.5 13t-61 37.5t-40 58.5t-14.5 76h90z"/>
			<glyph glyph-name="uni0409" unicode="&#x409;"
			       d="M-56 -5l13 80h18q25 0 45.5 33.5t29.5 85.5l88 526h286l-46 -290h60q36 0 64 -11t46 -31.5t25 -49t1 -63.5l-19 -120q-6 -35 -22 -63.5t-40 -49t-55.5 -31.5t-67.5 -11h-140l102 645h-127l-76 -451q-15 -91 -60 -145t-110 -54h-15zM322 75h60q36 0 61.5 22t31.5 58
l19 120q6 36 -13 58t-55 22h-60z"/>
			<glyph glyph-name="uni040A" unicode="&#x40a;"
			       d="M117 720h80l-46 -290h147l46 290h80l-46 -290h60q36 0 64 -11t46 -31.5t25 -49t1 -63.5l-19 -120q-6 -35 -22 -63.5t-40 -49t-55.5 -31.5t-67.5 -11h-140l56 355h-147l-56 -355h-80zM322 75h60q36 0 61.5 22t31.5 58l19 120q6 36 -13 58t-55 22h-60z"/>
			<glyph glyph-name="uni040B" unicode="&#x40b;"
			       d="M52 641l12 79h320l-12 -79h-120l-39 -244l19 19q38 38 79.5 58.5t81.5 20.5q38 0 67.5 -13t48 -36.5t25.5 -56.5t1 -73l-50 -316h-90l47 296q20 123 -72 123q-29 0 -57.5 -14.5t-60.5 -46.5l-53 -51l-49 -307h-90l102 641h-110z"/>
			<glyph glyph-name="uni040C" unicode="&#x40c;"
			       d="M154 720h90l-48 -306h116l212 306h105l-245 -351l141 -369h-98l-124 335h-120l-53 -335h-90zM450 946l-130 -146h-90l110 146h110z"/>
			<glyph glyph-name="uni040E" unicode="&#x40e;"
			       d="M104 720h95l86 -347q6 -22 8.5 -42t3.5 -35q1 -18 1 -33h7q2 15 7 33q4 15 11.5 34.5t18.5 42.5l182 347h100l-387 -720h-96l104 189zM268 940h75q-12 -70 71 -70q42 0 67.5 18t31.5 52h75q-6 -30 -22 -55t-40 -43t-55 -27.5t-67 -9.5q-72 0 -109.5 37t-26.5 98z"/>
			<glyph glyph-name="uni040F" unicode="&#x40f;"
			       d="M154 720h90l-101 -638h240l101 638h90l-114 -720h-165l-20 -125h-90l20 125h-165z"/>
			<glyph glyph-name="uni0410" unicode="&#x410;"
			       d="M30 0l310 720h126l76 -720h-92l-18 203h-222l-84 -203h-96zM241 278h185l-25 285q-3 42 -3 70v27h-4l-9 -27q-5 -14 -11.5 -31.5t-15.5 -38.5z"/>
			<glyph glyph-name="uni0411" unicode="&#x411;"
			       d="M154 720h415l-13 -82h-325l-33 -210h135q48 0 86 -16t62.5 -44.5t35 -67.5t2.5 -86q-16 -100 -83.5 -157t-170.5 -57h-225zM143 82h130q62 0 102.5 35t50.5 97q9 59 -21.5 95.5t-89.5 36.5h-130z"/>
			<glyph glyph-name="uni0412" unicode="&#x412;"
			       d="M154 720h211q101 0 151.5 -51t36.5 -139q-10 -64 -53 -104.5t-104 -45.5l-1 -6q68 -4 99.5 -49t19.5 -122q-15 -96 -81.5 -149.5t-170.5 -53.5h-222zM142 82h123q65 0 105.5 32.5t49.5 91.5q9 58 -22 91t-94 33h-123zM194 408h121q57 0 95.5 30.5t46.5 84.5t-20 84.5
t-85 30.5h-122z"/>
			<glyph glyph-name="uni0413" unicode="&#x413;"
			       d="M599 720l-13 -82h-340l-101 -638h-90l114 720h430z"/>
			<glyph glyph-name="uni0414" unicode="&#x414;"
			       d="M-12 80h45q19 28 37 71q16 37 33.5 93.5t31.5 135.5l60 340h374l-101 -640h70l-35 -220h-80l22 140h-390l-22 -140h-80zM128 80h250l88 558h-197l-45 -258q-14 -84 -31 -140t-31 -90q-17 -40 -33 -63z"/>
			<glyph glyph-name="uni0415" unicode="&#x415;"
			       d="M161 720h423l-13 -80h-335l-36 -228h300l-13 -82h-300l-39 -250h335l-13 -80h-423z"/>
			<glyph glyph-name="uni0416" unicode="&#x416;"
			       d="M149 383l-70 337h86l59 -313h51l49 313h80l-49 -313h51l154 313h89l-176 -348l72 -372h-86l-59 341h-56l-54 -341h-80l54 341h-51l-167 -341h-91z"/>
			<glyph glyph-name="uni0417" unicode="&#x417;"
			       d="M238 -10q-103 0 -158 53t-48 142h90q-2 -54 32.5 -84.5t96.5 -30.5q68 0 113 34.5t54 92.5q9 59 -25 93.5t-101 34.5h-95l13 82h94q61 0 103 33.5t51 88.5q9 56 -22.5 88.5t-93.5 32.5q-61 0 -103.5 -34t-51.5 -91h-90q8 47 29.5 85t55 64.5t77.5 41t96 14.5
q106 0 159.5 -52.5t39.5 -142.5q-11 -67 -54 -110t-104 -48l-1 -6q66 -4 98 -50.5t20 -123.5q-15 -98 -87.5 -152.5t-187.5 -54.5z"/>
			<glyph glyph-name="uni0418" unicode="&#x418;"
			       d="M149 720h86l-78 -490q-4 -26 -9 -49.5t-9.5 -41.5t-7.5 -28.5l-3 -10.5h7q11 26 22 51q10 21 21 44.5t21 41.5l265 483h115l-114 -720h-86l78 492q5 29 9.5 52.5t8.5 40.5l9 36h-7q-9 -23 -20 -46q-9 -20 -20.5 -44t-23.5 -47l-263 -484h-115z"/>
			<glyph glyph-name="uni0419" unicode="&#x419;"
			       d="M149 720h86l-78 -490q-4 -26 -9 -49.5t-9.5 -41.5t-7.5 -28.5l-3 -10.5h7q11 26 22 51q10 21 21 44.5t21 41.5l265 483h115l-114 -720h-86l78 492q5 29 9.5 52.5t8.5 40.5l9 36h-7q-9 -23 -20 -46q-9 -20 -20.5 -44t-23.5 -47l-263 -484h-115zM227 940h75q-12 -70 71 -70
q42 0 67.5 18t31.5 52h75q-6 -30 -22 -55t-40 -43t-55 -27.5t-67 -9.5q-72 0 -109.5 37t-26.5 98z"/>
			<glyph glyph-name="uni041A" unicode="&#x41a;"
			       d="M154 720h90l-48 -306h116l212 306h105l-245 -351l141 -369h-98l-124 335h-120l-53 -335h-90z"/>
			<glyph glyph-name="uni041B" unicode="&#x41b;"
			       d="M-31 -5l13 84h19q44 0 69.5 39.5t41.5 135.5l80 466h382l-114 -720h-90l101 638h-203l-66 -384q-23 -135 -73 -197t-137 -62h-23z"/>
			<glyph glyph-name="uni041C" unicode="&#x41c;"
			       d="M25 0l114 720h110l46 -244q6 -32 8 -63q1 -17 2 -33h8q6 16 13 33q6 14 13.5 31t14.5 32l119 244h116l-114 -720h-83l80 505q5 26 10 51t10 45q5 23 11 43h-10q-8 -19 -18 -41q-8 -20 -19.5 -44.5t-25.5 -53.5l-91 -185h-74l-33 185q-5 32 -9.5 58t-7.5 44q-3 22 -5 38
h-7q-1 -21 -3 -44l-4.5 -45t-7.5 -51l-80 -505h-83z"/>
			<glyph glyph-name="uni041D" unicode="&#x41d;"
			       d="M40 0l114 720h90l-48 -304h236l48 304h90l-114 -720h-90l53 334h-236l-53 -334h-90z"/>
			<glyph glyph-name="uni041E" unicode="&#x41e;"
			       d="M248 -10q-50 0 -88 15.5t-62.5 43.5t-34 67.5t-1.5 87.5l50 312q16 100 83.5 157t170.5 57q50 0 88 -15.5t62.5 -43.5t34 -67.5t1.5 -87.5l-50 -312q-16 -100 -83.5 -157t-170.5 -57zM152 204q-10 -62 19.5 -98t89.5 -36t100.5 36t50.5 98l50 312q10 62 -19.5 98
t-89.5 36t-100.5 -36t-50.5 -98z"/>
			<glyph glyph-name="uni041F" unicode="&#x41f;"
			       d="M154 720h420l-114 -720h-90l101 638h-240l-101 -638h-90z"/>
			<glyph glyph-name="uni0420" unicode="&#x420;"
			       d="M154 720h243q49 0 86.5 -15t61.5 -43t34 -66.5t2 -85.5q-8 -48 -29.5 -87t-53.5 -66.5t-74.5 -42t-92.5 -14.5h-153l-48 -300h-90zM190 380h153q56 0 96 35.5t49 94.5t-19.5 94.5t-84.5 35.5h-153z"/>
			<glyph glyph-name="uni0421" unicode="&#x421;"
			       d="M254 -10q-102 0 -150.5 55.5t-33.5 154.5l50 320q8 49 29 88t54 66t75.5 41.5t93.5 14.5q91 0 141 -52t46 -143h-88q2 54 -28 85.5t-84 31.5q-60 0 -100.5 -37t-50.5 -100l-49 -310q-10 -64 19 -100.5t89 -36.5q55 0 94.5 31.5t53.5 85.5h88q-25 -93 -90.5 -144
t-158.5 -51z"/>
			<glyph glyph-name="uni0422" unicode="&#x422;"
			       d="M109 720h510l-12 -79h-209l-102 -641h-92l102 641h-209z"/>
			<glyph glyph-name="uni0423" unicode="&#x423;"
			       d="M104 720h95l86 -347q6 -22 8.5 -42t3.5 -35q1 -18 1 -33h7q2 15 7 33q4 15 11.5 34.5t18.5 42.5l182 347h100l-387 -720h-96l104 189z"/>
			<glyph glyph-name="uni0424" unicode="&#x424;"
			       d="M215 45q-46 0 -82 15t-59.5 42t-32 65.5t-1.5 85.5l37 234q8 48 29 87.5t52.5 67t72.5 43t88 15.5l10 65h84l-10 -65q47 0 83 -15.5t58.5 -43t31.5 -67t1 -87.5l-37 -234q-7 -47 -28.5 -85.5t-53 -65.5t-72 -42t-87.5 -15l-10 -65h-84zM124 253q-9 -60 19 -96t84 -36
l80 503q-56 0 -96 -37.5t-50 -99.5zM311 121q56 0 96 36t49 96l37 234q10 62 -18 99.5t-84 37.5z"/>
			<glyph glyph-name="uni0425" unicode="&#x425;"
			       d="M258 367l-143 353h104l80 -209q5 -11 9 -22.5t7 -21.5l6 -20h3q6 9 13 20q6 9 13.5 20.5t15.5 23.5l148 209h99l-254 -347l151 -373h-103l-89 229q-5 12 -8.5 23.5t-6.5 20.5q-3 11 -6 21h-3q-6 -10 -13 -21q-6 -9 -13.5 -20.5t-15.5 -22.5l-162 -230h-100z"/>
			<glyph glyph-name="uni0426" unicode="&#x426;"
			       d="M154 720h90l-101 -640h230l101 640h90l-101 -640h75l-35 -220h-80l22 140h-405z"/>
			<glyph glyph-name="uni0427" unicode="&#x427;"
			       d="M270 255q-95 0 -141 54t-32 146l42 265h90l-42 -265q-9 -55 21 -87.5t90 -32.5q35 0 60 5t40 10q19 7 30 15l56 355h90l-114 -720h-90l36 225q2 11 3.5 22t3.5 20q2 10 4 19q-15 -9 -36 -15q-19 -6 -46 -11t-65 -5z"/>
			<glyph glyph-name="uni0428" unicode="&#x428;"
			       d="M117 720h90l-101 -640h112l101 640h90l-101 -640h112l101 640h90l-114 -720h-494z"/>
			<glyph glyph-name="uni0429" unicode="&#x429;"
			       d="M117 720h90l-102 -642h107l102 642h90l-102 -642h107l102 642h90l-102 -642h38l-34 -218h-80l22 140h-442z"/>
			<glyph glyph-name="uni042A" unicode="&#x42a;"
			       d="M74 720h200l-46 -292h135q49 0 87 -15.5t62.5 -44t34.5 -68t2 -86.5q-16 -100 -83.5 -157t-170.5 -57h-225l101 638h-110zM173 82h130q60 0 102 36t51 96q9 59 -21.5 95.5t-89.5 36.5h-130z"/>
			<glyph glyph-name="uni042B" unicode="&#x42b;"
			       d="M-5 0l114 720h90l-46 -292h65q47 0 83 -14.5t59.5 -40.5t32.5 -63t3 -82l-4 -29q-6 -45 -27 -81.5t-53 -62.5t-73.5 -40.5t-88.5 -14.5h-155zM415 0l114 720h90l-114 -720h-90zM98 80h65q54 0 92.5 33t46.5 87l4 28q8 54 -19.5 87t-81.5 33h-65z"/>
			<glyph glyph-name="uni042C" unicode="&#x42c;"
			       d="M40 0l114 720h90l-46 -292h150q49 0 87 -15.5t62.5 -44t34.5 -68t2 -86.5q-16 -100 -83.5 -157t-170.5 -57h-240zM288 82q60 0 102 36t51 96q9 59 -21.5 95.5t-89.5 36.5h-145l-42 -264h145z"/>
			<glyph glyph-name="uni042D" unicode="&#x42d;"
			       d="M242 -10q-94 0 -143.5 51.5t-45.5 143.5h90q-2 -54 27.5 -84.5t84.5 -30.5q61 0 101.5 36t50.5 99l19 120h-248l12 80h249l17 110q10 63 -19.5 99t-89.5 36q-55 0 -94.5 -30.5t-53.5 -84.5h-90q25 92 91 143.5t160 51.5q103 0 152 -56t34 -154l-50 -320q-7 -49 -28.5 -88
t-54.5 -66t-76.5 -41.5t-94.5 -14.5z"/>
			<glyph glyph-name="uni042E" unicode="&#x42e;"
			       d="M-30 0l114 720h90l-48 -304h100l20 124q7 43 25.5 78t47 60t64.5 38.5t78 13.5t74 -13.5t52 -38.5t28 -60t1 -78l-57 -360q-7 -43 -26 -78t-47.5 -60t-64.5 -38.5t-78 -13.5t-73.5 13.5t-52 38.5t-28 60t-0.5 78l24 154h-100l-53 -334h-90zM279 180q-8 -54 13 -82t64 -28
t74 28t39 82l57 360q8 54 -13.5 82t-64.5 28t-73.5 -28t-38.5 -82z"/>
			<glyph glyph-name="uni042F" unicode="&#x42f;"
			       d="M3 0l200 311q-62 20 -91 72.5t-18 126.5q8 48 29 87t53.5 66.5t75 42t92.5 14.5h230l-114 -720h-90l48 300h-120l-189 -300h-106zM290 380h140l41 260h-140q-56 0 -95 -35.5t-49 -94.5t18 -94.5t85 -35.5z"/>
			<glyph glyph-name="uni0430" unicode="&#x430;"
			       d="M59 205l22 140q8 49 27 88.5t47 67.5t64 43.5t77 15.5q60 0 92 -28t37 -77h8l15 95h83l-68 -433q-4 -20 5.5 -31t27.5 -11h43l-12 -78h-64q-43 0 -67.5 27.5t-19.5 70.5h-8q-20 -49 -61.5 -77t-101.5 -28q-83 0 -122 58.5t-24 156.5zM250 68q52 0 88 33t49 92l25 161
q7 60 -18.5 94t-78.5 34q-59 0 -97.5 -36.5t-48.5 -100.5l-22 -140q-10 -64 17 -100.5t86 -36.5z"/>
			<glyph glyph-name="uni0431" unicode="&#x431;"
			       d="M248 -10q-103 0 -152 57t-33 158l38 240q11 67 37 120t66 89.5t92.5 56t114.5 19.5h150l-15 -90h-150q-40 0 -74.5 -13.5t-61 -39t-44.5 -61.5t-25 -81l-8 -45h10q12 28 34 50q20 19 51.5 34.5t80.5 15.5q89 0 130.5 -55.5t26.5 -154.5l-13 -85q-16 -102 -83.5 -158.5
t-171.5 -56.5zM153 205q-10 -63 19 -99t89 -36q61 0 101.5 36t50.5 99l13 85q10 63 -19 99t-90 36q-60 0 -100.5 -36t-50.5 -99z"/>
			<glyph glyph-name="uni0432" unicode="&#x432;"
			       d="M220 0q-40 0 -71.5 12t-51.5 34.5t-28 54t-2 69.5l60 380h247q86 0 127 -38.5t30 -107.5q-8 -51 -43 -81t-92 -33l-1 -6q63 -1 91.5 -33.5t18.5 -93.5q-12 -75 -68 -115t-147 -42h-70zM156 169q-6 -41 14.5 -65.5t61.5 -24.5h71q48 0 77 21t35 59q6 39 -16.5 60t-70.5 21
h-161zM179 318h158q42 0 69.5 20t32.5 56t-14.5 56.5t-62.5 20.5h-158z"/>
			<glyph glyph-name="uni0433" unicode="&#x433;"
			       d="M230 -10q-98 0 -144.5 43.5t-34.5 120.5q11 72 58 111t138 52l85 12q45 6 67.5 22.5t27.5 48.5q7 40 -19 60t-77 20h-28q-41 0 -71.5 -16.5t-40.5 -42.5h-95q10 31 30.5 56.5t49.5 44t64.5 28.5t75.5 10h28q94 0 140 -41t34 -115q-11 -70 -57 -109t-129 -51l-85 -12
q-95 -14 -105 -79q-6 -38 20.5 -60.5t80.5 -22.5h28q45 0 78.5 18t44.5 47h95q-9 -33 -30 -59.5t-51 -45.5t-68.5 -29.5t-81.5 -10.5h-28z"/>
			<glyph glyph-name="uni0434" unicode="&#x434;"
			       d="M63 205l12 80q15 100 73.5 155t149.5 55q49 0 76 -15.5t40 -34.5q16 -22 19 -50h10l7 45q14 90 -24.5 140t-120.5 50h-150l14 90h150q109 0 167.5 -57t58.5 -160q0 -15 -1 -30.5t-4 -32.5l-37 -235q-16 -103 -83 -159t-172 -56q-51 0 -89.5 15t-62.5 42.5t-32.5 67.5
t-0.5 90zM261 70q60 0 100.5 36t51.5 99l12 80q10 63 -19 99t-89 36q-61 0 -101.5 -36t-50.5 -99l-12 -80q-11 -63 18 -99t90 -36z"/>
			<glyph glyph-name="uni0435" unicode="&#x435;"
			       d="M248 -10q-50 0 -88 14.5t-62 42t-33 66.5t-1 87l23 150q8 49 29 88t54 66t75.5 41.5t93.5 14.5q100 0 149.5 -56.5t34.5 -153.5l-16 -101h-347l-7 -44q-11 -64 18.5 -100.5t89.5 -36.5q45 0 80.5 15t55.5 42h88q-27 -63 -90.5 -99t-146.5 -36zM431 322l4 28
q9 63 -19.5 97.5t-89.5 34.5t-101.5 -34.5t-49.5 -97.5l-4 -28h260z"/>
			<glyph glyph-name="uni0436" unicode="&#x436;"
			       d="M122 283l-72 267h85l59 -236h66l37 236h80l-37 -236h59l134 236h91l-156 -266l77 -284h-87l-62 246h-67l-39 -246h-80l39 246h-60l-139 -246h-95z"/>
			<glyph glyph-name="uni0437" unicode="&#x437;"
			       d="M218 -7q-85 0 -135.5 37t-50.5 100h93q2 -26 30.5 -41.5t75.5 -15.5h57q49 0 80 23t37 60q7 40 -16.5 63t-74.5 23h-142l13 78h139q46 0 73.5 22t32.5 58q5 37 -15 57t-65 20h-60q-41 0 -72.5 -18t-41.5 -44h-95q10 31 30.5 57t50 45t65 29.5t75.5 10.5h60
q88 0 132 -40.5t32 -111.5q-8 -50 -44.5 -81t-95.5 -35l-1 -4q70 -5 97 -38t17 -95q-12 -75 -71.5 -117t-152.5 -42h-57z"/>
			<glyph glyph-name="uni0438" unicode="&#x438;"
			       d="M63 179l59 371h88l-55 -351q-11 -63 14.5 -98t81.5 -35q57 0 95.5 32t50.5 87l58 365h88l-87 -550h-83l15 95h-8q-20 -50 -64.5 -77.5t-103.5 -27.5q-81 0 -121.5 51.5t-27.5 137.5z"/>
			<glyph glyph-name="uni0439" unicode="&#x439;"
			       d="M63 179l59 371h88l-55 -351q-11 -63 14.5 -98t81.5 -35q57 0 95.5 32t50.5 87l58 365h88l-87 -550h-83l15 95h-8q-20 -50 -64.5 -77.5t-103.5 -27.5q-81 0 -121.5 51.5t-27.5 137.5zM194 790h74q-6 -32 16 -51t66 -19q45 0 73 18.5t34 51.5h77q-5 -31 -21.5 -56
t-42 -42.5t-58.5 -27t-72 -9.5q-37 0 -66.5 10t-49 28t-27.5 42.5t-3 54.5z"/>
			<glyph glyph-name="uni043A" unicode="&#x43a;"
			       d="M43 0l87 550h90l-36 -230h107l203 230h105l-239 -274l155 -276h-104l-131 240h-109l-38 -240h-90z"/>
			<glyph glyph-name="uni043B" unicode="&#x43b;"
			       d="M-31 -5l13 84h19q23 0 40 8.5t29.5 27.5t22.5 51t18 78l54 306h382l-87 -550h-90l74 468h-203l-41 -228q-12 -66 -29.5 -112.5t-42.5 -76t-58.5 -43t-77.5 -13.5h-23z"/>
			<glyph glyph-name="uni043C" unicode="&#x43c;"
			       d="M107 550h112l57 -219q4 -11 6 -25.5t4 -26.5q2 -15 3 -29h6q6 14 13 29q6 12 12.5 26.5t12.5 25.5l122 219h112l-87 -550h-83l53 335q2 16 6.5 36t9.5 39l12 44h-6q-12 -23 -23 -45q-9 -19 -20 -39t-19 -35l-89 -160h-84l-39 160q-3 16 -7.5 36.5t-8.5 38.5q-4 22 -9 45
h-5q-2 -22 -3 -44q-2 -18 -4 -38.5t-5 -37.5l-53 -335h-83z"/>
			<glyph glyph-name="uni043D" unicode="&#x43d;"
			       d="M40 0l87 550h90l-37 -232h240l37 232h90l-87 -550h-90l37 236h-240l-37 -236h-90z"/>
			<glyph glyph-name="uni043E" unicode="&#x43e;"
			       d="M248 -10q-103 0 -152 57t-33 158l22 140q8 50 29.5 89.5t54.5 67.5t76 43t94 15q103 0 152.5 -56.5t33.5 -157.5l-22 -141q-17 -100 -84.5 -157.5t-170.5 -57.5zM153 205q-10 -63 18.5 -99t89.5 -36q60 0 101 36t51 99l22 140q10 63 -19.5 99t-89.5 36t-100.5 -36
t-50.5 -99z"/>
			<glyph glyph-name="uni043F" unicode="&#x43f;"
			       d="M127 550h420l-87 -550h-90l74 468h-240l-74 -468h-90z"/>
			<glyph glyph-name="uni0440" unicode="&#x440;"
			       d="M11 -170l114 720h85l-15 -95h8q21 50 65.5 77.5t105.5 27.5q42 0 73.5 -15.5t51 -44t27 -68t-0.5 -87.5l-22 -140q-16 -102 -74.5 -158.5t-145.5 -56.5q-61 0 -96.5 27.5t-40.5 77.5h-8q-1 -17 -3 -34q-1 -15 -3 -31t-4 -30l-27 -170h-90zM262 68q60 0 100.5 37t50.5 100
l22 140q11 65 -18 101t-90 36q-56 0 -95 -37t-49 -100l-22 -140q-11 -63 17 -100t84 -37z"/>
			<glyph glyph-name="uni0441" unicode="&#x441;"
			       d="M255 -10q-49 0 -86.5 15.5t-61.5 43.5t-33 67.5t-2 88.5l22 140q16 101 82.5 158t169.5 57q43 0 78.5 -13.5t60.5 -38.5t38.5 -58.5t12.5 -74.5h-90q2 47 -30 76t-83 29q-60 0 -100.5 -36t-50.5 -99l-22 -140q-10 -63 18.5 -99t89.5 -36q55 0 94 28t53 77h90
q-26 -88 -91 -136.5t-159 -48.5z"/>
			<glyph glyph-name="uni0442" unicode="&#x442;"
			       d="M82 550h510l-12 -79h-209l-75 -471h-92l75 471h-209z"/>
			<glyph glyph-name="uni0443" unicode="&#x443;"
			       d="M85 239l49 311h88l-46 -291q-10 -63 16.5 -99t83.5 -36t96 35.5t48 95.5l47 295h88l-88 -542q-14 -85 -69.5 -131.5t-146.5 -46.5h-146l12 78h146q48 0 78 26t38 74l9 52l20 95h-6q-21 -50 -65 -77.5t-103 -27.5q-81 0 -121.5 51.5t-27.5 137.5z"/>
			<glyph glyph-name="uni0444" unicode="&#x444;"
			       d="M217 15q-97 0 -145 54.5t-33 147.5l22 138q8 46 28.5 83t52 63t72.5 40t89 14l4 26q11 66 57 102.5t119 36.5h80l-11 -70h-80q-33 0 -56.5 -19t-28.5 -51l-4 -25q97 0 145 -53.5t33 -146.5l-22 -138q-15 -94 -79.5 -147.5t-161.5 -54.5l-6 -40q-10 -66 -56.5 -105.5
t-112.5 -39.5h-80l11 70h80q29 0 50.5 20.5t26.5 54.5zM119 217q-10 -62 19.5 -97t89.5 -35l64 400q-60 0 -100.5 -34.5t-50.5 -95.5zM309 85q61 0 100.5 35t49.5 97l22 138q10 61 -19.5 95.5t-89.5 34.5z"/>
			<glyph glyph-name="uni0445" unicode="&#x445;"
			       d="M242 284l-145 266h98l89 -175q8 -14 11 -25l4 -10h4q3 5 7 10t8.5 11.5t10.5 13.5l142 175h107l-230 -269l154 -281h-99l-95 186q-3 7 -6.5 13.5t-5.5 12.5q-3 7 -6 13h-4q-4 -7 -8 -13t-8.5 -13t-9.5 -13l-156 -186h-104z"/>
			<glyph glyph-name="uni0446" unicode="&#x446;"
			       d="M67 170l60 380h90l-60 -380q-7 -41 14 -65.5t62 -24.5h140l74 470h90l-74 -470h75l-35 -220h-80l22 140h-225q-40 0 -71.5 12t-51.5 34.5t-28 54t-2 69.5z"/>
			<glyph glyph-name="uni0447" unicode="&#x447;"
			       d="M255 155q-95 0 -141.5 54t-32.5 146l31 195h90l-31 -195q-9 -55 21 -87.5t90 -32.5q35 0 60 5t40 10q19 7 30 15l45 285h90l-87 -550h-90l20 125l4 22t4 20q2 10 4 19q-15 -9 -36 -15q-19 -6 -46 -11t-65 -5z"/>
			<glyph glyph-name="uni0448" unicode="&#x448;"
			       d="M35 160l62 390h80l-62 -390q-7 -41 14 -65.5t62 -24.5h30l76 480h80l-76 -480h120l76 480h80l-87 -550h-310q-77 0 -116.5 44t-28.5 116z"/>
			<glyph glyph-name="uni0449" unicode="&#x449;"
			       d="M35 160l62 390h80l-62 -390q-7 -41 14 -65.5t62 -24.5h29l76 480h80l-76 -480h109l76 480h80l-76 -480h37l-33 -210h-80l22 140h-255q-77 0 -116.5 44t-28.5 116z"/>
			<glyph glyph-name="uni044A" unicode="&#x44a;"
			       d="M24 470l13 80h220l-32 -202h149q93 0 138 -46t31 -128q-14 -83 -72 -128.5t-152 -45.5h-45q-94 0 -137 45.5t-30 128.5l47 296h-130zM289 82h42q49 0 80.5 24t38.5 68t-17 68t-73 24h-148l-15 -92q-8 -45 16 -68.5t76 -23.5z"/>
			<glyph glyph-name="uni044B" unicode="&#x44b;"
			       d="M35 143l64 407h83l-32 -202h80q75 0 113.5 -41t27.5 -109l-8 -54q-5 -33 -21.5 -61t-41 -47.5t-57 -30.5t-68.5 -11q-73 0 -111.5 41t-28.5 108zM405 0l87 550h83l-87 -550h-83zM186 64q35 0 62 22.5t32 57.5l8 54q5 36 -13.5 58t-55.5 22h-80l-21 -135q-5 -35 14 -57
t54 -22z"/>
			<glyph glyph-name="uni044C" unicode="&#x44c;"
			       d="M70 174l59 376h88l-32 -202h175q94 0 135.5 -45t27.5 -129q-14 -83 -69 -128.5t-149 -45.5h-70q-94 0 -136 45.5t-29 128.5zM250 80h63q53 0 84 24.5t38 69.5t-16.5 69.5t-75.5 24.5h-170l-15 -94q-8 -45 16 -69.5t76 -24.5z"/>
			<glyph glyph-name="uni044D" unicode="&#x44d;"
			       d="M240 -10q-90 0 -140 45.5t-52 129.5h90q3 -45 33.5 -70t81.5 -25q61 0 101 36t51 99l6 35h-198l13 80h197l4 25q10 63 -19.5 99t-89.5 36q-51 0 -89.5 -25t-55.5 -70h-90q29 85 93 130t155 45q50 0 88.5 -15t62.5 -42t33.5 -66t1.5 -87l-5 -30h1l-11 -65l-8 -55
q-15 -101 -81.5 -155.5t-172.5 -54.5z"/>
			<glyph glyph-name="uni044E" unicode="&#x44e;"
			       d="M-10 0l87 550h80l-37 -235h100l10 65q14 86 64.5 133t134.5 47t119.5 -47t21.5 -133l-33 -210q-14 -86 -64.5 -133t-134.5 -47t-119.5 47t-21.5 133l12 73h-100l-39 -243h-80zM277 170q-8 -54 11 -82t62 -28t71 28t36 82l33 210q8 54 -10.5 82t-61.5 28t-71.5 -28
t-36.5 -82z"/>
			<glyph glyph-name="uni044F" unicode="&#x44f;"
			       d="M183 212q-61 15 -90 57.5t-18 107.5q14 81 73.5 127t153.5 46h245l-87 -550h-90l33 205h-128l-164 -205h-106zM167 377q-7 -43 17.5 -67.5t75.5 -24.5h155l29 185h-155q-51 0 -83 -24.5t-39 -68.5z"/>
			<glyph glyph-name="uni0451" unicode="&#x451;"
			       d="M248 -10q-50 0 -88 14.5t-62 42t-33 66.5t-1 87l23 150q8 49 29 88t54 66t75.5 41.5t93.5 14.5q100 0 149.5 -56.5t34.5 -153.5l-16 -101h-347l-7 -44q-11 -64 18.5 -100.5t89.5 -36.5q45 0 80.5 15t55.5 42h88q-27 -63 -90.5 -99t-146.5 -36zM431 322l4 28
q9 63 -19.5 97.5t-89.5 34.5t-101.5 -34.5t-49.5 -97.5l-4 -28h260zM416 727q5 27 24.5 43.5t46.5 16.5t40.5 -16.5t8.5 -43.5t-24 -43.5t-46 -16.5t-41 16.5t-9 43.5zM216 727q5 27 24.5 43.5t46.5 16.5t40.5 -16.5t8.5 -43.5t-24 -43.5t-46 -16.5t-41 16.5t-9 43.5z"/>
			<glyph glyph-name="uni0452" unicode="&#x452;"
			       d="M125 550h-68l12 75h68l17 105h90l-17 -105h102l-12 -75h-102l-8 -50q-2 -14 -5.5 -30.5t-6.5 -30.5l-8 -34h8q21 50 65 77.5t103 27.5q82 0 122 -51.5t29 -137.5l-47 -296q-7 -44 -27.5 -80t-51 -61.5t-70.5 -39.5t-87 -14h-70l13 82h70q54 0 89.5 30t43.5 83l44 276
q10 63 -16.5 98t-83.5 35t-96 -34.5t-49 -94.5l-48 -305h-90z"/>
			<glyph glyph-name="uni0453" unicode="&#x453;"
			       d="M230 -10q-98 0 -144.5 43.5t-34.5 120.5q11 72 58 111t138 52l85 12q45 6 67.5 22.5t27.5 48.5q7 40 -19 60t-77 20h-28q-41 0 -71.5 -16.5t-40.5 -42.5h-95q10 31 30.5 56.5t49.5 44t64.5 28.5t75.5 10h28q94 0 140 -41t34 -115q-11 -70 -57 -109t-129 -51l-85 -12
q-95 -14 -105 -79q-6 -38 20.5 -60.5t80.5 -22.5h28q45 0 78.5 18t44.5 47h95q-9 -33 -30 -59.5t-51 -45.5t-68.5 -29.5t-81.5 -10.5h-28zM461.091 796h-109.994l-109.119 -146h89.9951z"/>
			<glyph glyph-name="uni0454" unicode="&#x454;"
			       d="M54 200l23 150q8 48 29.5 87t54.5 66t76.5 42t93.5 15q91 0 140.5 -45t51.5 -130h-90q-3 45 -33.5 70t-81.5 25q-60 0 -100.5 -36t-50.5 -99l-4 -25h197l-13 -80h-196l-6 -35q-11 -63 18 -99t90 -36q51 0 89.5 25t55.5 70h90q-28 -84 -93 -129.5t-155 -45.5
q-106 0 -154 54.5t-32 155.5z"/>
			<glyph glyph-name="uni0455" unicode="&#x455;"
			       d="M53 135h88q2 -29 30.5 -47t74.5 -18h28q54 0 87.5 22.5t39.5 61.5q11 67 -79 80l-81 12q-155 22 -133 158q12 74 69.5 115t151.5 41h28q78 0 124.5 -37.5t46.5 -101.5h-88q-2 27 -28 43t-68 16h-28q-51 0 -82 -20t-38 -60q-5 -32 11.5 -49.5t59.5 -23.5l81 -12
q83 -12 117.5 -52t23.5 -109q-12 -78 -71.5 -121t-156.5 -43h-28q-85 0 -134 39.5t-46 105.5z"/>
			<glyph glyph-name="uni0456" unicode="&#x456;"
			       d="M45 0l13 82h200l61 386h-175l13 82h265l-74 -468h165l-13 -82h-455zM311 703q5 28 25.5 45t49.5 17h20q29 0 45 -17t11 -44t-25.5 -43t-49.5 -16h-20q-29 0 -44.5 15.5t-11.5 42.5z"/>
			<glyph glyph-name="uni0457" unicode="&#x457;"
			       d="M426 727q5 27 24.5 43.5t46.5 16.5t40.5 -16.5t8.5 -43.5t-24 -43.5t-46 -16.5t-41 16.5t-9 43.5zM226 727q5 27 24.5 43.5t46.5 16.5t40.5 -16.5t8.5 -43.5t-24 -43.5t-46 -16.5t-41 16.5t-9 43.5zM58 82h200l61 386h-175l13 82h265l-74 -468h165l-13 -82h-455z"/>
			<glyph glyph-name="uni0458" unicode="&#x458;"
			       d="M8 -170l13 83h120q32 0 59 10t48.5 28t35.5 43.5t19 55.5l66 418h-230l13 82h320l-79 -500q-7 -48 -30.5 -88.5t-59 -70t-80 -45.5t-95.5 -16h-120zM422 645q-29 0 -44.5 15.5t-11.5 42.5q4 28 25 45t50 17h20q29 0 44.5 -17t11.5 -44t-25 -43t-50 -16h-20z"/>
			<glyph glyph-name="uni0459" unicode="&#x459;"
			       d="M-32 80h18q25 0 45 31t29 83l60 356h287l-32 -200h70q68 0 103 -39.5t25 -104.5l-12 -71q-11 -63 -57.5 -101.5t-114.5 -38.5t-103 38t-25 101l54 339h-127l-47 -279q-15 -91 -61 -145t-111 -54h-15zM341 134q-5 -31 11 -50t48 -19t54 19t27 51l12 71q5 32 -11 51t-48 19
h-70z"/>
			<glyph glyph-name="uni045A" unicode="&#x45a;"
			       d="M3 0l87 550h80l-32 -200h147l32 200h80l-32 -200h60q36 0 64 -11t46 -31.5t25 -49t1 -63.5l-8 -50q-11 -68 -58.5 -109t-115.5 -41q-34 0 -59.5 11t-42 30.5t-23 47t-1.5 60.5l21 131h-147l-44 -275h-80zM333 144q-6 -35 9.5 -57t47.5 -22t54.5 22t28.5 58l8 50
q6 36 -12.5 58t-54.5 22h-60z"/>
			<glyph glyph-name="uni045B" unicode="&#x45b;"
			       d="M38 0l87 550h-68l12 75h68l17 105h90l-17 -105h102l-12 -75h-102l-8 -50q-2 -14 -5.5 -30.5t-6.5 -30.5l-8 -34h8q21 50 65 77.5t103 27.5q41 0 72 -14t51 -39.5t27 -61t0 -79.5l-50 -316h-90l48 301q10 63 -16.5 98t-83.5 35t-96 -37.5t-50 -101.5l-47 -295h-90z"/>
			<glyph glyph-name="uni045C" unicode="&#x45c;"
			       d="M43 0l87 550h90l-36 -230h107l203 230h105l-239 -274l155 -276h-104l-131 240h-109l-38 -240h-90zM451.091 796h-109.994l-109.119 -146h89.9951z"/>
			<glyph glyph-name="uni045E" unicode="&#x45e;"
			       d="M85 239l49 311h88l-46 -291q-10 -63 16.5 -99t83.5 -36t96 35.5t48 95.5l47 295h88l-88 -542q-14 -85 -69.5 -131.5t-146.5 -46.5h-146l12 78h146q48 0 78 26t38 74l9 52l20 95h-6q-21 -50 -65 -77.5t-103 -27.5q-81 0 -121.5 51.5t-27.5 137.5zM209 790h74
q-6 -32 16 -51t66 -19q45 0 73 18.5t34 51.5h77q-5 -31 -21.5 -56t-42 -42.5t-58.5 -27t-72 -9.5q-37 0 -66.5 10t-49 28t-27.5 42.5t-3 54.5z"/>
			<glyph glyph-name="uni045F" unicode="&#x45f;"
			       d="M127 550h90l-74 -468h240l74 468h90l-87 -550h-165l-20 -125h-90l20 125h-165z"/>
			<glyph glyph-name="uni0490" unicode="&#x490;"
			       d="M514 720l17 105h85l-30 -187h-340l-101 -638h-90l114 720h345z"/>
			<glyph glyph-name="uni0491" unicode="&#x491;"
			       d="M487 550l17 105h85l-30 -187h-340l-74 -468h-90l87 550h345z"/>
			<glyph glyph-name="uni04AE" unicode="&#x4ae;"
			       d="M187 720l98 -317q5 -14 7 -28t4 -25q2 -13 3 -26h4q5 13 12 26q5 11 12.5 25t15.5 28l193 317h98l-299 -470l-40 -250h-90l40 250l-151 470h93z"/>
			<glyph glyph-name="uni04AF" unicode="&#x4af;"
			       d="M160 550l98 -317q5 -14 7 -28t4 -25q2 -13 3 -26h4q5 13 12 26q5 11 12.5 25t15.5 28l193 317h98l-299 -470l-40 -250h-90l40 250l-151 470h93z"/>
			<glyph glyph-name="uni04E8" unicode="&#x4e8;"
			       d="M248 -10q-102 0 -151.5 58t-33.5 157l49 310q8 49 29.5 89t54.5 68t76 43t94 15t89 -15t62.5 -43t33.5 -68t1 -89l-49 -310q-8 -49 -30 -88.5t-55 -67.5t-76.5 -43.5t-93.5 -15.5zM153 205q-10 -62 19 -98.5t89 -36.5t101 36.5t51 98.5l18 115h-260zM444 405l18 110
q10 62 -19.5 98.5t-89.5 36.5t-100.5 -36.5t-50.5 -98.5l-18 -110h260z"/>
			<glyph glyph-name="uni04E9" unicode="&#x4e9;"
			       d="M248 -10q-102 0 -151.5 57.5t-33.5 157.5l22 140q8 50 29.5 89.5t54.5 67.5t76 43t94 15q102 0 152 -57t34 -157l-22 -141q-17 -100 -84.5 -157.5t-170.5 -57.5zM153 205q-11 -63 18 -99t90 -36q60 0 100.5 36t51.5 99l5 35h-260zM430 315l5 30q11 63 -19 99t-90 36
t-100 -36t-51 -99l-5 -30h260z"/>
			<glyph glyph-name="Wgrave" unicode="&#x1e80;"
			       d="M89 720h85l-36 -526q-2 -23 -4.5 -47.5t-4.5 -44.5q-3 -24 -6 -47h13q4 23 10 47q5 20 10.5 44.5t12.5 47.5l151 526h88l-17 -526q-1 -22 -2.5 -46.5t-3.5 -45.5q-2 -24 -4 -47h14q5 23 10 47q5 20 11 44.5t11 47.5l129 526h82l-186 -720h-128l22 529q2 58 8.5 95.5
t7.5 37.5h-17q-2 -17 -6 -38q-3 -17 -8 -41.5t-13 -53.5l-145 -529h-128zM245 956h110l86 -146h-90z"/>
			<glyph glyph-name="wgrave" unicode="&#x1e81;"
			       d="M67 550h79l-11 -377q0 -18 -1 -40t-3 -41q-1 -22 -3 -44h11l12 44q5 19 11.5 41t11.5 40l118 377h86l-2 -377q0 -19 -0.5 -41t-0.5 -41q-1 -22 -2 -43h12q5 22 11 44q5 19 11 40.5t11 40.5l110 377h79l-165 -550h-124l3 389q0 17 1.5 35.5t3.5 34.5q2 18 5 36h-13l-6 -36
q-3 -16 -7.5 -34.5t-9.5 -35.5l-119 -389h-119zM245 796h110l86 -146h-90z"/>
			<glyph glyph-name="Wacute" unicode="&#x1e82;"
			       d="M89 720h85l-36 -526q-2 -23 -4.5 -47.5t-4.5 -44.5q-3 -24 -6 -47h13q4 23 10 47q5 20 10.5 44.5t12.5 47.5l151 526h88l-17 -526q-1 -22 -2.5 -46.5t-3.5 -45.5q-2 -24 -4 -47h14q5 23 10 47q5 20 11 44.5t11 47.5l129 526h82l-186 -720h-128l22 529q2 58 8.5 95.5
t7.5 37.5h-17q-2 -17 -6 -38q-3 -17 -8 -41.5t-13 -53.5l-145 -529h-128zM451.091 956h-109.994l-109.119 -146h89.9951z"/>
			<glyph glyph-name="wacute" unicode="&#x1e83;"
			       d="M67 550h79l-11 -377q0 -18 -1 -40t-3 -41q-1 -22 -3 -44h11l12 44q5 19 11.5 41t11.5 40l118 377h86l-2 -377q0 -19 -0.5 -41t-0.5 -41q-1 -22 -2 -43h12q5 22 11 44q5 19 11 40.5t11 40.5l110 377h79l-165 -550h-124l3 389q0 17 1.5 35.5t3.5 34.5q2 18 5 36h-13l-6 -36
q-3 -16 -7.5 -34.5t-9.5 -35.5l-119 -389h-119zM451.091 796h-109.994l-109.119 -146h89.9951z"/>
			<glyph glyph-name="Wdieresis" unicode="&#x1e84;"
			       d="M89 720h85l-36 -526q-2 -23 -4.5 -47.5t-4.5 -44.5q-3 -24 -6 -47h13q4 23 10 47q5 20 10.5 44.5t12.5 47.5l151 526h88l-17 -526q-1 -22 -2.5 -46.5t-3.5 -45.5q-2 -24 -4 -47h14q5 23 10 47q5 20 11 44.5t11 47.5l129 526h82l-186 -720h-128l22 529q2 58 8.5 95.5
t7.5 37.5h-17q-2 -17 -6 -38q-3 -17 -8 -41.5t-13 -53.5l-145 -529h-128zM426 887q5 27 24.5 43.5t46.5 16.5t40.5 -16.5t8.5 -43.5t-24 -43.5t-46 -16.5t-41 16.5t-9 43.5zM226 887q5 27 24.5 43.5t46.5 16.5t40.5 -16.5t8.5 -43.5t-24 -43.5t-46 -16.5t-41 16.5t-9 43.5z
"/>
			<glyph glyph-name="wdieresis" unicode="&#x1e85;"
			       d="M67 550h79l-11 -377q0 -18 -1 -40t-3 -41q-1 -22 -3 -44h11l12 44q5 19 11.5 41t11.5 40l118 377h86l-2 -377q0 -19 -0.5 -41t-0.5 -41q-1 -22 -2 -43h12q5 22 11 44q5 19 11 40.5t11 40.5l110 377h79l-165 -550h-124l3 389q0 17 1.5 35.5t3.5 34.5q2 18 5 36h-13l-6 -36
q-3 -16 -7.5 -34.5t-9.5 -35.5l-119 -389h-119zM426 727q5 27 24.5 43.5t46.5 16.5t40.5 -16.5t8.5 -43.5t-24 -43.5t-46 -16.5t-41 16.5t-9 43.5zM226 727q5 27 24.5 43.5t46.5 16.5t40.5 -16.5t8.5 -43.5t-24 -43.5t-46 -16.5t-41 16.5t-9 43.5z"/>
			<glyph glyph-name="uni2010" unicode="&#x2010;"
			       d="M106 370h400l-12 -75h-400z"/>
			<glyph glyph-name="endash" unicode="&#x2013;"
			       d="M76 370h460l-12 -75h-460z"/>
			<glyph glyph-name="emdash" unicode="&#x2014;"
			       d="M21 370h570l-12 -75h-570z"/>
			<glyph glyph-name="quoteleft" unicode="&#x2018;"
			       d="M250 464l179 311h80l-129 -311h-130z"/>
			<glyph glyph-name="quoteright" unicode="&#x2019;"
			       d="M431 776l-179 -311h-80l129 311h130z"/>
			<glyph glyph-name="quotesinglbase" unicode="&#x201a;"
			       d="M393 151l-179 -311h-80l129 311h130z"/>
			<glyph glyph-name="quotedblleft" unicode="&#x201c;"
			       d="M545 775h80l-129 -311h-130zM91 464l179 311h80l-129 -311h-130z"/>
			<glyph glyph-name="quotedblright" unicode="&#x201d;"
			       d="M320 465l129 311h130l-179 -311h-80zM174 776h130l-179 -311h-80z"/>
			<glyph glyph-name="quotedblbase" unicode="&#x201e;"
			       d="M250 -160l129 311h130l-179 -311h-80zM104 151h130l-179 -311h-80z"/>
			<glyph glyph-name="dagger" unicode="&#x2020;"
			       d="M336 830h90l-149 -940h-90zM115 410h400l-12 -75h-400z"/>
			<glyph glyph-name="daggerdbl" unicode="&#x2021;"
			       d="M328 210l-51 -320h-90l51 320h-171l13 80h170l26 160h-171l13 80h170l48 300h90l-48 -300h180l-13 -80h-179l-26 -160h180l-13 -80h-179z"/>
			<glyph glyph-name="bullet" unicode="&#x2022;"
			       d="M181 355q4 26 17.5 49t33 40t44 26.5t50.5 9.5t47.5 -9.5t35.5 -26.5t20 -40t2 -49t-17.5 -49t-33 -40t-44 -26.5t-50.5 -9.5t-47.5 9.5t-35.5 26.5t-20 40t-2 49z"/>
			<glyph glyph-name="ellipsis" unicode="&#x2026;"
			       d="M430 45l11 70q4 25 20 40t39 15t34 -15t7 -40l-11 -70q-4 -25 -20 -40t-39 -15t-34 15t-7 40zM240 45l11 70q4 25 20 40t39 15t34 -15t7 -40l-11 -70q-4 -25 -20 -40t-39 -15t-34 15t-7 40zM50 45l11 70q4 25 20 40t39 15t34 -15t7 -40l-11 -70q-4 -25 -20 -40t-39 -15
t-34 15t-7 40z"/>
			<glyph glyph-name="perthousand" unicode="&#x2030;"
			       d="M187 105l15 90q9 53 42 81.5t82 28.5q29 0 44 -10t22 -22q9 -14 10 -32q7 18 20 32q11 12 30 22t47 10q49 0 74 -28.5t16 -81.5l-15 -90q-9 -53 -42 -81.5t-82 -28.5q-28 0 -43 10t-23 22q-9 14 -10 32q-7 -18 -20 -32q-11 -12 -29.5 -22t-47.5 -10q-49 0 -74 28.5
t-16 81.5zM33 555l7 45q9 56 43 90.5t97 34.5t86 -34.5t14 -90.5l-7 -45q-8 -56 -42.5 -90.5t-97.5 -34.5t-85.5 34.5t-14.5 90.5zM566 495v-57l-554 -158v57zM289 46q26 0 42.5 15t21.5 44l15 90q5 29 -7.5 44t-38.5 15q-25 0 -41.5 -14.5t-21.5 -44.5l-15 -90
q-5 -30 7.5 -44.5t37.5 -14.5zM454 46q25 0 41.5 14.5t21.5 44.5l15 90q5 30 -7.5 44.5t-37.5 14.5q-26 0 -42.5 -15t-21.5 -44l-15 -90q-5 -29 7.5 -44t38.5 -15zM142 485q19 0 32 6t21 16t12 22.5t6 25.5l7 45q5 29 -4.5 49.5t-44.5 20.5t-50.5 -20.5t-20.5 -49.5l-7 -45
q-5 -29 4.5 -49.5t44.5 -20.5z"/>
			<glyph glyph-name="minute" unicode="&#x2032;"
			       d="M375 776l-130 -311h-80l80 311h130z"/>
			<glyph glyph-name="second" unicode="&#x2033;"
			       d="M310 465l80 311h130l-130 -311h-80zM115 776h130l-130 -311h-80z"/>
			<glyph glyph-name="guilsinglleft" unicode="&#x2039;"
			       d="M389 520h109l-203 -204q-9 -9 -18 -15.5t-16 -11.5q-9 -5 -16 -8l-1 -2l8 -8q4 -5 9 -11.5t11 -15.5l144 -204h-102l-164 240z"/>
			<glyph glyph-name="guilsinglright" unicode="&#x203a;"
			       d="M306 244q17 17 34 27q8 5 15 8l1 2l-8 8l-21 27l-145 204h102l163 -240l-236 -240h-109z"/>
			<glyph glyph-name="fraction" unicode="&#x2044;"
			       d="M502 720h68l-459 -720h-69z"/>
			<glyph glyph-name="uni2070" unicode="&#x2070;"
			       d="M201 570l10 65q10 63 49.5 99t102.5 36t90.5 -36t17.5 -99l-10 -65q-10 -63 -49.5 -99t-102.5 -36t-90.5 36t-17.5 99zM318 490q38 0 58 23.5t25 56.5l10 65q6 37 -8 58.5t-49 21.5t-56 -21.5t-27 -58.5l-10 -65q-6 -37 8 -58.5t49 -21.5z"/>
			<glyph glyph-name="uni2074" unicode="&#x2074;"
			       d="M268 576l-3 -16h116l13 79h60l-32 -199h-60l11 70h-176l13 84l154 171h69z"/>
			<glyph glyph-name="uni2080" unicode="&#x2080;"
			       d="M201 85l10 65q10 63 49.5 99t102.5 36t90.5 -36t17.5 -99l-10 -65q-10 -63 -49.5 -99t-102.5 -36t-90.5 36t-17.5 99zM318 5q38 0 58 23.5t25 56.5l10 65q6 37 -8 58.5t-49 21.5t-56 -21.5t-27 -58.5l-10 -65q-6 -37 8 -58.5t49 -21.5z"/>
			<glyph glyph-name="uni2081" unicode="&#x2081;"
			       d="M194 4h118l29 183q4 24 8.5 35.5t4.5 12.5h-6q-5 -4 -10 -10q-5 -5 -12 -10.5t-16 -12.5l-70 -54l11 70l79 61h85l-43 -275h107l-8 -50h-285z"/>
			<glyph glyph-name="uni2082" unicode="&#x2082;"
			       d="M167 -45l11 65l130 70q39 21 59.5 40t23.5 41q4 29 -11 46.5t-44 17.5t-49.5 -17.5t-25.5 -46.5h-60q11 52 50 83t93 31q57 0 86 -30.5t21 -81.5q-5 -31 -29.5 -62.5t-70.5 -54.5l-102 -51l-2 -9q10 3 22 5q11 2 24 3t28 1h109l-8 -50h-255z"/>
			<glyph glyph-name="uni2083" unicode="&#x2083;"
			       d="M294 -50q-28 0 -50.5 8t-37.5 22t-21.5 33t-2.5 42h60q-4 -25 12.5 -40t47.5 -15q30 0 50.5 15t24.5 40t-11.5 40t-44.5 15h-30l9 60l103 64l1 7q-10 -3 -21 -5q-10 -2 -22 -4t-26 -2h-100l8 50h215l-10 -60l-64 -44q-8 -5 -17 -9.5t-17 -7.5q46 -5 70 -33t17 -71
q-8 -49 -46 -77t-97 -28z"/>
			<glyph glyph-name="uni2084" unicode="&#x2084;"
			       d="M268 91l-3 -16h116l13 79h60l-32 -199h-60l11 70h-176l13 84l154 171h69z"/>
			<glyph glyph-name="Euro" unicode="&#x20ac;"
			       d="M15 250l9 60h73l16 100h-73l9 60h73l8 50q16 99 83 154.5t169 55.5q91 0 141 -52t46 -143h-88q2 54 -28 85.5t-84 31.5q-60 0 -100.5 -37t-50.5 -100l-7 -45h158l-9 -60h-159l-15 -100h158l-9 -60h-159l-7 -45q-10 -64 19 -100.5t89 -36.5q55 0 94.5 31.5t53.5 85.5h88
q-25 -93 -90.5 -144t-158.5 -51q-102 0 -151 55.5t-33 154.5l8 50h-73z"/>
			<glyph glyph-name="uni20AE" unicode="&#x20ae;"
			       d="M63 210l184 48l16 100l-184 -48l12 75l184 48l33 208h-211l12 79h510l-12 -79h-211l-30 -184l184 48l-12 -75l-183 -48l-16 -100l183 48l-12 -75l-183 -48l-33 -207h-88l29 183l-184 -48z"/>
			<glyph glyph-name="uni20BD" unicode="&#x20bd;"
			       d="M3 145l13 80h80l13 85h-80l13 80h80l52 330h223q49 0 87 -14.5t62 -41.5t34 -64.5t2 -84.5q-7 -46 -29 -84t-54.5 -65t-75 -41.5t-91.5 -14.5h-133l-13 -85h230l-13 -80h-230l-23 -145h-90l23 145h-80zM212 390h133q57 0 96 34t48 91t-19.5 91t-85.5 34h-133z"/>
			<glyph glyph-name="uni2113" unicode="&#x2113;"
			       d="M61 288l107 38l38 249q6 35 21.5 63.5t39 49t54 31.5t65.5 11q70 0 105.5 -42.5t24.5 -112.5l-8 -54q-6 -39 -23.5 -74t-44 -65t-61 -53.5t-75.5 -38.5l-55 -20l-17 -110q-6 -37 11 -57.5t52 -20.5q21 0 40 9.5t34 21.5q16 13 31 30l61 -42q-20 -28 -47 -50
q-23 -20 -56.5 -35.5t-75.5 -15.5q-77 0 -114.5 42.5t-25.5 117.5l12 75l-76 -28zM288 369q55 20 88.5 59t41.5 92l8 55q5 33 -9.5 53t-43.5 20t-50.5 -20t-26.5 -53l-33 -215z"/>
			<glyph glyph-name="uni2116" unicode="&#x2116;"
			       d="M89 720h95l48 -443q2 -18 3 -49.5t2 -61.5q1 -36 1 -76h12l1 21.5t3 52.5t5 65.5t7 60.5l68 430h70l-114 -720h-95l-45 444q-2 23 -3.5 55t-2.5 61q-1 35 -1 71h-12l-4 -72q-2 -31 -5.5 -65.5t-8.5 -63.5l-68 -430h-70zM399 405l35 220q8 48 39.5 76.5t72.5 28.5
t63.5 -28.5t14.5 -76.5l-35 -220q-8 -48 -39 -76.5t-72 -28.5t-64 28.5t-15 76.5zM486 355q14 0 26 8.5t16 31.5l38 240q2 18 -6.5 29t-22.5 11t-26.5 -11t-14.5 -29l-38 -240q-4 -23 5 -31.5t23 -8.5z"/>
			<glyph glyph-name="trademark" unicode="&#x2122;"
			       d="M358 730h80l17 -102q2 -10 2.5 -21.5t0.5 -22.5q0 -12 -1 -24h6l6 24q3 11 7 22.5t9 21.5l50 102h78l-58 -360h-55l40 251q2 9 5 20.5t6 22.5q3 13 7 26h-9q-4 -14 -9 -26q-4 -11 -8 -23t-8 -21l-47 -110h-52l-15 111q-1 9 -1.5 20.5t-1.5 22.5q-1 13 -1 26h-8v-26
q0 -11 -0.5 -22.5t-2.5 -20.5l-40 -251h-55zM56 680l8 50h260l-8 -50h-100l-50 -310h-60l50 310h-100z"/>
			<glyph glyph-name="uni2126" unicode="&#x2126;"
			       d="M0 0l13 80h145l1 5q-31 6 -54 26q-19 17 -31.5 48.5t-4.5 85.5l43 270q8 49 29.5 89t54.5 68t76 43t94 15q102 0 151.5 -58t34.5 -157l-43 -270q-8 -54 -31 -85.5t-48 -48.5q-28 -19 -61 -25l-1 -6h146l-13 -80h-211l17 110q40 0 71 36.5t40 93.5l44 275
q10 62 -19.5 98.5t-89.5 36.5t-100.5 -36.5t-50.5 -98.5l-44 -275q-9 -57 10 -93.5t59 -36.5l-17 -110h-210z"/>
			<glyph glyph-name="estimated" unicode="&#x212e;"
			       d="M248 -10q-95 0 -149 56t-54 150q0 13 1.5 26.5t3.5 27.5l34 220q9 58 34.5 106t62.5 82t84 53t101 19q96 0 149 -55.5t53 -149.5q0 -14 -1 -27.5t-3 -27.5l-17 -111h-380l-41 -259q9 -18 27 -32q15 -13 40 -23t63 -10q60 0 113 30t81 80h50q-18 -35 -45 -63.5t-60 -49
t-70.5 -31.5t-76.5 -11zM175 409h280l33 211q-9 18 -26 33q-15 12 -40 22t-63 10t-66.5 -10t-47.5 -22q-22 -15 -37 -33z"/>
			<glyph glyph-name="arrowleft" unicode="&#x2190;"
			       d="M271 625h106l-162 -205q-7 -8 -14.5 -16.5t-14.5 -14.5l-16 -14v-9l24 2q11 1 23 1.5t23 0.5h330v-80h-330q-25 0 -46 3l-24 2v-9q7 -6 14 -13l14.5 -14.5t16.5 -19.5l162 -204h-105l-232 295z"/>
			<glyph glyph-name="arrowup" unicode="&#x2191;"
			       d="M10 378v105l291 247l289 -246v-105l-186 158q-15 13 -25 22.5t-17 16.5q-7 8 -12 14h-10q1 -12 3 -25q1 -11 1.5 -25.5t0.5 -29.5v-510h-90v510q0 15 0.5 29.5t2.5 25.5q1 13 2 25h-10q-5 -6 -12 -14q-7 -7 -17.5 -17t-25.5 -23z"/>
			<glyph glyph-name="arrowright" unicode="&#x2192;"
			       d="M40 290v80h330q11 0 23.5 -0.5t22.5 -1.5q12 -2 24 -3v9q-7 6 -14 13q-13 13 -31 34l-162 204h105l232 -295l-231 -295h-106l162 205q7 9 14.5 17t14.5 14l16 14v9l-24 -2q-10 -1 -22.5 -1.5t-23.5 -0.5h-330z"/>
			<glyph glyph-name="arrowdown" unicode="&#x2193;"
			       d="M10 236v105l186 -158q30 -25 42 -39q7 -8 12 -14h10q-1 12 -2 25q-3 23 -3 55v510h90v-510q0 -15 -0.5 -29.5t-1.5 -25.5q-2 -13 -3 -25h10q5 6 13 14q11 13 42 40l185 158v-105l-291 -247z"/>
			<glyph glyph-name="arrowboth" unicode="&#x2194;"
			       d="M151 625h106l-162 -205q-7 -8 -14.5 -16.5t-14.5 -14.5l-16 -14v-9l24 2q11 1 23 1.5t23 0.5h360q11 0 23.5 -0.5t22.5 -1.5q12 -2 24 -3v9q-7 6 -14 13q-13 13 -31 34l-162 204h105l232 -295l-231 -295h-106l162 205q7 9 14.5 17t14.5 14l16 14v9l-24 -2
q-10 -1 -22.5 -1.5t-23.5 -0.5h-360q-25 0 -46 3l-24 2v-9q7 -6 14 -13l14.5 -14.5t16.5 -19.5l162 -204h-105l-232 295z"/>
			<glyph glyph-name="arrowupdn" unicode="&#x2195;"
			       d="M10 181l186 -158q30 -26 42 -39q7 -8 12 -14h10q-1 12 -2 25q-3 23 -3 55v620q0 15 0.5 29.5t2.5 25.5q1 13 2 25h-10q-5 -6 -12 -14q-7 -7 -17.5 -17t-25.5 -23l-185 -158v105l290 247l290 -246v-105l-186 158q-15 13 -25 22.5t-17 16.5q-7 8 -12 14h-10q1 -12 3 -25
q1 -11 1.5 -25.5t0.5 -29.5v-620q0 -15 -0.5 -29.5t-1.5 -25.5q-2 -13 -3 -25h10q5 6 13 14q6 7 16.5 17t25.5 23l185 158v-105l-290 -247l-290 246v105z"/>
			<glyph glyph-name="uni2196" unicode="&#x2196;"
			       d="M45 620h415v-78h-195q-34 0 -57 3q-13 1 -23 2l-1 -7q8 -7 18 -14q15 -12 35 -32l353 -356l-61 -63l-355 358q-10 10 -18.5 20.5t-16.5 18.5q-8 10 -15 19l-7 -2q2 -12 4 -26q2 -11 3 -26.5t1 -32.5v-199h-80v415z"/>
			<glyph glyph-name="uni2197" unicode="&#x2197;"
			       d="M10 138l353 356q9 9 18.5 17.5t17.5 14.5q9 7 17 14l-1 7q-10 -1 -23 -2q-21 -3 -57 -3h-195v78h415v-415h-80v199q0 17 1 32.5t2 27.5q1 14 3 26l-7 2q-7 -9 -15 -19q-7 -8 -16 -18.5t-19 -20.5l-355 -358z"/>
			<glyph glyph-name="uni2198" unicode="&#x2198;"
			       d="M10 557l61 63l355 -358q10 -10 19 -20t16 -19q8 -10 15 -19l7 2q-2 12 -4 26q-2 11 -3 26.5t-1 32.5v199h80v-415h-415v78h195q17 0 31.5 -0.5t25.5 -1.5q13 -2 23 -3l1 7q-8 7 -17 14q-8 7 -17.5 15t-18.5 17z"/>
			<glyph glyph-name="uni2199" unicode="&#x2199;"
			       d="M45 490h80v-199q0 -17 -1 -32.5t-2 -27.5q-2 -15 -4 -27l7 -2q7 9 15 19q8 9 16.5 19t18.5 20l355 358l60 -61l-353 -356q-9 -9 -18 -17t-17 -15q-10 -7 -18 -14l1 -7q10 1 23 3q11 1 25.5 1.5t31.5 0.5h195v-78h-415v415z"/>
			<glyph glyph-name="partialdiff" unicode="&#x2202;"
			       d="M248 -10q-51 0 -89 14.5t-62.5 41.5t-33.5 66t-1 88l13 81q18 114 75.5 166.5t148.5 52.5q46 0 71.5 -13.5t39.5 -30.5q15 -20 20 -45h15q-2 19 -12 45q-8 22 -24.5 52.5t-45.5 68.5l-117 153h107l108 -140q32 -42 48.5 -93.5t16.5 -110.5q0 -35 -6 -71l-18 -115
q-7 -49 -28.5 -88t-54.5 -66t-76.5 -41.5t-94.5 -14.5zM152 200q-9 -61 19.5 -95.5t89.5 -34.5t101 34.5t50 95.5l13 81q11 66 -18.5 104.5t-89.5 38.5q-61 0 -102 -38.5t-51 -105.5z"/>
			<glyph glyph-name="uni2206" unicode="&#x2206;"
			       d="M5 0l12 75l282 645h126l72 -645l-12 -75h-480zM411 75l-51 488q-3 42 -3 69v28h-4l-9 -27q-5 -14 -11.5 -31.5t-15.5 -38.5l-206 -488h300z"/>
			<glyph glyph-name="product" unicode="&#x220f;"
			       d="M154 720h420l-114 -720h-90l101 638h-240l-101 -638h-90z"/>
			<glyph glyph-name="summation" unicode="&#x2211;"
			       d="M-22 -170l13 82l371 370l-256 356l13 82h485l-13 -80h-308l-71 3v-2l229 -314l-16 -103l-321 -315l-1 -2l73 3h300l-13 -80h-485z"/>
			<glyph glyph-name="minus" unicode="&#x2212;"
			       d="M106 370h400l-12 -75h-400z"/>
			<glyph glyph-name="uni2215" unicode="&#x2215;"
			       d="M502 720h68l-459 -720h-69z"/>
			<glyph glyph-name="uni2219" unicode="&#x2219;"
			       d="M221 329q6 39 33 62.5t66 23.5t59.5 -23.5t13.5 -62.5q-7 -40 -34.5 -64.5t-66.5 -24.5t-58.5 24.5t-12.5 64.5z"/>
			<glyph glyph-name="radical" unicode="&#x221a;"
			       d="M4 470l13 80h173l38 -389q2 -23 2 -40.5t-2 -30.5q-1 -14 -3 -25h9q2 11 6 26q3 12 9 29.5t16 40.5l250 569h86l-328 -730h-105l-53 470h-111z"/>
			<glyph glyph-name="infinity" unicode="&#x221e;"
			       d="M141 160q-60 0 -89.5 37t-19.5 98l12 75q10 61 53 98t105 37q51 0 81.5 -25.5t40.5 -73.5h3q12 28 31 50q17 18 42.5 33.5t63.5 15.5q60 0 90 -37t20 -98l-12 -75q-10 -61 -53.5 -98t-105.5 -37q-51 0 -81.5 25.5t-40.5 73.5h-3q-12 -28 -31 -49q-17 -19 -42.5 -34.5
t-63.5 -15.5zM352 272q15 -52 58 -52q32 0 54.5 20.5t27.5 54.5l12 75q5 34 -10.5 54.5t-47.5 20.5q-28 0 -48.5 -12t-34 -27t-20.5 -29.5t-9 -20.5zM102 295q-5 -34 10.5 -54.5t47.5 -20.5q29 0 49 12t33 27t20 29.5t9 20.5l-18 84q-13 52 -57 52q-32 0 -54.5 -20.5
t-27.5 -54.5z"/>
			<glyph glyph-name="integral" unicode="&#x222b;"
			       d="M-47 -170l13 82h110q54 0 89.5 30t43.5 83l79 501q7 44 27.5 80t51 61.5t71 39t86.5 13.5h110l-13 -82h-110q-54 0 -89.5 -29.5t-43.5 -83.5l-79 -500q-7 -44 -27.5 -80t-51 -61.5t-70.5 -39.5t-87 -14h-110z"/>
			<glyph glyph-name="approxequal" unicode="&#x2248;"
			       d="M55 355l12 70q9 61 47.5 95.5t98.5 34.5q29 0 50 -9.5t36.5 -24t27.5 -31.5t23.5 -31.5t24.5 -24t30 -9.5q46 0 55 55l11 70h85l-11 -70q-10 -61 -48.5 -95.5t-97.5 -34.5q-29 0 -50 9.5t-36.5 24t-27.5 31.5t-23.5 31.5t-24.5 24t-30 9.5q-47 0 -55 -55l-12 -70h-85z
M55 110l12 70q9 61 47.5 95.5t98.5 34.5q29 0 50 -9.5t36.5 -24t27.5 -31.5t23.5 -31.5t24.5 -24t30 -9.5q46 0 55 55l11 70h85l-11 -70q-10 -61 -48.5 -95.5t-97.5 -34.5q-29 0 -50 9.5t-36.5 24t-27.5 31.5t-23.5 31.5t-24.5 24t-30 9.5q-47 0 -55 -55l-12 -70h-85z"/>
			<glyph glyph-name="notequal" unicode="&#x2260;"
			       d="M156 170h-99l13 80h136l100 160h-211l13 80h248l109 175h90l-109 -175h102l-13 -80h-139l-100 -160h214l-13 -80h-251l-106 -170h-90z"/>
			<glyph glyph-name="lessequal" unicode="&#x2264;"
			       d="M110 505l464 215l-15 -96l-334 -149q-24 -10 -41 -15q-9 -2 -16 -3l-1 -7q7 -2 15 -5q7 -2 16 -6t20 -10l285 -150l-13 -89l-396 215zM46 80h430l-12 -80h-430z"/>
			<glyph glyph-name="greaterequal" unicode="&#x2265;"
			       d="M75 284l334 150q14 6 24 10.5t18 6.5q9 3 16 5l2 7q-7 1 -15 4q-15 3 -37 15l-286 153l13 85l396 -215l-16 -100l-464 -215zM35 0l12 80h430l-12 -80h-430z"/>
			<glyph glyph-name="uni2500" unicode="&#x2500;"
			       d="M-5 410h610v-100h-610v100z"/>
			<glyph glyph-name="uni2501" unicode="&#x2501;"
			       d="M-5 460h610v-200h-610v200z"/>
			<glyph glyph-name="uni2502" unicode="&#x2502;"
			       d="M250 970h100v-1240h-100v1240z"/>
			<glyph glyph-name="uni2503" unicode="&#x2503;"
			       d="M200 970h200v-1240h-200v1240z"/>
			<glyph glyph-name="uni2504" unicode="&#x2504;"
			       d="M437 410h126v-100h-126v100zM237 410h126v-100h-126v100zM37 410h126v-100h-126v100z"/>
			<glyph glyph-name="uni2505" unicode="&#x2505;"
			       d="M437 260v200h126v-200h-126zM237 260v200h126v-200h-126zM37 460h126v-200h-126v200z"/>
			<glyph glyph-name="uni2506" unicode="&#x2506;"
			       d="M250 928h100v-338h-100v338zM350 108v-337h-100v337h100zM250 183v334h100v-334h-100z"/>
			<glyph glyph-name="uni2507" unicode="&#x2507;"
			       d="M200 172v357h200v-357h-200zM400 97v-326h-200v326h200zM200 928h200v-326h-200v326z"/>
			<glyph glyph-name="uni2508" unicode="&#x2508;"
			       d="M25 410h100v-100h-100v100zM425 410v-100h-100v100h100zM175 310v100h100v-100h-100zM575 410v-100h-100v100h100z"/>
			<glyph glyph-name="uni2509" unicode="&#x2509;"
			       d="M25 460h100v-200h-100v200zM425 460v-200h-100v200h100zM175 260v200h100v-200h-100zM575 460v-200h-100v200h100z"/>
			<glyph glyph-name="uni250A" unicode="&#x250a;"
			       d="M250 925h100v-215h-100v215zM250 -205v215h100v-215h-100zM350 315v-215h-100v215h100zM250 405v215h100v-215h-100z"/>
			<glyph glyph-name="uni250B" unicode="&#x250b;"
			       d="M200 925h200v-215h-200v215zM200 -205v215h200v-215h-200zM400 315v-215h-200v215h200zM200 405v215h200v-215h-200z"/>
			<glyph glyph-name="uni250C" unicode="&#x250c;"
			       d="M350 310v-580h-100v680h355v-100h-255z"/>
			<glyph glyph-name="uni250D" unicode="&#x250d;"
			       d="M350 260v-530h-100v730h355v-200h-255z"/>
			<glyph glyph-name="uni250E" unicode="&#x250e;"
			       d="M400 310v-580h-200v680h405v-100h-205z"/>
			<glyph glyph-name="uni250F" unicode="&#x250f;"
			       d="M400 260v-530h-200v730h405v-200h-205z"/>
			<glyph glyph-name="uni2510" unicode="&#x2510;"
			       d="M250 310h-255v100h355v-680h-100v580z"/>
			<glyph glyph-name="uni2511" unicode="&#x2511;"
			       d="M250 260h-255v200h355v-730h-100v530z"/>
			<glyph glyph-name="uni2512" unicode="&#x2512;"
			       d="M200 310h-205v100h405v-680h-200v580z"/>
			<glyph glyph-name="uni2513" unicode="&#x2513;"
			       d="M200 260h-205v200h405v-730h-200v530z"/>
			<glyph glyph-name="uni2514" unicode="&#x2514;"
			       d="M250 310v660h100v-560h255v-100h-355z"/>
			<glyph glyph-name="uni2515" unicode="&#x2515;"
			       d="M250 260v710h100v-510h255v-200h-355z"/>
			<glyph glyph-name="uni2516" unicode="&#x2516;"
			       d="M200 310v660h200v-560h205v-100h-405z"/>
			<glyph glyph-name="uni2517" unicode="&#x2517;"
			       d="M200 260v710h200v-510h205v-200h-405z"/>
			<glyph glyph-name="uni2518" unicode="&#x2518;"
			       d="M-5 310v100h255v560h100v-660h-355z"/>
			<glyph glyph-name="uni2519" unicode="&#x2519;"
			       d="M350 260h-355v200h255v510h100v-710z"/>
			<glyph glyph-name="uni251A" unicode="&#x251a;"
			       d="M400 310h-405v100h205v560h200v-660z"/>
			<glyph glyph-name="uni251B" unicode="&#x251b;"
			       d="M400 260h-405v200h205v510h200v-710z"/>
			<glyph glyph-name="uni251C" unicode="&#x251c;"
			       d="M250 970h100v-560h255v-100h-255v-580h-100v1240z"/>
			<glyph glyph-name="uni251D" unicode="&#x251d;"
			       d="M250 -270v1240h100v-510h255v-200h-255v-530h-100z"/>
			<glyph glyph-name="uni251E" unicode="&#x251e;"
			       d="M200 970h200v-560h205v-100h-255v-580h-100v580h-50v660z"/>
			<glyph glyph-name="uni251F" unicode="&#x251f;"
			       d="M200 410h50v560h100v-560h255v-100h-205v-580h-200v680z"/>
			<glyph glyph-name="uni2520" unicode="&#x2520;"
			       d="M400 970v-560h205v-100h-205v-580h-200v1240h200z"/>
			<glyph glyph-name="uni2521" unicode="&#x2521;"
			       d="M200 970h200v-510h205v-200h-255v-530h-100v530h-50v710z"/>
			<glyph glyph-name="uni2522" unicode="&#x2522;"
			       d="M250 460v510h100v-510h255v-200h-205v-530h-200v730h50z"/>
			<glyph glyph-name="uni2523" unicode="&#x2523;"
			       d="M200 -270v1240h200v-510h205v-200h-205v-530h-200z"/>
			<glyph glyph-name="uni2524" unicode="&#x2524;"
			       d="M-5 410h255v560h100v-1240h-100v580h-255v100z"/>
			<glyph glyph-name="uni2525" unicode="&#x2525;"
			       d="M-5 260v200h255v510h100v-1240h-100v530h-255z"/>
			<glyph glyph-name="uni2526" unicode="&#x2526;"
			       d="M200 410v560h200v-660h-50v-580h-100v580h-255v100h205z"/>
			<glyph glyph-name="uni2527" unicode="&#x2527;"
			       d="M-5 410h255v560h100v-560h50v-680h-200v580h-205v100z"/>
			<glyph glyph-name="uni2528" unicode="&#x2528;"
			       d="M-5 310v100h205v560h200v-1240h-200v580h-205z"/>
			<glyph glyph-name="uni2529" unicode="&#x2529;"
			       d="M200 460v510h200v-710h-50v-530h-100v530h-255v200h205z"/>
			<glyph glyph-name="uni252A" unicode="&#x252a;"
			       d="M250 460v510h100v-510h50v-730h-200v530h-205v200h255z"/>
			<glyph glyph-name="uni252B" unicode="&#x252b;"
			       d="M-5 260v200h205v510h200v-1240h-200v530h-205z"/>
			<glyph glyph-name="uni252C" unicode="&#x252c;"
			       d="M-5 310v100h610v-100h-255v-580h-100v580h-255z"/>
			<glyph glyph-name="uni252D" unicode="&#x252d;"
			       d="M-5 260v200h355v-50h255v-100h-255v-580h-100v530h-255z"/>
			<glyph glyph-name="uni252E" unicode="&#x252e;"
			       d="M-5 410h255v50h355v-200h-255v-530h-100v580h-255v100z"/>
			<glyph glyph-name="uni252F" unicode="&#x252f;"
			       d="M605 460v-200h-255v-530h-100v530h-255v200h610z"/>
			<glyph glyph-name="uni2530" unicode="&#x2530;"
			       d="M-5 310v100h610v-100h-205v-580h-200v580h-205z"/>
			<glyph glyph-name="uni2531" unicode="&#x2531;"
			       d="M-5 260v200h405v-50h205v-100h-205v-580h-200v530h-205z"/>
			<glyph glyph-name="uni2532" unicode="&#x2532;"
			       d="M-5 410h205v50h405v-200h-205v-530h-200v580h-205v100z"/>
			<glyph glyph-name="uni2533" unicode="&#x2533;"
			       d="M605 460v-200h-205v-530h-200v530h-205v200h610z"/>
			<glyph glyph-name="uni2534" unicode="&#x2534;"
			       d="M250 410v560h100v-560h255v-100h-610v100h255z"/>
			<glyph glyph-name="uni2535" unicode="&#x2535;"
			       d="M-5 260v200h255v510h100v-560h255v-100h-255v-50h-355z"/>
			<glyph glyph-name="uni2536" unicode="&#x2536;"
			       d="M250 410v560h100v-510h255v-200h-355v50h-255v100h255z"/>
			<glyph glyph-name="uni2537" unicode="&#x2537;"
			       d="M250 460v510h100v-510h255v-200h-610v200h255z"/>
			<glyph glyph-name="uni2538" unicode="&#x2538;"
			       d="M-5 310v100h205v560h200v-560h205v-100h-610z"/>
			<glyph glyph-name="uni2539" unicode="&#x2539;"
			       d="M200 460v510h200v-560h205v-100h-205v-50h-405v200h205z"/>
			<glyph glyph-name="uni253A" unicode="&#x253a;"
			       d="M200 410v560h200v-510h205v-200h-405v50h-205v100h205z"/>
			<glyph glyph-name="uni253B" unicode="&#x253b;"
			       d="M-5 260v200h205v510h200v-510h205v-200h-610z"/>
			<glyph glyph-name="uni253C" unicode="&#x253c;"
			       d="M-5 310v100h255v560h100v-560h255v-100h-255v-580h-100v580h-255z"/>
			<glyph glyph-name="uni253D" unicode="&#x253d;"
			       d="M-5 260v200h255v510h100v-560h255v-100h-255v-580h-100v530h-255z"/>
			<glyph glyph-name="uni253E" unicode="&#x253e;"
			       d="M250 410v560h100v-510h255v-200h-255v-530h-100v580h-255v100h255z"/>
			<glyph glyph-name="uni253F" unicode="&#x253f;"
			       d="M-5 260v200h255v510h100v-510h255v-200h-255v-530h-100v530h-255z"/>
			<glyph glyph-name="uni2540" unicode="&#x2540;"
			       d="M-5 310v100h205v560h200v-560h205v-100h-255v-580h-100v580h-255z"/>
			<glyph glyph-name="uni2541" unicode="&#x2541;"
			       d="M-5 310v100h255v560h100v-560h255v-100h-205v-580h-200v580h-205z"/>
			<glyph glyph-name="uni2542" unicode="&#x2542;"
			       d="M200 410v560h200v-560h205v-100h-205v-580h-200v580h-205v100h205z"/>
			<glyph glyph-name="uni2543" unicode="&#x2543;"
			       d="M-5 260v200h205v510h200v-560h205v-100h-205v-50h-50v-530h-100v530h-255z"/>
			<glyph glyph-name="uni2544" unicode="&#x2544;"
			       d="M-5 410h205v560h200v-510h205v-200h-255v-530h-100v530h-50v50h-205v100z"/>
			<glyph glyph-name="uni2545" unicode="&#x2545;"
			       d="M-5 260v200h255v510h100v-510h50v-50h205v-100h-205v-580h-200v530h-205z"/>
			<glyph glyph-name="uni2546" unicode="&#x2546;"
			       d="M200 410v50h50v510h100v-510h255v-200h-205v-530h-200v580h-205v100h205z"/>
			<glyph glyph-name="uni2547" unicode="&#x2547;"
			       d="M200 460v510h200v-510h205v-200h-255v-530h-100v530h-255v200h205z"/>
			<glyph glyph-name="uni2548" unicode="&#x2548;"
			       d="M250 460v510h100v-510h255v-200h-205v-530h-200v530h-205v200h255z"/>
			<glyph glyph-name="uni2549" unicode="&#x2549;"
			       d="M200 460v510h200v-560h205v-100h-205v-580h-200v530h-205v200h205z"/>
			<glyph glyph-name="uni254A" unicode="&#x254a;"
			       d="M200 410v560h200v-510h205v-200h-205v-530h-200v580h-205v100h205z"/>
			<glyph glyph-name="uni254B" unicode="&#x254b;"
			       d="M-5 260v200h205v510h200v-510h205v-200h-205v-530h-200v530h-205z"/>
			<glyph glyph-name="uni254C" unicode="&#x254c;"
			       d="M530 410v-100h-160v100h160zM70 410h160v-100h-160v100z"/>
			<glyph glyph-name="uni254D" unicode="&#x254d;"
			       d="M375 460h150v-200h-150v200zM75 460h150v-200h-150v200z"/>
			<glyph glyph-name="uni254E" unicode="&#x254e;"
			       d="M350 280v-455h-100v455h100zM250 883h100v-453h-100v453z"/>
			<glyph glyph-name="uni254F" unicode="&#x254f;"
			       d="M400 260v-415h-200v415h200zM200 863h200v-413h-200v413z"/>
			<glyph glyph-name="uni2550" unicode="&#x2550;"
			       d="M-5 510h610v-100h-610v100zM605 310v-100h-610v100h610z"/>
			<glyph glyph-name="uni2551" unicode="&#x2551;"
			       d="M450 970v-1240h-100v1240h100zM150 970h100v-1240h-100v1240z"/>
			<glyph glyph-name="uni2552" unicode="&#x2552;"
			       d="M250 510h355v-100h-255v-100h255v-100h-255v-480h-100v780z"/>
			<glyph glyph-name="uni2553" unicode="&#x2553;"
			       d="M150 410h455v-100h-155v-580h-100v580h-100v-580h-100v680z"/>
			<glyph glyph-name="uni2554" unicode="&#x2554;"
			       d="M605 510v-100h-355v-680h-100v780h455zM605 310v-100h-155v-480h-100v580h255z"/>
			<glyph glyph-name="uni2555" unicode="&#x2555;"
			       d="M350 510v-780h-100v480h-255v100h255v100h-255v100h355z"/>
			<glyph glyph-name="uni2556" unicode="&#x2556;"
			       d="M450 410v-680h-100v580h-100v-580h-100v580h-155v100h455z"/>
			<glyph glyph-name="uni2557" unicode="&#x2557;"
			       d="M-5 510h455v-780h-100v680h-355v100zM-5 210v100h255v-580h-100v480h-155z"/>
			<glyph glyph-name="uni2558" unicode="&#x2558;"
			       d="M250 970h100v-460h255v-100h-255v-100h255v-100h-355v760z"/>
			<glyph glyph-name="uni2559" unicode="&#x2559;"
			       d="M250 970v-560h100v560h100v-560h155v-100h-455v660h100z"/>
			<glyph glyph-name="uni255A" unicode="&#x255a;"
			       d="M250 970v-660h355v-100h-455v760h100zM350 410v560h100v-460h155v-100h-255z"/>
			<glyph glyph-name="uni255B" unicode="&#x255b;"
			       d="M-5 410v100h255v460h100v-760h-355v100h255v100h-255z"/>
			<glyph glyph-name="uni255C" unicode="&#x255c;"
			       d="M-5 410h155v560h100v-560h100v560h100v-660h-455v100z"/>
			<glyph glyph-name="uni255D" unicode="&#x255d;"
			       d="M350 310v660h100v-760h-455v100h355zM150 510v460h100v-560h-255v100h155z"/>
			<glyph glyph-name="uni255E" unicode="&#x255e;"
			       d="M250 970h100v-460h255v-100h-255v-100h255v-100h-255v-480h-100v1240z"/>
			<glyph glyph-name="uni255F" unicode="&#x255f;"
			       d="M350 -270v1240h100v-560h155v-100h-155v-580h-100zM250 970v-1240h-100v1240h100z"/>
			<glyph glyph-name="uni2560" unicode="&#x2560;"
			       d="M150 -270v1240h100v-1240h-100zM605 310v-100h-155v-480h-100v580h255zM350 970h100v-460h155v-100h-255v560z"/>
			<glyph glyph-name="uni2561" unicode="&#x2561;"
			       d="M250 510v460h100v-1240h-100v480h-255v100h255v100h-255v100h255z"/>
			<glyph glyph-name="uni2562" unicode="&#x2562;"
			       d="M-5 410h155v560h100v-1240h-100v580h-155v100zM450 970v-1240h-100v1240h100z"/>
			<glyph glyph-name="uni2563" unicode="&#x2563;"
			       d="M351 970h100v-1240h-100v1240zM-5 310h255v-580h-100v480h-155v100zM-5 410v100h155v460h100v-560h-255z"/>
			<glyph glyph-name="uni2564" unicode="&#x2564;"
			       d="M-5 210v100h610v-100h-255v-480h-100v480h-255zM605 510v-100h-610v100h610z"/>
			<glyph glyph-name="uni2565" unicode="&#x2565;"
			       d="M-5 410h610v-100h-150v-580h-100v580h-110v-580h-100v580h-150v100z"/>
			<glyph glyph-name="uni2566" unicode="&#x2566;"
			       d="M605 310v-100h-155v-480h-100v580h255zM-5 210v100h255v-580h-100v480h-155zM605 510v-100h-610v100h610z"/>
			<glyph glyph-name="uni2567" unicode="&#x2567;"
			       d="M-5 410v100h255v460h100v-460h255v-100h-610zM-5 310h610v-100h-610v100z"/>
			<glyph glyph-name="uni2568" unicode="&#x2568;"
			       d="M-5 310v100h155v560h100v-560h100v560h100v-560h155v-100h-610z"/>
			<glyph glyph-name="uni2569" unicode="&#x2569;"
			       d="M350 970h100v-460h155v-100h-255v560zM150 510v460h100v-560h-255v100h155zM605 310v-100h-610v100h610z"/>
			<glyph glyph-name="uni256A" unicode="&#x256a;"
			       d="M-5 410v100h255v460h100v-460h255v-100h-255v-100h255v-100h-255v-480h-100v480h-255v100h255v100h-255z"/>
			<glyph glyph-name="uni256B" unicode="&#x256b;"
			       d="M-5 310v100h155v560h100v-560h100v560h100v-560h155v-100h-155v-580h-100v580h-100v-580h-100v580h-155z"/>
			<glyph glyph-name="uni256C" unicode="&#x256c;"
			       d="M-5 210v100h255v-580h-100v480h-155zM350 -270v580h255v-100h-155v-480h-100zM350 410v560h100v-460h155v-100h-255zM-5 510h155v460h100v-560h-255v100z"/>
			<glyph glyph-name="uni256D" unicode="&#x256d;"
			       d="M250 -270v340q0 77 24.5 139.5t69 107t107.5 69t139 24.5h15v-100h-15q-54 0 -98 -17t-75.5 -48.5t-49 -76t-17.5 -98.5v-340h-100z"/>
			<glyph glyph-name="uni256E" unicode="&#x256e;"
			       d="M10 410q77 0 139.5 -24.5t107 -69t69 -107t24.5 -139.5v-340h-100v340q0 54 -17 98.5t-48.5 76t-76 48.5t-98.5 17h-15v100h15z"/>
			<glyph glyph-name="uni256F" unicode="&#x256f;"
			       d="M10 410q54 0 98.5 17.5t76 49t48.5 75.5t17 98v320h100v-320q0 -76 -24.5 -139t-69 -107.5t-107 -69t-139.5 -24.5h-15v100h15z"/>
			<glyph glyph-name="uni2570" unicode="&#x2570;"
			       d="M350 970v-320q0 -54 17.5 -98t49 -75.5t75.5 -49t98 -17.5h15v-100h-15q-76 0 -139 24.5t-107.5 69t-69 107.5t-24.5 139v320h100z"/>
			<glyph glyph-name="uni2571" unicode="&#x2571;"
			       d="M525 870h80v-40l-530 -1000h-80v40z"/>
			<glyph glyph-name="uni2572" unicode="&#x2572;"
			       d="M75 870l530 -1000v-40h-80l-530 1000v40h80z"/>
			<glyph glyph-name="uni2573" unicode="&#x2573;"
			       d="M-5 830v40h80l225 -425l225 425h80v-40l-254 -480l254 -480v-40h-80l-225 425l-225 -425h-80v40l254 480z"/>
			<glyph glyph-name="uni2574" unicode="&#x2574;"
			       d="M-5 410h355v-100h-355v100z"/>
			<glyph glyph-name="uni2575" unicode="&#x2575;"
			       d="M250 970h100v-660h-100v660z"/>
			<glyph glyph-name="uni2576" unicode="&#x2576;"
			       d="M250 410h355v-100h-355v100z"/>
			<glyph glyph-name="uni2577" unicode="&#x2577;"
			       d="M250 410h100v-680h-100v680z"/>
			<glyph glyph-name="uni2578" unicode="&#x2578;"
			       d="M-5 460h355v-200h-355v200z"/>
			<glyph glyph-name="uni2579" unicode="&#x2579;"
			       d="M200 310v660h200v-660h-200z"/>
			<glyph glyph-name="uni257A" unicode="&#x257a;"
			       d="M250 460h355v-200h-355v200z"/>
			<glyph glyph-name="uni257B" unicode="&#x257b;"
			       d="M200 -270v680h200v-680h-200z"/>
			<glyph glyph-name="uni257C" unicode="&#x257c;"
			       d="M-5 310v100h255v50h355v-200h-355v50h-255z"/>
			<glyph glyph-name="uni257D" unicode="&#x257d;"
			       d="M200 410h50v560h100v-560h50v-680h-200v680z"/>
			<glyph glyph-name="uni257E" unicode="&#x257e;"
			       d="M-5 260v200h355v-50h255v-100h-255v-50h-355z"/>
			<glyph glyph-name="uni257F" unicode="&#x257f;"
			       d="M200 970h200v-660h-50v-580h-100v580h-50v660z"/>
			<glyph glyph-name="upblock" unicode="&#x2580;"
			       d="M-5 350v620h610v-620h-610z"/>
			<glyph glyph-name="uni2581" unicode="&#x2581;"
			       d="M-5 -270v155h610v-155h-610z"/>
			<glyph glyph-name="uni2582" unicode="&#x2582;"
			       d="M-5 -270v310h610v-310h-610z"/>
			<glyph glyph-name="uni2583" unicode="&#x2583;"
			       d="M-5 -270v414h610v-414h-610z"/>
			<glyph glyph-name="dnblock" unicode="&#x2584;"
			       d="M-5 -270v620h610v-620h-610z"/>
			<glyph glyph-name="uni2585" unicode="&#x2585;"
			       d="M-5 -270v775h610v-775h-610z"/>
			<glyph glyph-name="uni2586" unicode="&#x2586;"
			       d="M-5 -270v930h610v-930h-610z"/>
			<glyph glyph-name="uni2587" unicode="&#x2587;"
			       d="M-5 -270v1085h610v-1085h-610z"/>
			<glyph glyph-name="block" unicode="&#x2588;"
			       d="M0 970h600v-1240h-600v1240z"/>
			<glyph glyph-name="uni2589" unicode="&#x2589;"
			       d="M0 970h525v-1240h-525v1240z"/>
			<glyph glyph-name="uni258A" unicode="&#x258a;"
			       d="M0 970h450v-1240h-450v1240z"/>
			<glyph glyph-name="uni258B" unicode="&#x258b;"
			       d="M0 970h375v-1240h-375v1240z"/>
			<glyph glyph-name="lfblock" unicode="&#x258c;"
			       d="M0 970h300v-1240h-300v1240z"/>
			<glyph glyph-name="uni258D" unicode="&#x258d;"
			       d="M0 970h200v-1240h-200v1240z"/>
			<glyph glyph-name="uni258E" unicode="&#x258e;"
			       d="M0 970h150v-1240h-150v1240z"/>
			<glyph glyph-name="uni258F" unicode="&#x258f;"
			       d="M0 970h75v-1240h-75v1240z"/>
			<glyph glyph-name="rtblock" unicode="&#x2590;"
			       d="M300 970h300v-1240h-300v1240z"/>
			<glyph glyph-name="ltshade" unicode="&#x2591;"
			       d="M420 -146h60v-62h-60v62zM60 40v62h60v-62h-60zM60 846h60v-62h-60v62zM120 474v-62h-60v62h60zM480 598v-62h-60v62h60zM420 474h60v-62h-60v62zM480 970v-62h-60v62h60zM420 350h60v-62h-60v62zM60 -208v62h60v-62h-60zM60 722h60v-62h-60v62zM480 226v-62h-60v62h60z
M60 970h60v-62h-60v62zM540 -208v62h60v-62h-60zM120 598v-62h-60v62h60zM600 598v-62h-60v62h60zM540 784v62h60v-62h-60zM540 970h60v-62h-60v62zM540 412v62h60v-62h-60zM600 226v-62h-60v62h60zM540 288v62h60v-62h-60zM540 -84v62h60v-62h-60zM60 350h60v-62h-60v62z
M600 722v-62h-60v62h60zM540 40v62h60v-62h-60zM120 -22v-62h-60v62h60zM300 412v62h60v-62h-60zM480 722v-62h-60v62h60zM360 -146v-62h-60v62h60zM360 226v-62h-60v62h60zM180 970h60v-62h-60v62zM240 226v-62h-60v62h60zM240 350v-62h-60v62h60zM180 412v62h60v-62h-60z
M180 536v62h60v-62h-60zM180 40v62h60v-62h-60zM180 -146h60v-62h-60v62zM240 -22v-62h-60v62h60zM180 660v62h60v-62h-60zM480 -22v-62h-60v62h60zM360 -22v-62h-60v62h60zM300 598h60v-62h-60v62zM420 784v62h60v-62h-60zM420 40v62h60v-62h-60zM300 102h60v-62h-60v62z
M240 846v-62h-60v62h60zM300 908v62h60v-62h-60zM300 660v62h60v-62h-60zM360 350v-62h-60v62h60zM120 226v-62h-60v62h60zM300 784v62h60v-62h-60z"/>
			<glyph glyph-name="shade" unicode="&#x2592;"
			       d="M60 350h-60v62h60v62h-60v62h60v62h-60v62h60v62h-60v62h60v62h-60v62h60v62h60v-62h60v62h60v-62h60v62h60v-62h60v62h60v-62h60v62h60v-62h-60v-62h60v-62h-60v-62h60v-62h-60v-62h60v-62h-60v-62h60v-62h-60v-62h60v-62h-60v-62h60v-62h-60v-62h60v-62h-60v-62h60v-62
h-60v-62h60v-62h-60v-62h-60v62h-60v-62h-60v62h-60v-62h-60v62h-60v-62h-60v62h-60v-62h-60v62h60v62h-60v62h60v62h-60v62h60v62h-60v62h60v62h-60v62h60v62zM60 -146h60v-62h60v62h60v-62h60v62h60v-62h60v62h60v-62h60v62h-60v62h60v62h-60v62h60v62h-60v62h60v62h-60
v62h60v62h-60v62h60v62h-60v62h60v62h-60v62h60v62h-60v62h60v62h-60v62h-60v-62h-60v62h-60v-62h-60v62h-60v-62h-60v62h-60v-62h60v-62h-60v-62h60v-62h-60v-62h60v-62h-60v-62h60v-62h-60v-62h60v-62h-60v-62h60v-62h-60v-62h60v-62h-60v-62h60v-62h-60v-62zM180 598h-60
v62h60v62h-60v62h60v62h60v-62h60v62h60v-62h60v62h60v-62h-60v-62h60v-62h-60v-62h60v-62h-60v-62h60v-62h-60v-62h60v-62h-60v-62h60v-62h-60v-62h60v-62h-60v-62h60v-62h-60v-62h-60v62h-60v-62h-60v62h-60v-62h-60v62h60v62h-60v62h60v62h-60v62h60v62h-60v62h60v62h-60
v62h60v62h-60v62h60v62zM240 -22v-62h60v62h60v-62h60v62h-60v62h60v62h-60v62h60v62h-60v62h60v62h-60v62h60v62h-60v62h60v62h-60v62h60v62h-60v62h-60v-62h-60v62h-60v-62h60v-62h-60v-62h60v-62h-60v-62h60v-62h-60v-62h60v-62h-60v-62h60v-62h-60v-62h60v-62h-60v-62
h60zM240 536h60v62h-60v62h60v62h60v-62h-60v-62h60v-62h-60v-62h60v-62h-60v-62h60v-62h-60v-62h60v-62h-60v-62h60v-62h-60v-62h-60v62h60v62h-60v62h60v62h-60v62h60v62h-60v62h60v62h-60v62z"/>
			<glyph glyph-name="dkshade" unicode="&#x2593;"
			       d="M0 -270v1240h600v-62h-60v-62h60v-62h-60v-62h60v-62h-60v-62h60v-62h-60v-62h60v-62h-60v-62h60v-62h-60v-62h60v-62h-60v-62h60v-62h-60v-62h60v-62h-60v-62h60v-62h-60v-62h-60v62h-60v-62h-60v62h-60v-62h-60v62h-60v-62h-60v62h-60v-62h-60zM60 288v-62h60v62h-60z
M300 598h60v62h-60v-62zM480 226v62h-60v-62h60zM60 784v-62h60v62h-60zM360 226v62h-60v-62h60zM120 846v62h-60v-62h60zM60 164v-62h60v62h-60zM360 722v62h-60v-62h60zM420 660v-62h60v62h-60zM420 474h60v62h-60v-62zM420 102h60v62h-60v-62zM60 412v-62h60v62h-60z
M480 -146v62h-60v-62h60zM420 722h60v62h-60v-62zM420 846h60v62h-60v-62zM420 40v-62h60v62h-60zM420 350h60v62h-60v-62zM360 846v62h-60v-62h60zM180 -22h60v62h-60v-62zM180 288v-62h60v62h-60zM120 474v62h-60v-62h60zM180 474h60v62h-60v-62zM180 412v-62h60v62h-60z
M180 722h60v62h-60v-62zM180 660v-62h60v62h-60zM180 846h60v62h-60v-62zM180 -146h60v62h-60v-62zM180 102h60v62h-60v-62zM300 412v-62h60v62h-60zM360 102v62h-60v-62h60zM120 598v62h-60v-62h60zM60 -22h60v62h-60v-62zM300 -84v-62h60v62h-60zM360 -22v62h-60v-62h60z
M60 -146h60v62h-60v-62zM360 474v62h-60v-62h60z"/>
			<glyph glyph-name="uni2594" unicode="&#x2594;"
			       d="M-5 815v155h610v-155h-610z"/>
			<glyph glyph-name="uni2595" unicode="&#x2595;"
			       d="M525 970h75v-1240h-75v1240z"/>
			<glyph glyph-name="uni2596" unicode="&#x2596;"
			       d="M0 350h300v-620h-300v620z"/>
			<glyph glyph-name="uni2597" unicode="&#x2597;"
			       d="M300 350h300v-620h-300v620z"/>
			<glyph glyph-name="uni2598" unicode="&#x2598;"
			       d="M0 970h300v-620h-300v620z"/>
			<glyph glyph-name="uni2599" unicode="&#x2599;"
			       d="M-5 970h305v-620h305v-620h-610v1240z"/>
			<glyph glyph-name="uni259A" unicode="&#x259a;"
			       d="M0 350v620h300v-620h300v-620h-300v620h-300z"/>
			<glyph glyph-name="uni259B" unicode="&#x259b;"
			       d="M-5 -270v1240h610v-620h-305v-620h-305z"/>
			<glyph glyph-name="uni259C" unicode="&#x259c;"
			       d="M605 -270h-305v620h-305v620h610v-1240z"/>
			<glyph glyph-name="uni259D" unicode="&#x259d;"
			       d="M300 970h300v-620h-300v620z"/>
			<glyph glyph-name="uni259E" unicode="&#x259e;"
			       d="M300 -270h-300v620h300v620h300v-620h-300v-620z"/>
			<glyph glyph-name="uni259F" unicode="&#x259f;"
			       d="M605 970v-1240h-610v620h305v620h305z"/>
			<glyph glyph-name="lozenge" unicode="&#x25ca;"
			       d="M61 324l12 71l229 325h126l125 -325l-12 -71l-223 -324h-126zM154 344l68 -187q8 -20 14 -38t11 -31q6 -15 10 -28h4q8 13 18 28q17 28 46 69l130 187l4 31l-66 188q-7 20 -13 37.5t-11 30.5q-5 16 -9 29h-4q-9 -13 -19 -29q-9 -13 -21 -30.5t-26 -37.5l-132 -188z"/>
			<glyph glyph-name="uniE000" unicode="&#xe000;"
			       d="M212 -226q-99 23 -155.5 91t-56.5 170q0 63 20 105t65 67q-24 5 -32 37q-5 20 3 35t25 19q16 4 29 -6.5t18 -31.5t-5 -37q66 22 177 22t177 -22q-9 16 -5 38q4 20 17.5 30.5t30.5 6.5q16 -4 23.5 -18.5t3.5 -34.5q-8 -33 -33 -38q46 -25 66 -67t20 -104
q0 -103 -56.5 -171t-155.5 -91v-44h-38v38q-24 -3 -50 -3t-50 3v-38h-38v44zM160 205q-57 0 -91 -35.5t-34 -94.5q0 -36 15.5 -64t43.5 -47t68 -29t88 -10q23 0 39 1t27 3q13 2 21 4q-4 -10 -13 -22q-7 -11 -20 -23.5t-35 -26.5q67 0 121.5 13.5t93.5 40.5t60 67.5t21 92.5
q0 59 -34 94.5t-91 35.5q-52 0 -83.5 -28.5t-31.5 -75.5q0 -25 13 -48t33 -34l64 -34h-146q-20 0 -32 11t-12 28q0 18 11 29t29 11q0 27 -9.5 52.5t-26 45t-39.5 31.5t-50 12zM151 725q0 81 31.5 130.5t83.5 49.5t83.5 -49.5t31.5 -130.5v-180q0 -81 -31.5 -130.5
t-83.5 -49.5t-83.5 49.5t-31.5 130.5v180zM514 610q-3 -9 -6 -22q-2 -11 -4 -28t-2 -40q0 -45 15 -72.5t40 -27.5t40 27.5t15 72.5q0 50 -15 80t-40 30h-27v55h27q23 0 36.5 23.5t13.5 61.5q0 36 -13.5 58t-36.5 22t-36.5 -22t-13.5 -57q0 -32 5 -50q1 -9 4 -16h-60
q-3 7 -4 16q-5 18 -5 50q0 60 30 97t80 37t80 -35.5t30 -93.5q0 -40 -10 -62.5t-23 -33.5q-15 -13 -33 -16v-5q20 -6 36 -23q13 -14 24 -41t11 -75q0 -70 -31.5 -112.5t-83.5 -42.5t-83.5 42.5t-31.5 112.5q0 23 2 40t4 28q3 13 6 22h60zM266 850q-25 0 -40 -34t-15 -91
v-180q0 -57 15 -91t40 -34t40 34t15 91v180q0 57 -15 91t-40 34zM51 905v-536h-64v421l-66 -46l-1 65zM385 90q0 23 13.5 36.5t36.5 13.5t36.5 -13.5t13.5 -36.5t-13.5 -36.5t-36.5 -13.5t-36.5 13.5t-13.5 36.5zM165 40q-23 0 -36.5 13.5t-13.5 36.5q0 22 14 36t36 14
q23 0 36.5 -13.5t13.5 -36.5t-13.5 -36.5t-36.5 -13.5zM441 423v-55h-57v55h57zM148 423v-55h-57v55h57z"/>
			<glyph glyph-name="uniE0A0" unicode="&#xe0a0;"
			       d="M90 -270v381q0 45 22 89t59 71l145 108q25 18 39.5 40.5t14.5 41.5v170h-110l170 170l170 -170h-110v-180q0 -37 -20 -74.5t-52 -61.5l-155 -115q-26 -19 -39.5 -45t-13.5 -55v-370h-120zM90 970h120v-517l-120 -89v606z"/>
			<glyph glyph-name="uniE0A1" unicode="&#xe0a1;"
			       d="M258 315l129 -293q8 -19 15 -40.5t12 -39.5q6 -21 11 -42h10l-2 14.5t-5 35.5t-5.5 45.5t-2.5 44.5v275h75v-490h-92l-128 293q-8 19 -15.5 40.5t-13.5 39.5l-12 42h-10q4 -24 8 -49q3 -20 5.5 -44.5t2.5 -46.5v-275h-75v490h93zM185 895v-415h221v-75h-301v490h80z"/>
			<glyph glyph-name="uniE0A2" unicode="&#xe0a2;"
			       d="M50 414q0 25 17.5 42.5t42.5 17.5h10v231q0 38 14 69.5t38 54t57 34.5t71 12q39 0 72 -12.5t57 -35t37.5 -54t13.5 -68.5v-231h10q25 0 42.5 -17.5t17.5 -42.5v-434q0 -25 -17.5 -42.5t-42.5 -17.5h-380q-25 0 -42.5 17.5t-17.5 42.5v434zM200 705v-230h200v230
q0 45 -27.5 72.5t-72.5 27.5t-72.5 -27.5t-27.5 -72.5zM255 210v-160h90l-1 160q16 7 28 18q11 9 19.5 24.5t8.5 38.5q0 40 -27.5 64.5t-72.5 24.5t-72.5 -24.5t-27.5 -64.5q0 -23 8.5 -38.5t19.5 -24.5q12 -11 27 -18z"/>
			<glyph glyph-name="uniE0B0" unicode="&#xe0b0;"
			       d="M0 970l610 -620l-610 -620v1240z"/>
			<glyph glyph-name="uniE0B1" unicode="&#xe0b1;"
			       d="M0 970l610 -620l-610 -620h-118l610 618l-604 622h112z"/>
			<glyph glyph-name="uniE0B2" unicode="&#xe0b2;"
			       d="M600 970v-1240l-610 620z"/>
			<glyph glyph-name="uniE0B3" unicode="&#xe0b3;"
			       d="M600 -270l-610 620l610 620h115l-605 -616l603 -624h-113z"/>
			<glyph glyph-name="hyphen_hyphen_greater.liga"
			       d="M-1099 370h1514q-3 5 -6 9.5l-7 10.5l-149 235h97l184 -295l-276 -295h-109l227 239l16 16h-1504z"/>
			<glyph glyph-name="slash_slash.liga"
			       d="M436 830h97l-502 -940h-97zM-44 830h97l-502 -940h-97z"/>
			<glyph glyph-name="slash_asterisk.liga"
			       d="M-104 830h97l-502 -940h-97zM37 600l84 -32q30 -11 61 -32.5t52 -38.5l5 4q-3 28 -5 68.5t3 75.5l15 95h88l-15 -95q-3 -17 -8.5 -36.5t-12.5 -39t-14.5 -37l-13.5 -31.5l4 -3q26 17 63 38t71 33l92 32l17 -87l-92 -32q-32 -11 -72 -16t-69 -7l-4 -7q20 -18 44 -45.5
t39 -54.5l43 -78l-77 -49l-43 78q-15 27 -25.5 63.5t-16.5 63.5h-7q-14 -27 -35 -64t-44 -65l-66 -78l-67 51l66 78q24 28 57.5 55.5t58.5 45.5l-2 7q-29 2 -66.5 8t-66.5 17l-84 32z"/>
			<glyph glyph-name="asterisk_slash.liga"
			       d="M-462 390l84 -32q30 -11 61 -32.5t52 -38.5l5 4q-3 28 -5 68.5t3 75.5l15 95h88l-15 -95q-3 -17 -8.5 -36.5t-12.5 -39t-14.5 -37l-13.5 -31.5l4 -3q26 17 63 38t71 33l92 32l17 -87l-92 -32q-32 -11 -72 -16t-69 -7l-4 -7q20 -18 44 -45.5t39 -54.5l43 -78l-77 -49
l-43 78q-15 27 -25.5 63.5t-16.5 63.5h-7q-14 -27 -35 -64t-44 -65l-66 -78l-67 51l66 78q24 28 57.5 55.5t58.5 45.5l-2 7q-29 2 -66.5 8t-66.5 17l-84 32zM496 830h97l-502 -940h-97z"/>
			<glyph glyph-name="less_exclam_hyphen_hyphen.liga"
			       d="M-889 370h1400l-13 -80h-1400zM-1468 625h109l-223 -236l-19 -19h372l-13 -80h-384q2 -4 5 -8t6 -9l152 -238h-97l-186 295zM-1082 560l25 160h102l-25 -160l-77 -345h-58zM-1188 53q5 28 25.5 45t49.5 17h20q29 0 45 -17t11 -44t-25.5 -43t-49.5 -16h-20
q-29 0 -44.5 15.5t-11.5 42.5z"/>
			<glyph glyph-name="colon_equal.liga"
			       d="M-52 490h550l-13 -80h-550zM-90 250h550l-13 -80h-550zM-404 480q6 36 31.5 58t61.5 22t54.5 -22t12.5 -58q-6 -37 -31.5 -58.5t-61.5 -21.5t-54.5 21.5t-12.5 58.5zM-451 181q5 36 30.5 57.5t61.5 21.5t55 -21.5t13 -57.5q-6 -37 -31.5 -58.5t-61.5 -21.5t-54.5 21.5
t-12.5 58.5z"/>
			<glyph glyph-name="hyphen_greater_greater.liga"
			       d="M-1099 370h1224q-3 5 -6 9.5l-7 10.5l-149 235h97l184 -295l-276 -295h-109l227 239l16 16h-1214zM149 35l227 239q15 16 27.5 26.5t20.5 16.5q10 8 18 12l1 3q-4 4 -9 11t-13 18.5t-19 28.5l-149 235h97l184 -295l-276 -295h-109z"/>
			<glyph glyph-name="less_less_hyphen.liga"
			       d="M-856 330l278 295h109l-223 -236l-19 -19h1220l-12 -75h-1237q4 -5 7 -10t8 -12l152 -238h-97zM-868 625h109l-223 -236q-16 -16 -29 -27t-23 -19q-11 -8 -21 -13v-3q4 -4 10 -11q5 -6 12 -16.5t18 -26.5l152 -238h-97l-186 295zM-773 295h33q-7 9 -11.5 15l-7.5 10
q-4 4 -6 7v3q7 4 15 9q7 5 17 12.5t22 18.5h-50z"/>
			<glyph glyph-name="hyphen_greater.liga"
			       d="M-499 370h914q-3 5 -6 9.5l-7 10.5l-149 235h97l184 -295l-276 -295h-109l227 239l16 16h-904z"/>
			<glyph glyph-name="less_hyphen.liga"
			       d="M-360 35l-186 295l278 295h109l-223 -236l-19 -19h902l-13 -80h-914q2 -4 5 -8t6 -9l152 -238h-97zM-468 290h42q-8 11 -13 17.5t-9 11.5t-7 8v3q7 4 15 9q7 5 17 12.5t22 18.5h-54z"/>
			<glyph glyph-name="less_equal_greater.liga"
			       d="M-1146 330l278 295h109l-128 -135h1226l-86 135h97l184 -295l-276 -295h-109l128 135h-1226l86 -135h-97zM-1000 250h-24l-13 -80h88l-51 80h1353l23 24q15 16 27.5 26.5t20.5 16.5q10 8 18 12l1 3q-4 4 -9 11t-13 18.5t-19 28.5l-13 20h-1351l75 80h-99l-13 -80h37
l-20 -21q-16 -16 -29 -27t-23 -19q-11 -8 -21 -13v-3q4 -4 10 -11q5 -6 12 -16.5t18 -26.5z"/>
			<glyph glyph-name="equal_equal.liga"
			       d="M-505 410l13 80h1040l-13 -80h-1040zM-530 250h1040l-13 -80h-1040z"/>
			<glyph glyph-name="exclam_equal.liga"
			       d="M-79 170l-136 -170h-97l136 170h-367l13 80h418l128 160h-521l13 80h572l140 175h97l-140 -175h371l-13 -80h-422l-128 -160h525l-13 -80h-576z"/>
			<glyph glyph-name="less_equal.liga"
			       d="M-296 375l16 100l646 225l-15 -95l-517 -167q-25 -7 -40 -9q-9 -1 -16 -1l-1 -7q7 0 15 -1t17.5 -2.5t20.5 -6.5l463 -172l-14 -89zM-331 152l14 88l574 -226l-14 -88z"/>
			<glyph glyph-name="greater_equal.liga"
			       d="M-306 244l516 173q13 5 23 6t18 1t15 -1l1 7q-7 1 -15 2q-8 2 -17.5 4.5t-20.5 6.5l-462 169l14 88l574 -225l-16 -100l-645 -225zM-342 17l645 225l-14 -91l-646 -225z"/>
			<glyph glyph-name="equal_colon_equal.liga"
			       d="M-1107 410l12 80h545l-12 -80h-545zM-1145 170l12 80h545l-12 -80h-545zM-50 170l12 80h545l-12 -80h-545zM-12 410l12 80h545l-12 -80h-545zM-357 480q6 36 31.5 58t61.5 22t54.5 -22t12.5 -58q-6 -37 -31.5 -58.5t-61.5 -21.5t-54.5 21.5t-12.5 58.5zM-404 181
q5 36 30.5 57.5t61.5 21.5t55 -21.5t13 -57.5q-6 -37 -31.5 -58.5t-61.5 -21.5t-54.5 21.5t-12.5 58.5z"/>
			<glyph glyph-name="exclam_equal_equal.liga"
			       d="M-434 110l-109 -135h-85l109 135h-634l11 70h679l93 115h-753l11 70h798l93 115h-873l11 70h918l113 140h84l-113 -140h638l-11 -70h-683l-92 -115h757l-11 -70h-803l-92 -115h877l-12 -70h-921z"/>
			<glyph glyph-name="ampersand_ampersand.liga"
			       d="M-10 155l19 125q9 53 42 88t86 49l-5 9q-23 42 -30.5 72t-2.5 62q12 73 66.5 116.5t138.5 43.5q89 0 132 -44t31 -122h-90q6 41 -16.5 64.5t-68.5 23.5q-42 0 -70.5 -23t-33.5 -61q-3 -22 2.5 -43t18.5 -45l133 -234l88 124h99l-144 -199l91 -161h-99l-49 85
q-42 -49 -88.5 -72t-101.5 -23q-82 0 -121.5 43.5t-26.5 121.5zM-520 155l19 125q9 53 41.5 87.5t86.5 48.5l-6 10q-24 41 -30.5 71.5t-1.5 62.5q12 73 66.5 116.5t138.5 43.5q89 0 132 -44t31 -122h-90q6 41 -16.5 64.5t-68.5 23.5q-42 0 -70.5 -23.5t-33.5 -61.5
q-6 -40 21 -87l267 -470h-99l-49 85q-42 -49 -88.5 -72t-101.5 -23q-82 0 -121.5 43.5t-26.5 121.5zM156 70q33 0 66.5 21.5t61.5 63.5l2 3l-119 207q-27 -8 -45 -30t-23 -55l-19 -125q-6 -41 13.5 -63t62.5 -22zM-354 70q33 0 66.5 21.5t61.5 63.5l2 3l-120 207
q-56 -17 -67 -85l-19 -125q-6 -41 13.5 -63t62.5 -22z"/>
			<glyph glyph-name="bar_bar.liga"
			       d="M276 830h90l-149 -940h-90zM-204 830h90l-149 -940h-90z"/>
			<glyph glyph-name="period_period_period.liga"
			       d="M-873 79q6 39 33 62.5t66 23.5t59.5 -23.5t13.5 -62.5q-7 -40 -34.5 -64.5t-66.5 -24.5t-58.5 24.5t-12.5 64.5zM-379 79q6 39 33 62.5t66 23.5t59.5 -23.5t13.5 -62.5q-7 -40 -34.5 -64.5t-66.5 -24.5t-58.5 24.5t-12.5 64.5zM115 79q6 39 33 62.5t66 23.5t59.5 -23.5
t13.5 -62.5q-7 -40 -34.5 -64.5t-66.5 -24.5t-58.5 24.5t-12.5 64.5z"/>
			<glyph glyph-name="period_period.liga"
			       d="M-289 79q6 39 33 62.5t66 23.5t59.5 -23.5t13.5 -62.5q-7 -40 -34.5 -64.5t-66.5 -24.5t-58.5 24.5t-12.5 64.5zM141 79q6 39 33 62.5t66 23.5t59.5 -23.5t13.5 -62.5q-7 -40 -34.5 -64.5t-66.5 -24.5t-58.5 24.5t-12.5 64.5z"/>
			<glyph glyph-name="grave.case"
			       d="M285 956h110l86 -146h-90z"/>
			<glyph glyph-name="dieresis.case"
			       d="M456 887q5 27 24.5 43.5t46.5 16.5t40.5 -16.5t8.5 -43.5t-24 -43.5t-46 -16.5t-41 16.5t-9 43.5zM256 887q5 27 24.5 43.5t46.5 16.5t40.5 -16.5t8.5 -43.5t-24 -43.5t-46 -16.5t-41 16.5t-9 43.5z"/>
			<glyph glyph-name="macron.case"
			       d="M280 930h260l-11 -75h-260z"/>
			<glyph glyph-name="acute.case"
			       d="M450 946l-130 -146h-90l110 146h110z"/>
			<glyph glyph-name="circumflex.case"
			       d="M200 810l155 145h70l105 -145h-75l-45 57q-15 20 -19 26q-4 5 -5 8h-3q-3 -3 -8 -7q-6 -7 -28 -26l-66 -58h-81z"/>
			<glyph glyph-name="caron.case"
			       d="M225 955h76l46 -58q14 -17 19 -25q3 -5 5 -8h3l8 8l10.5 10.5t17.5 15.5l65 57h80l-155 -145h-70z"/>
			<glyph glyph-name="breve.case"
			       d="M268 940h75q-12 -70 71 -70q42 0 67.5 18t31.5 52h75q-6 -30 -22 -55t-40 -43t-55 -27.5t-67 -9.5q-72 0 -109.5 37t-26.5 98z"/>
			<glyph glyph-name="dotaccent.case"
			       d="M272 904q5 27 25 44t49 17h20q29 0 45 -17t11 -44t-25.5 -43t-49.5 -16h-20q-29 0 -44.5 15.5t-10.5 43.5z"/>
			<glyph glyph-name="ring.case"
			       d="M278 870q7 45 44 72.5t91 27.5t83.5 -27.5t21.5 -72.5t-45 -72.5t-91 -27.5t-83 27.5t-21 72.5zM389 821q28 0 47 13.5t22 35.5q4 26 -10.5 38t-43.5 12q-26 0 -44 -13.5t-22 -36.5q-4 -22 10.5 -35.5t40.5 -13.5z"/>
			<glyph glyph-name="tilde.case"
			       d="M170 815l4 20q11 58 45 89t86 31q34 0 54 -12.5t35 -27.5t30 -27.5t37 -12.5q21 0 36 14.5t19 40.5l3 20h65l-3 -20q-9 -58 -44 -89t-87 -31q-34 0 -54 12.5t-35 27.5t-29.5 27.5t-37.5 12.5q-44 0 -55 -55l-4 -20h-65z"/>
			<glyph glyph-name="hungarumlaut.case"
			       d="M505 956h110l-154 -146h-90zM171 810l134 146h110l-154 -146h-90z"/>
			<glyph glyph-name="caron.salt"
			       d="M225 795h76l46 -58q14 -17 19 -25q3 -5 5 -8h3l8 8l10.5 10.5t17.5 15.5l65 57h80l-155 -145h-70z"/>
			<glyph glyph-name="uni0326"
			       d="M345 -94l-103 -146h-90l83 146h110z"/>
			<glyph glyph-name="uni0326.salt"
			       d="M345 -94l-103 -146h-90l83 146h110z"/>
			<glyph glyph-name="bar_bar_bar.liga"
			       d="M66 -120l149 940h90l-149 -940h-90zM-265 820h90l-149 -940h-90zM-894 -120l149 940h90l-149 -940h-90z"/>
			<glyph glyph-name="slash_slash_slash.liga"
			       d="M-584 830h97l-502 -940h-97zM-104 830h97l-502 -940h-97zM376 830h97l-502 -940h-97z"/>
			<glyph glyph-name="ampersand_ampersand_ampersand.liga"
			       d="M-70 155l19 125q9 53 41.5 87.5t86.5 48.5l-6 10q-24 41 -30.5 71.5t-1.5 62.5q12 73 66.5 116.5t138.5 43.5q89 0 132 -44t31 -122h-90q6 41 -16.5 64.5t-68.5 23.5q-42 0 -70.5 -23t-33.5 -61q-3 -22 2.5 -43t18.5 -45l133 -234l88 124h99l-144 -199l91 -161h-99
l-49 85q-42 -49 -88.5 -72t-101.5 -23q-82 0 -121.5 43.5t-26.5 121.5zM-580 155l19 125q9 53 41.5 87.5t86.5 48.5l-6 10q-24 41 -30.5 71.5t-1.5 62.5q12 73 66.5 116.5t138.5 43.5q89 0 132 -44t31 -122h-90q6 41 -16.5 64.5t-68.5 23.5q-42 0 -70.5 -23t-33.5 -61
q-3 -22 2.5 -43t18.5 -45l267 -470h-99l-49 85q-42 -49 -88.5 -72t-101.5 -23q-82 0 -121.5 43.5t-26.5 121.5zM-1090 155l19 125q9 53 41.5 87.5t86.5 48.5l-6 10q-24 41 -30.5 71.5t-1.5 62.5q12 73 66.5 116.5t138.5 43.5q89 0 132 -44t31 -122h-90q6 41 -16.5 64.5
t-68.5 23.5q-42 0 -70.5 -23t-33.5 -61q-3 -22 2.5 -43t18.5 -45l267 -470h-99l-49 85q-42 -49 -88.5 -72t-101.5 -23q-82 0 -121.5 43.5t-26.5 121.5zM-414 70q33 0 66.5 21.5t61.5 63.5l2 3l-120 207q-56 -17 -67 -85l-19 -125q-6 -41 13.5 -63t62.5 -22zM96 70
q33 0 66.5 21.5t61.5 63.5l2 3l-120 207q-56 -17 -67 -85l-19 -125q-6 -41 13.5 -63t62.5 -22zM-924 70q33 0 66.5 21.5t61.5 63.5l2 3l-120 207q-56 -17 -67 -85l-19 -125q-6 -41 13.5 -63t62.5 -22z"/>
			<glyph glyph-name="equal_equal_equal.liga"
			       d="M-1142 180h1641l-12 -70h-1640zM-1083 550h1640l-11 -70h-1640zM-1112 365h1640l-11 -70h-1640z"/>
			<glyph glyph-name="plus_plus.liga"
			       d="M-475 364h190l33 205h80l-33 -205h420l33 205h80l-33 -205h190l-11 -70h-190l-32 -205h-80l32 205h-420l-32 -205h-80l32 205h-190z"/>
			<glyph glyph-name="hyphen_hyphen.liga"
			       d="M41 290l13 80h455l-13 -80h-455zM-504 290l13 80h455l-13 -80h-455z"/>
			<glyph glyph-name="equal_greater.liga"
			       d="M-538 250h891l23 24q15 16 27.5 26.5t20.5 16.5q10 8 18 12l1 3q-4 4 -9 11t-13 18.5t-19 28.5l-13 20h-902l13 80h839l-86 135h97l184 -295l-276 -295h-109l128 135h-828z"/>
			<glyph glyph-name="SPC"
			/>
			<glyph glyph-name="bracketleft_bar_bar_bracketright.liga"
			       d="M26 -30h155l123 780h-155l13 80h245l-149 -940h-245zM-1456 830h245l-13 -80h-155l-123 -780h155l-13 -80h-245zM-274 830h90l-149 -940h-90zM-854 830h90l-149 -940h-90z"/>
			<glyph glyph-name="bar_braceright.liga"
			       d="M-126 -31h120q94 0 108 86l26 165q5 27 15.5 51.5t27.5 43t40.5 29.5t53.5 12l1 5q-30 1 -50 12.5t-31 30.5t-13.5 44t1.5 52l26 164q14 86 -82 86h-120l13 80h120q89 0 130.5 -43.5t28.5 -122.5l-26 -164q-4 -27 -3.5 -46t9 -31t27 -17.5t51.5 -5.5h90l-13 -80h-90
q-32 0 -52.5 -5.5t-33.5 -17.5t-19.5 -31t-10.5 -46l-26 -165q-13 -79 -67.5 -122.5t-143.5 -43.5h-120zM-255 830h90l-149 -940h-90z"/>
			<glyph glyph-name="bracketleft_bar.liga"
			       d="M-394 -110l149 940h385l-13 -80h-295l-123 -780h295l-13 -80h-385zM315 830h90l-149 -940h-90z"/>
			<glyph glyph-name="bracketleft_less.liga"
			       d="M-21 295l16 100l464 215l-15 -96l-334 -149q-24 -10 -41 -15q-9 -2 -16 -3l-1 -7q7 -2 15 -5q7 -2 16 -6t20 -10l285 -150l-13 -89zM-285 830h245l-13 -80h-155l-123 -780h155l-13 -80h-245z"/>
			<glyph glyph-name="braceleft_bar.liga"
			       d="M-436 319l13 80h90q32 0 52.5 5.5t33 17.5t18.5 31t11 46l27 165q12 79 67 122.5t144 43.5h120l-13 -80h-120q-94 0 -108 -86l-27 -165q-4 -27 -14.5 -51.5t-28 -43t-40.5 -29.5t-53 -12l-1 -5q30 -1 50 -12.5t31 -30.5t13.5 -44t-1.5 -52l-26 -164q-14 -86 82 -86h120
l-13 -80h-120q-89 0 -130.5 43.5t-28.5 122.5l26 164q4 27 3.5 46t-9 31t-27 17.5t-51.5 5.5h-90zM315 829h90l-149 -940h-90z"/>
			<glyph glyph-name="bar_bracketright.liga"
			       d="M-139 -110l13 80h295l123 780h-295l13 80h385l-149 -940h-385zM-404 -110l149 940h90l-149 -940h-90z"/>
			<glyph glyph-name="slash_equal.liga"
			       d="M-75 830h98l-182 -340h677l-13 -80h-706l-86 -160h767l-13 -80h-796l-150 -280h-97z"/>
			<glyph glyph-name="less_less.liga"
			       d="M35 385l479 215l-15 -95l-350 -155q-27 -11 -43 -13q-8 -1 -14 0l-1 -7q6 1 14 -1q7 -1 16.5 -4t22.5 -10l300 -157l-14 -88l-411 215zM-490 385l479 215l-15 -95l-350 -155q-28 -11 -43 -13q-8 -1 -14 0l-1 -7q6 1 14 -1q7 -1 16.5 -4t22.5 -10l300 -157l-14 -88
l-411 215z"/>
			<glyph glyph-name="less_bar_bar_bar.liga"
			       d="M-1369 285l16 100l653 365h90l-132 -830h-90zM-1297 330q6 0 15 -2q7 -2 17.5 -6.5t24.5 -14.5l425 -280l97 610l-514 -279q-17 -9 -29 -13t-20 -6q-9 -2 -15 -2zM28 -79l131 829h90l-131 -829h-90zM-403 -79l132 829h90l-132 -829h-90z"/>
			<glyph glyph-name="less_bar_bar.liga"
			       d="M-936 280l16 100l654 370h90l-133 -835h-90zM-784 289l402 -269l99 624l-489 -275q-15 -8 -29.5 -15t-25.5 -12q-13 -6 -25 -11l-1 -7q11 -4 22 -9q10 -5 22 -11.5t25 -14.5zM27 -80l132 830h90l-132 -830h-90z"/>
			<glyph glyph-name="less_bar.liga"
			       d="M-386 280l16 100l654 370h90l-132 -835h-90zM-234 289l402 -269l99 624l-489 -275q-15 -8 -29.5 -15t-25.5 -12q-13 -6 -25 -11l-1 -7q11 -4 22 -9q10 -5 22 -11.5t25 -14.5z"/>
			<glyph glyph-name="greater_greater.liga"
			       d="M-498 168l349 152q14 7 25 9.5t18 3.5q8 2 14 1l1 7q-6 0 -13 1q-7 2 -17 5t-23 10l-300 157l14 86l411 -215l-16 -100l-479 -215zM11 70l16 98l349 152q15 7 25.5 9.5t17.5 3.5q8 2 14 1l1 7q-6 0 -13 1q-7 2 -16.5 5t-22.5 10l-301 157l14 86l411 -215l-16 -100z"/>
			<glyph glyph-name="greater_bracketright.liga"
			       d="M-415 174l334 150q14 6 24 10.5t18 6.5q9 3 16 5l2 7q-7 1 -15 4q-15 3 -37 15l-286 153l13 85l396 -215l-16 -100l-464 -215zM295 -110h-245l13 80h155l123 780h-155l13 80h245z"/>
			<glyph glyph-name="colon_question.liga"
			       d="M96 635l13 85h125q52 0 91.5 -15.5t64.5 -44.5t35 -69.5t2 -90.5q-14 -87 -70 -136t-147 -54l-17 -105h-90l29 180h50q65 0 107.5 33t51.5 92t-22.5 92t-97.5 33h-125zM-371 71q5 35 31.5 58t63.5 23t56 -23t13 -58q-6 -37 -32.5 -59t-62.5 -22q-37 0 -56 22.5t-13 58.5z
M-306 479q5 35 31.5 58t63.5 23t56 -23t13 -58q-6 -37 -32.5 -59t-62.5 -22q-37 0 -56 22.5t-13 58.5zM56 54q5 27 26.5 44t50.5 17h20q29 0 43.5 -17t9.5 -44t-26 -43t-50 -16h-20q-29 0 -44 15.5t-10 43.5z"/>
			<glyph glyph-name="colon_question_greater.liga"
			       d="M-511 720h125q52 0 91.5 -15.5t64.5 -44.5t35 -69.5t2 -90.5q-14 -87 -70 -136t-147 -54l-17 -105h-90l29 180h50q65 0 107.5 33t51.5 92t-22.5 92t-97.5 33h-125zM-15 159l334 150q14 6 24 10.5t18 6.5q9 3 16 5l2 7q-7 1 -15 4q-15 3 -37 15l-286 153l13 85l396 -215
l-16 -100l-464 -215zM-1021 71q5 35 31.5 58t63.5 23t56 -23t13 -58q-6 -37 -32.5 -59t-62.5 -22q-37 0 -56 22.5t-13 58.5zM-956 479q5 35 31.5 58t63.5 23t56 -23t13 -58q-6 -37 -32.5 -59t-62.5 -22q-37 0 -56 22.5t-13 58.5zM-564 53q5 28 26.5 45t50.5 17h20
q29 0 43.5 -17t9.5 -44t-26.5 -43t-50.5 -16h-20q-29 0 -43.5 15.5t-9.5 42.5z"/>
			<glyph glyph-name="colon_colon_equal.liga"
			       d="M-542 126q5 35 31.5 58t63.5 23t56 -23t13 -58q-5 -37 -32 -59t-63 -22q-37 0 -56 22.5t-13 58.5zM-477 534q5 35 31.5 58t63.5 23t56 -23t13 -58q-6 -37 -32.5 -59t-62.5 -22q-37 0 -56 22.5t-13 58.5zM-60 250h440l-13 -80h-440zM-22 490h440l-13 -80h-440zM-989 126
q5 35 31.5 58t63.5 23t56 -23t13 -58q-5 -37 -32 -59t-63 -22q-37 0 -56 22.5t-13 58.5zM-924 534q5 35 31.5 58t63.5 23t56 -23t13 -58q-6 -37 -32.5 -59t-62.5 -22q-37 0 -56 22.5t-13 58.5z"/>
			<glyph glyph-name="bar_bar_bar_greater.liga"
			       d="M-469 -80l131 830h90l538 -365l-16 -100l-653 -365h-90zM-361 32l514 282q17 10 29 14t20 5q9 2 15 1l1 7q-6 0 -15 2q-7 2 -17.5 7t-24.5 14l-424 287zM-899 -79l132 829h90l-132 -829h-90zM-1334 -79l132 829h90l-132 -829h-90z"/>
			<glyph glyph-name="bar_bar_greater.liga"
			       d="M-419 -85l133 835h90l536 -370l-16 -100l-653 -365h-90zM177 295q15 8 29.5 15t25.5 12q13 6 25 11l1 7q-11 4 -22 9q-10 5 -22 11.5t-25 14.5l-401 274l-99 -624zM-717 750h90l-132 -829h-90z"/>
			<glyph glyph-name="bar_greater.liga"
			       d="M-379 -85l133 835h90l536 -370l-16 -100l-653 -365h-90zM-271 25l488 270q15 8 29.5 15t25.5 12q13 6 25 11l1 7q-11 4 -22 9q-10 5 -22 11.5t-25 14.5l-401 274z"/>
			<glyph glyph-name="zero.alt"
			       d="M248 -10q-50 0 -88 15.5t-62.5 43.5t-34 67.5t-1.5 87.5l50 312q16 100 83.5 157t170.5 57q48 0 85 -14t61.5 -40.5t35.5 -63.5t6 -82q-1 -4 -1 -7t-1 -7l-50 -312q-16 -100 -83.5 -157t-170.5 -57zM150 190q-5 -56 25 -88t86 -32q60 0 100.5 36t50.5 98l38 239zM464 530
q5 56 -25 88t-86 32q-60 0 -100.5 -36t-50.5 -98l-38 -239z"/>
			<glyph glyph-name="a.alt"
			       d="M64 205l22 140q8 48 27.5 88t48 68t65 43.5t78.5 15.5q60 0 95 -28t40 -77h8l15 95h83l-87 -550h-83l15 95h-8q-20 -49 -64.5 -77t-104.5 -28q-42 0 -73.5 15.5t-51 43.5t-26 68t0.5 88zM259 68q54 0 92 34t51 92l25 160q7 59 -21 93.5t-82 34.5q-62 0 -101 -36.5
t-49 -100.5l-22 -140q-10 -64 17.5 -100.5t89.5 -36.5z"/>
			<glyph glyph-name="asterisk_asterisk_asterisk.liga"
			       d="M88 470l84 -32q30 -11 61 -32.5t52 -38.5l5 4q-3 28 -5 68.5t3 75.5l15 95h88l-15 -95q-3 -17 -8.5 -36.5t-12.5 -39t-14.5 -37l-13.5 -31.5l4 -3q26 17 63 38t71 33l92 32l17 -87l-92 -32q-32 -11 -72 -16t-69 -7l-4 -7q20 -18 44 -45.5t39 -54.5l43 -78l-77 -49l-43 78
q-15 27 -25.5 63.5t-16.5 63.5h-7q-14 -27 -35 -64t-44 -65l-66 -78l-67 51l66 78q24 28 57.5 55.5t58.5 45.5l-2 7q-29 2 -66.5 8t-66.5 17l-84 32zM-474 630l84 -32q30 -11 61 -32.5t52 -38.5l5 4q-3 28 -5 68.5t3 75.5l15 95h88l-15 -95q-3 -17 -8.5 -36.5t-12.5 -39
t-14.5 -37l-13.5 -31.5l4 -3q26 17 63 38t71 33l92 32l17 -87l-92 -32q-32 -11 -72 -16t-69 -7l-4 -7q20 -18 44 -45.5t39 -54.5l43 -78l-77 -49l-43 78q-15 27 -25.5 63.5t-16.5 63.5h-7q-14 -27 -35 -64t-44 -65l-66 -78l-67 51l66 78q24 28 57.5 55.5t58.5 45.5l-2 7
q-29 2 -66.5 8t-66.5 17l-84 32zM-1033 470l84 -32q30 -11 61 -32.5t52 -38.5l5 4q-3 28 -5 68.5t3 75.5l15 95h88l-15 -95q-3 -17 -8.5 -36.5t-12.5 -39t-14.5 -37l-13.5 -31.5l4 -3q26 17 63 38t71 33l92 32l17 -87l-92 -32q-32 -11 -72 -16t-69 -7l-4 -7q20 -18 44 -45.5
t39 -54.5l43 -78l-77 -49l-43 78q-15 27 -25.5 63.5t-16.5 63.5h-7q-14 -27 -35 -64t-44 -65l-66 -78l-67 51l66 78q24 28 57.5 55.5t58.5 45.5l-2 7q-29 2 -66.5 8t-66.5 17l-84 32z"/>
			<glyph glyph-name="colon_colon.liga"
			       d="M-341 71q5 35 31.5 58t63.5 23t56 -23t13 -58q-5 -37 -32 -59t-63 -22q-37 0 -56 22.5t-13 58.5zM-276 479q5 35 31.5 58t63.5 23t56 -23t13 -58q-6 -37 -32.5 -59t-62.5 -22q-37 0 -56 22.5t-13 58.5zM99 71q5 35 31.5 58t63.5 23t56 -23t13 -58q-5 -37 -32 -59t-63 -22
q-37 0 -56 22.5t-13 58.5zM164 479q5 35 31.5 58t63.5 23t56 -23t13 -58q-6 -37 -32.5 -59t-62.5 -22q-37 0 -56 22.5t-13 58.5z"/>
			<glyph glyph-name="colon_colon_colon.liga"
			       d="M-861 71q5 35 31.5 58t63.5 23t56 -23t13 -58q-5 -37 -32 -59t-63 -22q-37 0 -56 22.5t-13 58.5zM-796 479q5 35 31.5 58t63.5 23t56 -23t13 -58q-6 -37 -32.5 -59t-62.5 -22q-37 0 -56 22.5t-13 58.5zM-421 71q5 35 31.5 58t63.5 23t56 -23t13 -58q-5 -37 -32 -59
t-63 -22q-37 0 -56 22.5t-13 58.5zM-356 479q5 35 31.5 58t63.5 23t56 -23t13 -58q-6 -37 -32.5 -59t-62.5 -22q-37 0 -56 22.5t-13 58.5zM19 71q5 35 31.5 58t63.5 23t56 -23t13 -58q-5 -37 -32 -59t-63 -22q-37 0 -56 22.5t-13 58.5zM84 479q5 35 31.5 58t63.5 23t56 -23
t13 -58q-6 -37 -32.5 -59t-62.5 -22q-37 0 -56 22.5t-13 58.5z"/>
			<glyph glyph-name="colon_greater.liga"
			       d="M-421 126q5 35 31.5 58t63.5 23t56 -23t13 -58q-5 -37 -32 -59t-63 -22q-37 0 -56 22.5t-13 58.5zM-356 534q5 35 31.5 58t63.5 23t56 -23t13 -58q-6 -37 -32.5 -59t-62.5 -22q-37 0 -56 22.5t-13 58.5zM-40 159l334 150q14 6 24 10.5t18 6.5q9 3 16 5l2 7q-7 1 -15 4
q-15 3 -37 15l-286 153l13 85l396 -215l-16 -100l-464 -215z"/>
			<glyph glyph-name="colon_less.liga"
			       d="M-421 126q5 35 31.5 58t63.5 23t56 -23t13 -58q-5 -37 -32 -59t-63 -22q-37 0 -56 22.5t-13 58.5zM-356 534q5 35 31.5 58t63.5 23t56 -23t13 -58q-6 -37 -32.5 -59t-62.5 -22q-37 0 -56 22.5t-13 58.5zM-61 280l16 100l464 215l-15 -96l-334 -149q-24 -10 -41 -15
q-9 -2 -16 -3l-1 -7q7 -2 15 -5q7 -2 16 -6t20 -10l285 -150l-13 -89z"/>
			<glyph glyph-name="equal_exclam_equal.liga"
			       d="M-345 215l33 345l25 160h102l-25 -160l-77 -345h-58zM-1133 250h545l-12 -80h-545zM-38 250h545l-12 -80h-545zM-1095 490h545l-12 -80h-545zM0 490h545l-12 -80h-545zM-418 53q5 28 25.5 45t49.5 17h20q29 0 45 -17t11 -44t-25.5 -43t-49.5 -16h-20q-29 0 -44.5 15.5
t-11.5 42.5z"/>
			<glyph glyph-name="exclam_exclam.liga"
			       d="M-252 560l25 160h102l-25 -160l-77 -345h-58zM-357 54q5 27 25 44t49 17h20q29 0 45 -17t11 -44t-25.5 -43t-49.5 -16h-20q-29 0 -44.5 15.5t-10.5 43.5zM228 560l25 160h102l-25 -160l-77 -345h-58zM123 54q5 27 25 44t49 17h20q29 0 45 -17t11 -44t-25.5 -43t-49.5 -16
h-20q-29 0 -44.5 15.5t-10.5 43.5z"/>
			<glyph glyph-name="greater_colon.liga"
			       d="M179 126q5 35 31.5 58t63.5 23t56 -23t13 -58q-5 -37 -32 -59t-63 -22q-37 0 -56 22.5t-13 58.5zM244 534q5 35 31.5 58t63.5 23t56 -23t13 -58q-6 -37 -32.5 -59t-62.5 -22q-37 0 -56 22.5t-13 58.5zM-400 159l334 150q14 6 24 10.5t18 6.5q9 3 16 5l2 7q-7 1 -15 4
q-15 3 -37 15l-286 153l13 85l396 -215l-16 -100l-464 -215z"/>
			<glyph glyph-name="less_colon.liga"
			       d="M179 126q5 35 31.5 58t63.5 23t56 -23t13 -58q-5 -37 -32 -59t-63 -22q-37 0 -56 22.5t-13 58.5zM244 534q5 35 31.5 58t63.5 23t56 -23t13 -58q-6 -37 -32.5 -59t-62.5 -22q-37 0 -56 22.5t-13 58.5zM-381 280l16 100l464 215l-15 -96l-334 -149q-24 -10 -41 -15
q-9 -2 -16 -3l-1 -7q7 -2 15 -5q7 -2 16 -6t20 -10l285 -150l-13 -89z"/>
			<glyph glyph-name="less_greater.liga"
			       d="M-430 380l474 215l406 -215l-16 -100l-474 -215l-406 215zM-373 326q7 -1 16 -3q7 -2 17 -5.5t21 -9.5l290 -154l345 150q14 6 25 10t19 7q9 4 17 6l1 7q-7 1 -15 4q-7 2 -16.5 6t-20.5 10l-293 152l-346 -156q-26 -11 -42 -14q-9 -2 -17 -3z"/>
			</font>
</defs>
</svg>
