<svg xmlns="http://www.w3.org/2000/svg" width="3077.344" height="2981.817" viewBox="1000 1000 1500 2000">
	<defs>
		<linearGradient id="a" x1="0.41" y1="0.5" x2="0.039" y2="0.317" gradientUnits="objectBoundingBox">
			<stop offset="0" stop-color="#3cabd5" stop-opacity="0.765"/>
			<stop offset="1" stop-color="#0295f2" stop-opacity="0.604"/>
		</linearGradient>
		<linearGradient id="b" x1="0.49" y1="0.992" x2="0.059" y2="0.325" gradientUnits="objectBoundingBox">
			<stop offset="0" stop-color="#36096d" stop-opacity="0.518"/>
			<stop offset="1" stop-color="#37d5d6" stop-opacity="0.102"/>
		</linearGradient>
		<linearGradient id="c" x1="0.943" y1="0.378" x2="0.003" y2="0.619" gradientUnits="objectBoundingBox">
			<stop offset="0" stop-color="#07ddc5" stop-opacity="0.655"/>
			<stop offset="1" stop-color="#0080d0" stop-opacity="0.627"/>
		</linearGradient>
	</defs>
	<g transform="translate(993.313 1008.203)">
		<g transform="translate(-993.313 548.879) rotate(-50)">
			<path d="M1526.9,1978.267c224.78-107.989,361.842-437.551,331.938-729.065-29.406-291.514-226.276-544.421-404.7-732.982-178.429-188-338.416-311.657-537.28-452.658C717.5-78,479.757-237.464,297.839-181.512S-9.676,146.372-85.434,398.719c-75.757,252.907-101.176,486.79-73.265,717.875,27.911,231.645,109.15,459.932,257.675,583.588C247,1823.838,461.316,1842.861,725.47,1908.326,989.126,1974.351,1302.124,2086.816,1526.9,1978.267Z"
			      transform="translate(169.709 192.986)" fill="url(#a)"/>
		</g>
		<g transform="translate(652.64 -650.556)">
			<path d="M1115.9-25.07c149.105,114.955,268.39,267.9,303.759,438.348,35.716,170.45-12.483,358.408-112.7,510.69-100.56,152.282-253.479,269.219-436.914,352.462-183.088,83.243-396.69,132.792-589.833,85.225C86.73,1313.757-86.3,1168.742-173.337,992.346s-87.729-384.5-47.852-582.7C-181.313,211.116-100.865,21.837,44.426-93.448c145.291-115.615,354.732-157.237,548.916-140.06S966.8-139.694,1115.9-25.07Z"
			      transform="translate(0 0)" fill="url(#b)"/>
		</g>
		<g transform="matrix(0.875, 0.485, -0.485, 0.875, 244.686, -552.443)">
			<path d="M686.268-11.6c54.773,103.071,28.34,343.878,7.9,527.372-20.71,183.032-35.425,307.826-60.5,461.277-25.343,152.989-61.041,334.172-149.331,479.765s-229.447,255.6-367.606,225.554c-138.431-30.043-273.865-200.6-312.833-415.981-38.968-215.848,18.8-477.454,44.69-752,25.615-275.01,19.348-563.424,99.464-659.1C28.174-239.923,194.4-142.4,345.367-110.969,496.334-80,631.768-114.666,686.268-11.6Z"
			      transform="translate(0 0)" fill="url(#c)"/>
		</g>
	</g>
</svg>
